SplineFontDB: 3.0
FontName: feather
FullName: feather
FamilyName: feather
Weight: Book
Copyright: \nCreated by iconfont\n
Version: 1.0
ItalicAngle: 0
UnderlinePosition: 10
UnderlineWidth: 0
Ascent: 896
Descent: 128
InvalidEm: 0
sfntRevision: 0x00010000
LayerCount: 2
Layer: 0 1 "+BBcEMAQ0BD0EOAQ5 +BD8EOwQwBD0A" 1
Layer: 1 1 "+BB8ENQRABDUENAQ9BDgEOQAA +BD8EOwQwBD0A" 0
XUID: [1021 858 -604482102 28226]
StyleMap: 0x0040
FSType: 8
OS2Version: 1
OS2_WeightWidthSlopeOnly: 0
OS2_UseTypoMetrics: 0
CreationTime: 1525816166
ModificationTime: 1525816166
PfmFamily: 17
TTFWeight: 400
TTFWidth: 5
LineGap: 92
VLineGap: 0
Panose: 2 0 5 3 0 0 0 0 0 0
OS2TypoAscent: 896
OS2TypoAOffset: 0
OS2TypoDescent: -128
OS2TypoDOffset: 0
OS2TypoLinegap: 92
OS2WinAscent: 935
OS2WinAOffset: 0
OS2WinDescent: 168
OS2WinDOffset: 0
HheadAscent: 896
HheadAOffset: 0
HheadDescent: -128
HheadDOffset: 0
OS2SubXSize: 649
OS2SubYSize: 716
OS2SubXOff: 0
OS2SubYOff: 143
OS2SupXSize: 649
OS2SupYSize: 716
OS2SupXOff: 0
OS2SupYOff: 491
OS2StrikeYSize: 50
OS2StrikeYPos: 264
OS2Vendor: 'PfEd'
OS2CodePages: 00000001.00000000
OS2UnicodeRanges: 00000000.00000000.00000000.00000000
DEI: 91125
ShortTable: maxp 16
  1
  0
  276
  232
  15
  0
  0
  2
  0
  10
  10
  0
  255
  0
  0
  0
EndShort
LangName: 1033 "" "" "Regular" "feather" "" "Version 1.0" "" "" "" "" "Generated by svg2ttf from Fontello project." "http://fontello.com"
GaspTable: 1 65535 2 0
Encoding: UnicodeBmp
UnicodeInterp: none
NameList: AGL For New Fonts
DisplaySize: -48
AntiAlias: 1
FitToEm: 0
WinInfo: 37 37 12
BeginChars: 65539 276

StartChar: glyph3
Encoding: 120 120 3
Width: 1001
GlyphClass: 2
Flags: W
LayerCount: 2
Fore
SplineSet
281 543 m 1,0,1
 254 542 254 542 228 542 c 2,2,-1
 145 542 l 2,3,4
 127 542 127 542 108.5 536 c 128,-1,5
 90 530 90 530 76 517.5 c 128,-1,6
 62 505 62 505 53 485.5 c 128,-1,7
 44 466 44 466 44 440 c 2,8,-1
 44 364 l 1,9,-1
 956 364 l 1,10,-1
 955 453 l 2,11,12
 955 466 955 466 950 482 c 128,-1,13
 945 498 945 498 933 511.5 c 128,-1,14
 921 525 921 525 901.5 534 c 128,-1,15
 882 543 882 543 852 543 c 2,16,-1
 719 543 l 1,17,-1
 719 446 l 1,18,-1
 281 446 l 1,19,-1
 281 543 l 1,0,1
955 310 m 1,20,-1
 955 258 l 1,21,-1
 956 148 l 2,22,23
 956 119 956 119 945.5 100.5 c 128,-1,24
 935 82 935 82 919.5 70.5 c 128,-1,25
 904 59 904 59 886.5 54.5 c 128,-1,26
 869 50 869 50 855 49.5 c 128,-1,27
 841 49 841 49 826 50 c 2,28,-1
 764 50 l 1,29,-1
 719 178 l 1,30,-1
 280 178 l 1,31,-1
 236 50 l 1,32,-1
 173 50 l 2,33,34
 153 50 153 50 128 50.5 c 128,-1,35
 103 51 103 51 87 60.5 c 128,-1,36
 71 70 71 70 61.5 83.5 c 128,-1,37
 52 97 52 97 48 113 c 128,-1,38
 44 129 44 129 44 143 c 2,39,-1
 44 310 l 1,40,-1
 955 310 l 1,20,-1
163 247 m 0,41,42
 151 247 151 247 142 238.5 c 128,-1,43
 133 230 133 230 133 217 c 128,-1,44
 133 204 133 204 142 195.5 c 128,-1,45
 151 187 151 187 163.5 187 c 128,-1,46
 176 187 176 187 185 195.5 c 128,-1,47
 194 204 194 204 194 217 c 128,-1,48
 194 230 194 230 185 238.5 c 128,-1,49
 176 247 176 247 163 247 c 0,41,42
316 123 m 1,50,51
 308 97 308 97 302 75 c 0,52,53
 297 56 297 56 292 38 c 2,54,-1
 284 13 l 2,55,56
 282 6 282 6 281 -2 c 128,-1,57
 280 -10 280 -10 282 -16.5 c 128,-1,58
 284 -23 284 -23 291.5 -27 c 128,-1,59
 299 -31 299 -31 313 -31 c 2,60,-1
 678 -31 l 2,61,62
 701 -31 701 -31 712 -19 c 128,-1,63
 723 -7 723 -7 714 19 c 0,64,65
 709 32 709 32 704.5 49.5 c 128,-1,66
 700 67 700 67 695 85 c 128,-1,67
 690 103 690 103 684 123 c 1,68,-1
 316 123 l 1,50,51
336 498 m 1,69,-1
 336 726 l 2,70,71
 336 737 336 737 338.5 749 c 128,-1,72
 341 761 341 761 348.5 770.5 c 128,-1,73
 356 780 356 780 369 786 c 128,-1,74
 382 792 382 792 403 792 c 2,75,-1
 591 792 l 2,76,77
 622 792 622 792 642.5 777.5 c 128,-1,78
 663 763 663 763 663 725 c 2,79,-1
 663 498 l 1,80,-1
 336 498 l 1,69,-1
EndSplineSet
EndChar

StartChar: alert-octagon
Encoding: 59419 59419 4
Width: 1024
GlyphClass: 2
Flags: W
LayerCount: 2
Fore
SplineSet
128 543 m 1,0,-1
 128 225 l 1,1,-1
 353 0 l 1,2,-1
 671 0 l 1,3,-1
 896 225 l 1,4,-1
 896 543 l 1,5,-1
 671 768 l 1,6,-1
 353 768 l 1,7,-1
 128 543 l 1,0,-1
335 853 m 2,8,-1
 689 853 l 2,9,10
 706 853 706 853 719 841 c 2,11,-1
 969 591 l 2,12,13
 981 578 981 578 981 561 c 2,14,-1
 981 207 l 2,15,16
 981 190 981 190 969 177 c 2,17,-1
 719 -73 l 2,18,19
 706 -85 706 -85 689 -85 c 2,20,-1
 335 -85 l 2,21,22
 318 -85 318 -85 305 -73 c 2,23,-1
 55 177 l 2,24,25
 43 190 43 190 43 207 c 2,26,-1
 43 561 l 2,27,28
 43 578 43 578 55 591 c 2,29,-1
 305 841 l 2,30,31
 318 853 318 853 335 853 c 2,8,-1
512 213 m 1024,32,-1
469 213 m 0,33,34
 469 202 469 202 475 192 c 128,-1,35
 481 182 481 182 491 176.5 c 128,-1,36
 501 171 501 171 512 171 c 128,-1,37
 523 171 523 171 533 176.5 c 128,-1,38
 543 182 543 182 549 192 c 128,-1,39
 555 202 555 202 555 213.5 c 128,-1,40
 555 225 555 225 549 234.5 c 128,-1,41
 543 244 543 244 533 250 c 128,-1,42
 523 256 523 256 512 256 c 128,-1,43
 501 256 501 256 491 250 c 128,-1,44
 481 244 481 244 475 234.5 c 128,-1,45
 469 225 469 225 469 213 c 0,33,34
469 555 m 2,46,-1
 469 384 l 2,47,48
 470 366 470 366 482 354 c 128,-1,49
 494 342 494 342 512 342 c 128,-1,50
 530 342 530 342 542 354 c 128,-1,51
 554 366 554 366 555 384 c 2,52,-1
 555 555 l 2,53,54
 554 573 554 573 542 585 c 128,-1,55
 530 597 530 597 512 597 c 128,-1,56
 494 597 494 597 482 585 c 128,-1,57
 470 573 470 573 469 555 c 2,46,-1
EndSplineSet
EndChar

StartChar: alert-circle
Encoding: 59420 59420 5
Width: 1024
GlyphClass: 2
Flags: W
LayerCount: 2
Fore
SplineSet
512 -85 m 1,0,1
 313 -80 313 -80 180.5 52.5 c 128,-1,2
 48 185 48 185 43 384 c 1,3,4
 48 583 48 583 180.5 715.5 c 128,-1,5
 313 848 313 848 512 853 c 1,6,7
 711 848 711 848 843.5 715.5 c 128,-1,8
 976 583 976 583 981 384 c 1,9,10
 976 185 976 185 843.5 52.5 c 128,-1,11
 711 -80 711 -80 512 -85 c 1,0,1
512 0 m 1,12,13
 675 4 675 4 783.5 112.5 c 128,-1,14
 892 221 892 221 896 384 c 1,15,16
 892 547 892 547 783.5 655.5 c 128,-1,17
 675 764 675 764 512 768 c 1,18,19
 349 764 349 764 240.5 655.5 c 128,-1,20
 132 547 132 547 128 384 c 1,21,22
 132 221 132 221 240.5 112.5 c 128,-1,23
 349 4 349 4 512 0 c 1,12,13
469 555 m 1,24,-1
 469 384 l 2,25,26
 470 366 470 366 482 354 c 128,-1,27
 494 342 494 342 512 342 c 128,-1,28
 530 342 530 342 542 354 c 128,-1,29
 554 366 554 366 555 384 c 2,30,-1
 555 555 l 2,31,32
 554 573 554 573 542 585 c 128,-1,33
 530 597 530 597 512 597 c 128,-1,34
 494 597 494 597 482 585 c 128,-1,35
 470 573 470 573 469 555 c 1,24,-1
512 213 m 1024,36,-1
469 213 m 0,37,38
 469 202 469 202 475 192 c 128,-1,39
 481 182 481 182 491 176.5 c 128,-1,40
 501 171 501 171 512 171 c 128,-1,41
 523 171 523 171 533 176.5 c 128,-1,42
 543 182 543 182 549 192 c 128,-1,43
 555 202 555 202 555 213.5 c 128,-1,44
 555 225 555 225 549 234.5 c 128,-1,45
 543 244 543 244 533 250 c 128,-1,46
 523 256 523 256 512 256 c 128,-1,47
 501 256 501 256 491 250 c 128,-1,48
 481 244 481 244 475 234.5 c 128,-1,49
 469 225 469 225 469 213 c 0,37,38
EndSplineSet
EndChar

StartChar: activity
Encoding: 59421 59421 6
Width: 1024
GlyphClass: 2
Flags: W
LayerCount: 2
Fore
SplineSet
424 781 m 2,0,1
 412 811 412 811 384 811 c 128,-1,2
 356 811 356 811 344 781 c 2,3,-1
 225 427 l 1,4,-1
 85 427 l 2,5,6
 67 426 67 426 55 414 c 128,-1,7
 43 402 43 402 43 384 c 128,-1,8
 43 366 43 366 55 354 c 128,-1,9
 67 342 67 342 85 341 c 2,10,-1
 256 341 l 2,11,12
 270 342 270 342 281 349.5 c 128,-1,13
 292 357 292 357 296 371 c 2,14,-1
 384 633 l 1,15,-1
 600 -13 l 2,16,17
 612 -43 612 -43 640 -43 c 128,-1,18
 668 -43 668 -43 680 -13 c 2,19,-1
 799 341 l 1,20,-1
 939 341 l 2,21,22
 957 342 957 342 969 354 c 128,-1,23
 981 366 981 366 981 384 c 128,-1,24
 981 402 981 402 969 414 c 128,-1,25
 957 426 957 426 939 427 c 2,26,-1
 768 427 l 2,27,28
 754 426 754 426 743 418.5 c 128,-1,29
 732 411 732 411 728 397 c 2,30,-1
 640 135 l 1,31,-1
 424 781 l 2,0,1
EndSplineSet
EndChar

StartChar: alert-triangle
Encoding: 59422 59422 7
Width: 1024
GlyphClass: 2
Flags: W
LayerCount: 2
Fore
SplineSet
402 753 m 2,0,1
 420 782 420 782 449 798.5 c 128,-1,2
 478 815 478 815 512 815 c 128,-1,3
 546 815 546 815 575 798.5 c 128,-1,4
 604 782 604 782 622 753 c 2,5,-1
 983 149 l 2,6,7
 1000 119 1000 119 1000.5 85.5 c 128,-1,8
 1001 52 1001 52 983.5 22 c 128,-1,9
 966 -8 966 -8 937 -25 c 128,-1,10
 908 -42 908 -42 873 -43 c 2,11,-1
 150 -43 l 2,12,13
 115 -42 115 -42 86.5 -25 c 128,-1,14
 58 -8 58 -8 40.5 22.5 c 128,-1,15
 23 53 23 53 23.5 86.5 c 128,-1,16
 24 120 24 120 41 150 c 2,17,-1
 402 753 l 2,0,1
115 107 m 2,18,19
 103 86 103 86 115 65 c 128,-1,20
 127 44 127 44 151 43 c 2,21,-1
 873 43 l 2,22,23
 897 44 897 44 909 64.5 c 128,-1,24
 921 85 921 85 910 106 c 2,25,-1
 548 709 l 2,26,27
 536 729 536 729 512 729 c 128,-1,28
 488 729 488 729 476 709 c 2,29,-1
 115 107 l 2,18,19
512 171 m 1024,30,-1
469 171 m 0,31,32
 469 159 469 159 475 149.5 c 128,-1,33
 481 140 481 140 491 134 c 128,-1,34
 501 128 501 128 512 128 c 128,-1,35
 523 128 523 128 533 134 c 128,-1,36
 543 140 543 140 549 149.5 c 128,-1,37
 555 159 555 159 555 170.5 c 128,-1,38
 555 182 555 182 549 192 c 128,-1,39
 543 202 543 202 533 207.5 c 128,-1,40
 523 213 523 213 512 213 c 128,-1,41
 501 213 501 213 491 207.5 c 128,-1,42
 481 202 481 202 475 192 c 128,-1,43
 469 182 469 182 469 171 c 0,31,32
469 512 m 2,44,-1
 469 341 l 2,45,46
 470 323 470 323 482 311 c 128,-1,47
 494 299 494 299 512 299 c 128,-1,48
 530 299 530 299 542 311 c 128,-1,49
 554 323 554 323 555 341 c 2,50,-1
 555 512 l 2,51,52
 554 530 554 530 542 542 c 128,-1,53
 530 554 530 554 512 554 c 128,-1,54
 494 554 494 554 482 542 c 128,-1,55
 470 530 470 530 469 512 c 2,44,-1
EndSplineSet
EndChar

StartChar: align-center
Encoding: 59423 59423 8
Width: 1024
GlyphClass: 2
Flags: W
LayerCount: 2
Fore
SplineSet
768 512 m 2,0,-1
 256 512 l 2,1,2
 244 512 244 512 234.5 506.5 c 128,-1,3
 225 501 225 501 219 491 c 128,-1,4
 213 481 213 481 213 469.5 c 128,-1,5
 213 458 213 458 219 448 c 128,-1,6
 225 438 225 438 234.5 432.5 c 128,-1,7
 244 427 244 427 256 427 c 2,8,-1
 768 427 l 2,9,10
 786 427 786 427 798 439 c 128,-1,11
 810 451 810 451 810 469 c 128,-1,12
 810 487 810 487 798 499.5 c 128,-1,13
 786 512 786 512 768 512 c 2,0,-1
896 683 m 2,14,-1
 128 683 l 2,15,16
 110 682 110 682 98 670 c 128,-1,17
 86 658 86 658 86 640 c 128,-1,18
 86 622 86 622 98 610 c 128,-1,19
 110 598 110 598 128 597 c 2,20,-1
 896 597 l 2,21,22
 914 598 914 598 926 610 c 128,-1,23
 938 622 938 622 938 640 c 128,-1,24
 938 658 938 658 926 670 c 128,-1,25
 914 682 914 682 896 683 c 2,14,-1
896 341 m 2,26,-1
 128 341 l 2,27,28
 110 341 110 341 98 329 c 128,-1,29
 86 317 86 317 86 299 c 128,-1,30
 86 281 86 281 98 268.5 c 128,-1,31
 110 256 110 256 128 256 c 2,32,-1
 896 256 l 2,33,34
 914 256 914 256 926 268.5 c 128,-1,35
 938 281 938 281 938 299 c 128,-1,36
 938 317 938 317 926 329 c 128,-1,37
 914 341 914 341 896 341 c 2,26,-1
768 171 m 2,38,-1
 256 171 l 2,39,40
 238 170 238 170 226 158 c 128,-1,41
 214 146 214 146 214 128 c 128,-1,42
 214 110 214 110 226 98 c 128,-1,43
 238 86 238 86 256 85 c 2,44,-1
 768 85 l 2,45,46
 786 86 786 86 798 98 c 128,-1,47
 810 110 810 110 810 128 c 128,-1,48
 810 146 810 146 798 158 c 128,-1,49
 786 170 786 170 768 171 c 2,38,-1
EndSplineSet
EndChar

StartChar: airplay
Encoding: 59424 59424 9
Width: 1024
GlyphClass: 2
Flags: W
LayerCount: 2
Fore
SplineSet
213 213 m 2,0,-1
 171 213 l 2,1,2
 153 214 153 214 140.5 226 c 128,-1,3
 128 238 128 238 128 256 c 2,4,-1
 128 683 l 2,5,6
 128 701 128 701 140.5 713 c 128,-1,7
 153 725 153 725 171 725 c 2,8,-1
 853 725 l 2,9,10
 871 725 871 725 883.5 713 c 128,-1,11
 896 701 896 701 896 683 c 2,12,-1
 896 256 l 2,13,14
 896 238 896 238 883.5 226 c 128,-1,15
 871 214 871 214 853 213 c 2,16,-1
 811 213 l 2,17,18
 793 213 793 213 780.5 201 c 128,-1,19
 768 189 768 189 768 171 c 128,-1,20
 768 153 768 153 780.5 140.5 c 128,-1,21
 793 128 793 128 811 128 c 2,22,-1
 853 128 l 2,23,24
 908 129 908 129 944 165.5 c 128,-1,25
 980 202 980 202 981 256 c 2,26,-1
 981 683 l 2,27,28
 980 737 980 737 944 773 c 128,-1,29
 908 809 908 809 853 811 c 2,30,-1
 171 811 l 2,31,32
 116 809 116 809 80 773 c 128,-1,33
 44 737 44 737 43 683 c 2,34,-1
 43 256 l 2,35,36
 44 202 44 202 80 165.5 c 128,-1,37
 116 129 116 129 171 128 c 2,38,-1
 213 128 l 2,39,40
 231 128 231 128 243.5 140.5 c 128,-1,41
 256 153 256 153 256 171 c 128,-1,42
 256 189 256 189 243.5 201 c 128,-1,43
 231 213 231 213 213 213 c 2,0,-1
512 189 m 1,44,-1
 390 43 l 1,45,-1
 634 43 l 1,46,-1
 512 189 l 1,44,-1
725 -43 m 2,47,-1
 299 -43 l 2,48,49
 286 -43 286 -43 276 -36 c 128,-1,50
 266 -29 266 -29 260.5 -18 c 128,-1,51
 255 -7 255 -7 256.5 5.5 c 128,-1,52
 258 18 258 18 266 27 c 2,53,-1
 479 283 l 2,54,55
 492 298 492 298 512 298 c 128,-1,56
 532 298 532 298 545 283 c 2,57,-1
 758 27 l 2,58,59
 766 18 766 18 767.5 5.5 c 128,-1,60
 769 -7 769 -7 763.5 -18 c 128,-1,61
 758 -29 758 -29 748 -36 c 128,-1,62
 738 -43 738 -43 725 -43 c 2,47,-1
EndSplineSet
EndChar

StartChar: align-justify
Encoding: 59425 59425 10
Width: 1024
GlyphClass: 2
Flags: W
LayerCount: 2
Fore
SplineSet
896 512 m 2,0,-1
 128 512 l 2,1,2
 116 512 116 512 106.5 506.5 c 128,-1,3
 97 501 97 501 91 491 c 128,-1,4
 85 481 85 481 85 469.5 c 128,-1,5
 85 458 85 458 91 448 c 128,-1,6
 97 438 97 438 106.5 432.5 c 128,-1,7
 116 427 116 427 128 427 c 2,8,-1
 896 427 l 2,9,10
 914 427 914 427 926 439 c 128,-1,11
 938 451 938 451 938 469 c 128,-1,12
 938 487 938 487 926 499.5 c 128,-1,13
 914 512 914 512 896 512 c 2,0,-1
896 683 m 2,14,-1
 128 683 l 2,15,16
 110 682 110 682 98 670 c 128,-1,17
 86 658 86 658 86 640 c 128,-1,18
 86 622 86 622 98 610 c 128,-1,19
 110 598 110 598 128 597 c 2,20,-1
 896 597 l 2,21,22
 914 598 914 598 926 610 c 128,-1,23
 938 622 938 622 938 640 c 128,-1,24
 938 658 938 658 926 670 c 128,-1,25
 914 682 914 682 896 683 c 2,14,-1
896 341 m 2,26,-1
 128 341 l 2,27,28
 110 341 110 341 98 329 c 128,-1,29
 86 317 86 317 86 299 c 128,-1,30
 86 281 86 281 98 268.5 c 128,-1,31
 110 256 110 256 128 256 c 2,32,-1
 896 256 l 2,33,34
 914 256 914 256 926 268.5 c 128,-1,35
 938 281 938 281 938 299 c 128,-1,36
 938 317 938 317 926 329 c 128,-1,37
 914 341 914 341 896 341 c 2,26,-1
896 171 m 2,38,-1
 128 171 l 2,39,40
 110 170 110 170 98 158 c 128,-1,41
 86 146 86 146 86 128 c 128,-1,42
 86 110 86 110 98 98 c 128,-1,43
 110 86 110 86 128 85 c 2,44,-1
 896 85 l 2,45,46
 914 86 914 86 926 98 c 128,-1,47
 938 110 938 110 938 128 c 128,-1,48
 938 146 938 146 926 158 c 128,-1,49
 914 170 914 170 896 171 c 2,38,-1
EndSplineSet
EndChar

StartChar: align-left
Encoding: 59426 59426 11
Width: 1024
GlyphClass: 2
Flags: W
LayerCount: 2
Fore
SplineSet
725 512 m 2,0,-1
 128 512 l 2,1,2
 116 512 116 512 106.5 506.5 c 128,-1,3
 97 501 97 501 91 491 c 128,-1,4
 85 481 85 481 85 469.5 c 128,-1,5
 85 458 85 458 91 448 c 128,-1,6
 97 438 97 438 106.5 432.5 c 128,-1,7
 116 427 116 427 128 427 c 2,8,-1
 725 427 l 2,9,10
 743 427 743 427 755.5 439 c 128,-1,11
 768 451 768 451 768 469 c 128,-1,12
 768 487 768 487 755.5 499.5 c 128,-1,13
 743 512 743 512 725 512 c 2,0,-1
896 683 m 2,14,-1
 128 683 l 2,15,16
 110 682 110 682 98 670 c 128,-1,17
 86 658 86 658 86 640 c 128,-1,18
 86 622 86 622 98 610 c 128,-1,19
 110 598 110 598 128 597 c 2,20,-1
 896 597 l 2,21,22
 914 598 914 598 926 610 c 128,-1,23
 938 622 938 622 938 640 c 128,-1,24
 938 658 938 658 926 670 c 128,-1,25
 914 682 914 682 896 683 c 2,14,-1
896 341 m 2,26,-1
 128 341 l 2,27,28
 110 341 110 341 98 329 c 128,-1,29
 86 317 86 317 86 299 c 128,-1,30
 86 281 86 281 98 268.5 c 128,-1,31
 110 256 110 256 128 256 c 2,32,-1
 896 256 l 2,33,34
 914 256 914 256 926 268.5 c 128,-1,35
 938 281 938 281 938 299 c 128,-1,36
 938 317 938 317 926 329 c 128,-1,37
 914 341 914 341 896 341 c 2,26,-1
725 171 m 2,38,-1
 128 171 l 2,39,40
 110 170 110 170 98 158 c 128,-1,41
 86 146 86 146 86 128 c 128,-1,42
 86 110 86 110 98 98 c 128,-1,43
 110 86 110 86 128 85 c 2,44,-1
 725 85 l 2,45,46
 743 86 743 86 755.5 98 c 128,-1,47
 768 110 768 110 768 128 c 128,-1,48
 768 146 768 146 755.5 158 c 128,-1,49
 743 170 743 170 725 171 c 2,38,-1
EndSplineSet
EndChar

StartChar: align-right
Encoding: 59427 59427 12
Width: 1024
GlyphClass: 2
Flags: W
LayerCount: 2
Fore
SplineSet
896 512 m 2,0,-1
 299 512 l 2,1,2
 287 512 287 512 277.5 506.5 c 128,-1,3
 268 501 268 501 262 491 c 128,-1,4
 256 481 256 481 256 469.5 c 128,-1,5
 256 458 256 458 262 448 c 128,-1,6
 268 438 268 438 277.5 432.5 c 128,-1,7
 287 427 287 427 299 427 c 2,8,-1
 896 427 l 2,9,10
 914 427 914 427 926 439 c 128,-1,11
 938 451 938 451 938 469 c 128,-1,12
 938 487 938 487 926 499.5 c 128,-1,13
 914 512 914 512 896 512 c 2,0,-1
896 683 m 2,14,-1
 128 683 l 2,15,16
 110 682 110 682 98 670 c 128,-1,17
 86 658 86 658 86 640 c 128,-1,18
 86 622 86 622 98 610 c 128,-1,19
 110 598 110 598 128 597 c 2,20,-1
 896 597 l 2,21,22
 914 598 914 598 926 610 c 128,-1,23
 938 622 938 622 938 640 c 128,-1,24
 938 658 938 658 926 670 c 128,-1,25
 914 682 914 682 896 683 c 2,14,-1
896 341 m 2,26,-1
 128 341 l 2,27,28
 110 341 110 341 98 329 c 128,-1,29
 86 317 86 317 86 299 c 128,-1,30
 86 281 86 281 98 268.5 c 128,-1,31
 110 256 110 256 128 256 c 2,32,-1
 896 256 l 2,33,34
 914 256 914 256 926 268.5 c 128,-1,35
 938 281 938 281 938 299 c 128,-1,36
 938 317 938 317 926 329 c 128,-1,37
 914 341 914 341 896 341 c 2,26,-1
896 171 m 2,38,-1
 299 171 l 2,39,40
 281 170 281 170 268.5 158 c 128,-1,41
 256 146 256 146 256 128 c 128,-1,42
 256 110 256 110 268.5 98 c 128,-1,43
 281 86 281 86 299 85 c 2,44,-1
 896 85 l 2,45,46
 914 86 914 86 926 98 c 128,-1,47
 938 110 938 110 938 128 c 128,-1,48
 938 146 938 146 926 158 c 128,-1,49
 914 170 914 170 896 171 c 2,38,-1
EndSplineSet
EndChar

StartChar: arrow-down-left
Encoding: 59428 59428 13
Width: 1024
GlyphClass: 2
Flags: W
LayerCount: 2
Fore
SplineSet
738 670 m 2,0,-1
 226 158 l 2,1,2
 214 145 214 145 214 128 c 128,-1,3
 214 111 214 111 226.5 98.5 c 128,-1,4
 239 86 239 86 256 86 c 128,-1,5
 273 86 273 86 286 98 c 2,6,-1
 798 610 l 2,7,8
 807 618 807 618 810 629 c 128,-1,9
 813 640 813 640 810 651.5 c 128,-1,10
 807 663 807 663 799 671 c 128,-1,11
 791 679 791 679 779.5 682 c 128,-1,12
 768 685 768 685 757 682 c 128,-1,13
 746 679 746 679 738 670 c 2,0,-1
299 512 m 2,14,15
 299 524 299 524 293 533.5 c 128,-1,16
 287 543 287 543 277 549 c 128,-1,17
 267 555 267 555 256 555 c 128,-1,18
 245 555 245 555 235 549 c 128,-1,19
 225 543 225 543 219 533.5 c 128,-1,20
 213 524 213 524 213 512 c 2,21,-1
 213 128 l 2,22,23
 214 110 214 110 226 98 c 128,-1,24
 238 86 238 86 256 85 c 2,25,-1
 640 85 l 2,26,27
 658 86 658 86 670 98 c 128,-1,28
 682 110 682 110 682 128 c 128,-1,29
 682 146 682 146 670 158 c 128,-1,30
 658 170 658 170 640 171 c 2,31,-1
 299 171 l 1,32,-1
 299 512 l 2,14,15
EndSplineSet
EndChar

StartChar: arrow-down-right
Encoding: 59429 59429 14
Width: 1024
GlyphClass: 2
Flags: W
LayerCount: 2
Fore
SplineSet
226 610 m 2,0,-1
 738 98 l 2,1,2
 751 86 751 86 768 86 c 128,-1,3
 785 86 785 86 797.5 98.5 c 128,-1,4
 810 111 810 111 810 128 c 128,-1,5
 810 145 810 145 798 158 c 2,6,-1
 286 670 l 2,7,8
 273 682 273 682 256 682 c 128,-1,9
 239 682 239 682 226.5 669.5 c 128,-1,10
 214 657 214 657 214 640 c 128,-1,11
 214 623 214 623 226 610 c 2,0,-1
384 171 m 2,12,13
 366 170 366 170 354 158 c 128,-1,14
 342 146 342 146 342 128 c 128,-1,15
 342 110 342 110 354 98 c 128,-1,16
 366 86 366 86 384 85 c 2,17,-1
 768 85 l 2,18,19
 786 86 786 86 798 98 c 128,-1,20
 810 110 810 110 811 128 c 2,21,-1
 811 512 l 2,22,23
 810 530 810 530 798 542 c 128,-1,24
 786 554 786 554 768 554 c 128,-1,25
 750 554 750 554 738 542 c 128,-1,26
 726 530 726 530 725 512 c 2,27,-1
 725 171 l 1,28,-1
 384 171 l 2,12,13
EndSplineSet
EndChar

StartChar: anchor
Encoding: 59430 59430 15
Width: 1024
GlyphClass: 2
Flags: W
LayerCount: 2
Fore
SplineSet
555 2 m 1,0,1
 691 20 691 20 783.5 112.5 c 128,-1,2
 876 205 876 205 894 341 c 1,3,-1
 811 341 l 2,4,5
 793 342 793 342 780.5 354 c 128,-1,6
 768 366 768 366 768 384 c 128,-1,7
 768 402 768 402 780.5 414 c 128,-1,8
 793 426 793 426 811 427 c 2,9,-1
 939 427 l 2,10,11
 957 426 957 426 969 414 c 128,-1,12
 981 402 981 402 981 384 c 0,13,14
 976 185 976 185 843.5 52.5 c 128,-1,15
 711 -80 711 -80 512 -85 c 1,16,17
 313 -80 313 -80 180.5 52.5 c 128,-1,18
 48 185 48 185 43 384 c 0,19,20
 43 402 43 402 55 414 c 128,-1,21
 67 426 67 426 85 427 c 2,22,-1
 213 427 l 2,23,24
 231 426 231 426 243.5 414 c 128,-1,25
 256 402 256 402 256 384 c 128,-1,26
 256 366 256 366 243.5 354 c 128,-1,27
 231 342 231 342 213 341 c 2,28,-1
 130 341 l 1,29,30
 148 205 148 205 240.5 112.5 c 128,-1,31
 333 20 333 20 469 2 c 1,32,-1
 469 555 l 2,33,34
 470 573 470 573 482 585 c 128,-1,35
 494 597 494 597 512 597 c 128,-1,36
 530 597 530 597 542 585 c 128,-1,37
 554 573 554 573 555 555 c 2,38,-1
 555 2 l 1,0,1
512 512 m 0,39,40
 466 512 466 512 427 534.5 c 128,-1,41
 388 557 388 557 364.5 597.5 c 128,-1,42
 341 638 341 638 341 683 c 128,-1,43
 341 728 341 728 364.5 768 c 128,-1,44
 388 808 388 808 427 830.5 c 128,-1,45
 466 853 466 853 512 853 c 0,46,47
 585 851 585 851 633 803 c 128,-1,48
 681 755 681 755 683 683 c 0,49,50
 681 610 681 610 633 562 c 128,-1,51
 585 514 585 514 512 512 c 0,39,40
512 597 m 0,52,53
 548 598 548 598 572 622 c 128,-1,54
 596 646 596 646 596 682.5 c 128,-1,55
 596 719 596 719 572 743 c 128,-1,56
 548 767 548 767 512 767 c 128,-1,57
 476 767 476 767 452 743 c 128,-1,58
 428 719 428 719 428 682.5 c 128,-1,59
 428 646 428 646 452 622 c 128,-1,60
 476 598 476 598 512 597 c 0,52,53
EndSplineSet
EndChar

StartChar: aperture
Encoding: 59431 59431 16
Width: 1024
GlyphClass: 2
Flags: W
LayerCount: 2
Fore
SplineSet
457 -82 m 1,0,1
 330 -66 330 -66 231 8 c 128,-1,2
 132 82 132 82 81 199 c 0,3,4
 43 288 43 288 43 384 c 0,5,6
 43 462 43 462 66.5 531.5 c 128,-1,7
 90 601 90 601 132 660 c 0,8,9
 134 663 134 663 137 666 c 0,10,11
 213 766 213 766 325 814.5 c 128,-1,12
 437 863 437 863 562 851 c 0,13,14
 690 836 690 836 790.5 761.5 c 128,-1,15
 891 687 891 687 943 569 c 0,16,17
 981 483 981 483 981 384 c 0,18,19
 981 309 981 309 958.5 239 c 128,-1,20
 936 169 936 169 892 108 c 0,21,22
 890 105 890 105 887 102 c 0,23,24
 811 2 811 2 699 -46.5 c 128,-1,25
 587 -95 587 -95 462 -83 c 1,26,-1
 457 -82 l 1,0,1
442 6 m 1,27,-1
 537 171 l 1,28,-1
 193 171 l 1,29,30
 236 106 236 106 300.5 63.5 c 128,-1,31
 365 21 365 21 442 6 c 1,27,-1
537 1 m 1,32,33
 615 6 615 6 684 40.5 c 128,-1,34
 753 75 753 75 804 135 c 1,35,-1
 709 299 l 1,36,-1
 537 1 l 1,32,33
660 384 m 1,37,-1
 586 512 l 1,38,-1
 438 512 l 1,39,-1
 364 384 l 1,40,-1
 438 256 l 1,41,-1
 586 256 l 1,42,-1
 660 384 l 1,37,-1
747 404 m 1,43,-1
 856 214 l 1,44,45
 895 292 895 292 896 384 c 0,46,47
 896 452 896 452 874 512 c 1,48,-1
 684 512 l 1,49,-1
 747 404 l 1,43,-1
150 256 m 1,50,-1
 340 256 l 1,51,-1
 168 554 l 1,52,53
 128 473 128 473 128 384 c 0,54,55
 128 316 128 316 150 256 c 1,50,-1
220 633 m 1,56,-1
 315 469 l 1,57,-1
 487 767 l 1,58,59
 409 762 409 762 340 727.5 c 128,-1,60
 271 693 271 693 220 633 c 1,56,-1
582 762 m 1,61,-1
 487 597 l 1,62,-1
 831 597 l 1,63,64
 788 662 788 662 723.5 704.5 c 128,-1,65
 659 747 659 747 582 762 c 1,61,-1
EndSplineSet
EndChar

StartChar: arrow-left
Encoding: 59432 59432 17
Width: 1024
GlyphClass: 2
Flags: W
LayerCount: 2
Fore
SplineSet
853 427 m 2,0,-1
 171 427 l 2,1,2
 153 426 153 426 140.5 414 c 128,-1,3
 128 402 128 402 128 384 c 128,-1,4
 128 366 128 366 140.5 354 c 128,-1,5
 153 342 153 342 171 341 c 2,6,-1
 853 341 l 2,7,8
 871 342 871 342 883.5 354 c 128,-1,9
 896 366 896 366 896 384 c 128,-1,10
 896 402 896 402 883.5 414 c 128,-1,11
 871 426 871 426 853 427 c 2,0,-1
457 610 m 2,12,13
 465 618 465 618 468 629 c 128,-1,14
 471 640 471 640 468 651.5 c 128,-1,15
 465 663 465 663 457 671 c 128,-1,16
 449 679 449 679 438 682 c 128,-1,17
 427 685 427 685 416 682 c 128,-1,18
 405 679 405 679 397 670 c 2,19,-1
 141 414 l 2,20,21
 128 401 128 401 128 384 c 128,-1,22
 128 367 128 367 141 354 c 2,23,-1
 397 98 l 2,24,25
 405 89 405 89 416 86 c 128,-1,26
 427 83 427 83 438 86 c 128,-1,27
 449 89 449 89 457 97 c 128,-1,28
 465 105 465 105 468 116.5 c 128,-1,29
 471 128 471 128 468 139 c 128,-1,30
 465 150 465 150 457 158 c 2,31,-1
 231 384 l 1,32,-1
 457 610 l 2,12,13
EndSplineSet
EndChar

StartChar: arrow-right
Encoding: 59433 59433 18
Width: 1024
GlyphClass: 2
Flags: W
LayerCount: 2
Fore
SplineSet
171 341 m 2,0,-1
 853 341 l 2,1,2
 871 342 871 342 883.5 354 c 128,-1,3
 896 366 896 366 896 384 c 128,-1,4
 896 402 896 402 883.5 414 c 128,-1,5
 871 426 871 426 853 427 c 2,6,-1
 171 427 l 2,7,8
 153 426 153 426 140.5 414 c 128,-1,9
 128 402 128 402 128 384 c 128,-1,10
 128 366 128 366 140.5 354 c 128,-1,11
 153 342 153 342 171 341 c 2,0,-1
567 158 m 2,12,13
 555 145 555 145 555 128 c 128,-1,14
 555 111 555 111 568 98.5 c 128,-1,15
 581 86 581 86 597.5 86 c 128,-1,16
 614 86 614 86 627 98 c 2,17,-1
 883 354 l 2,18,19
 896 367 896 367 896 384 c 128,-1,20
 896 401 896 401 883 414 c 2,21,-1
 627 670 l 2,22,23
 614 682 614 682 597.5 682 c 128,-1,24
 581 682 581 682 568 669.5 c 128,-1,25
 555 657 555 657 555 640 c 128,-1,26
 555 623 555 623 567 610 c 2,27,-1
 793 384 l 1,28,-1
 567 158 l 2,12,13
EndSplineSet
EndChar

StartChar: arrow-down
Encoding: 59434 59434 19
Width: 1024
GlyphClass: 2
Flags: W
LayerCount: 2
Fore
SplineSet
469 725 m 2,0,-1
 469 43 l 2,1,2
 470 25 470 25 482 12.5 c 128,-1,3
 494 0 494 0 512 0 c 128,-1,4
 530 0 530 0 542 12.5 c 128,-1,5
 554 25 554 25 555 43 c 2,6,-1
 555 725 l 2,7,8
 554 743 554 743 542 755.5 c 128,-1,9
 530 768 530 768 512 768 c 128,-1,10
 494 768 494 768 482 755.5 c 128,-1,11
 470 743 470 743 469 725 c 2,0,-1
286 329 m 2,12,13
 278 337 278 337 267 340 c 128,-1,14
 256 343 256 343 244.5 340 c 128,-1,15
 233 337 233 337 225 329 c 128,-1,16
 217 321 217 321 214 310 c 128,-1,17
 211 299 211 299 214 288 c 128,-1,18
 217 277 217 277 226 269 c 2,19,-1
 482 13 l 2,20,21
 495 0 495 0 512 0 c 128,-1,22
 529 0 529 0 542 13 c 2,23,-1
 798 269 l 2,24,25
 810 282 810 282 810 298.5 c 128,-1,26
 810 315 810 315 797.5 328 c 128,-1,27
 785 341 785 341 768 341 c 128,-1,28
 751 341 751 341 738 329 c 2,29,-1
 512 103 l 1,30,-1
 286 329 l 2,12,13
EndSplineSet
EndChar

StartChar: arrow-up-left
Encoding: 59435 59435 20
Width: 1024
GlyphClass: 2
Flags: W
LayerCount: 2
Fore
SplineSet
798 158 m 2,0,-1
 286 670 l 2,1,2
 273 682 273 682 256 682 c 128,-1,3
 239 682 239 682 226.5 669.5 c 128,-1,4
 214 657 214 657 214 640 c 128,-1,5
 214 623 214 623 226 610 c 2,6,-1
 738 98 l 2,7,8
 751 86 751 86 768 86 c 128,-1,9
 785 86 785 86 797.5 98.5 c 128,-1,10
 810 111 810 111 810 128 c 128,-1,11
 810 145 810 145 798 158 c 2,0,-1
640 597 m 2,12,13
 658 598 658 598 670 610 c 128,-1,14
 682 622 682 622 682 640 c 128,-1,15
 682 658 682 658 670 670 c 128,-1,16
 658 682 658 682 640 683 c 2,17,-1
 256 683 l 2,18,19
 238 682 238 682 226 670 c 128,-1,20
 214 658 214 658 213 640 c 2,21,-1
 213 256 l 2,22,23
 214 238 214 238 226 226 c 128,-1,24
 238 214 238 214 256 214 c 128,-1,25
 274 214 274 214 286 226 c 128,-1,26
 298 238 298 238 299 256 c 2,27,-1
 299 597 l 1,28,-1
 640 597 l 2,12,13
EndSplineSet
EndChar

StartChar: arrow-up-right
Encoding: 59436 59436 21
Width: 1024
GlyphClass: 2
Flags: W
LayerCount: 2
Fore
SplineSet
286 98 m 2,0,-1
 798 610 l 2,1,2
 807 618 807 618 810 629 c 128,-1,3
 813 640 813 640 810 651.5 c 128,-1,4
 807 663 807 663 799 671 c 128,-1,5
 791 679 791 679 779.5 682 c 128,-1,6
 768 685 768 685 757 682 c 128,-1,7
 746 679 746 679 738 670 c 2,8,-1
 226 158 l 2,9,10
 214 145 214 145 214 128 c 128,-1,11
 214 111 214 111 226.5 98.5 c 128,-1,12
 239 86 239 86 256 86 c 128,-1,13
 273 86 273 86 286 98 c 2,0,-1
725 256 m 2,14,15
 726 238 726 238 738 226 c 128,-1,16
 750 214 750 214 768 214 c 128,-1,17
 786 214 786 214 798 226 c 128,-1,18
 810 238 810 238 811 256 c 2,19,-1
 811 640 l 2,20,21
 810 658 810 658 798 670 c 128,-1,22
 786 682 786 682 768 683 c 2,23,-1
 384 683 l 2,24,25
 366 682 366 682 354 670 c 128,-1,26
 342 658 342 658 342 640 c 128,-1,27
 342 622 342 622 354 610 c 128,-1,28
 366 598 366 598 384 597 c 2,29,-1
 725 597 l 1,30,-1
 725 256 l 2,14,15
EndSplineSet
EndChar

StartChar: arrow-up
Encoding: 59437 59437 22
Width: 1024
GlyphClass: 2
Flags: W
LayerCount: 2
Fore
SplineSet
555 43 m 2,0,-1
 555 725 l 2,1,2
 554 743 554 743 542 755.5 c 128,-1,3
 530 768 530 768 512 768 c 128,-1,4
 494 768 494 768 482 755.5 c 128,-1,5
 470 743 470 743 469 725 c 2,6,-1
 469 43 l 2,7,8
 470 25 470 25 482 12.5 c 128,-1,9
 494 0 494 0 512 0 c 128,-1,10
 530 0 530 0 542 12.5 c 128,-1,11
 554 25 554 25 555 43 c 2,0,-1
738 439 m 2,12,13
 751 427 751 427 768 427 c 128,-1,14
 785 427 785 427 797.5 440 c 128,-1,15
 810 453 810 453 810 469.5 c 128,-1,16
 810 486 810 486 798 499 c 2,17,-1
 542 755 l 2,18,19
 529 768 529 768 512 768 c 128,-1,20
 495 768 495 768 482 755 c 2,21,-1
 226 499 l 2,22,23
 214 486 214 486 214 469.5 c 128,-1,24
 214 453 214 453 226.5 440 c 128,-1,25
 239 427 239 427 256 427 c 128,-1,26
 273 427 273 427 286 439 c 2,27,-1
 512 665 l 1,28,-1
 738 439 l 2,12,13
EndSplineSet
EndChar

StartChar: award
Encoding: 59438 59438 23
Width: 1024
GlyphClass: 2
Flags: W
LayerCount: 2
Fore
SplineSet
305 284 m 1,0,1
 217 353 217 353 185.5 455.5 c 128,-1,2
 154 558 154 558 189 664 c 0,3,4
 226 770 226 770 313 832 c 128,-1,5
 400 894 400 894 512 896 c 0,6,7
 624 894 624 894 711 832 c 128,-1,8
 798 770 798 770 835 664 c 0,9,10
 870 558 870 558 838.5 455.5 c 128,-1,11
 807 353 807 353 719 284 c 1,12,-1
 768 -80 l 2,13,14
 769 -92 769 -92 764 -103 c 128,-1,15
 759 -114 759 -114 748.5 -121 c 128,-1,16
 738 -128 738 -128 726 -128 c 128,-1,17
 714 -128 714 -128 703 -122 c 2,18,-1
 512 -7 l 1,19,-1
 321 -122 l 2,20,21
 310 -128 310 -128 298 -128 c 128,-1,22
 286 -128 286 -128 275.5 -121 c 128,-1,23
 265 -114 265 -114 260 -103 c 128,-1,24
 255 -92 255 -92 256 -80 c 2,25,-1
 305 284 l 1,0,1
385 238 m 1,26,-1
 353 -3 l 1,27,-1
 490 79 l 2,28,29
 500 85 500 85 512 85 c 128,-1,30
 524 85 524 85 534 79 c 2,31,-1
 671 -3 l 1,32,-1
 639 238 l 1,33,34
 578 213 578 213 512 213 c 128,-1,35
 446 213 446 213 385 238 c 1,26,-1
512 299 m 0,36,37
 621 301 621 301 693 373.5 c 128,-1,38
 765 446 765 446 768 555 c 1,39,40
 765 663 765 663 693 735.5 c 128,-1,41
 621 808 621 808 512 811 c 1,42,43
 403 808 403 808 331 735.5 c 128,-1,44
 259 663 259 663 256 555 c 1,45,46
 259 446 259 446 331 373.5 c 128,-1,47
 403 301 403 301 512 299 c 0,36,37
EndSplineSet
EndChar

StartChar: bar-chart
Encoding: 59439 59439 24
Width: 1024
GlyphClass: 2
Flags: W
LayerCount: 2
Fore
SplineSet
811 725 m 1,0,-1
 811 43 l 1,1,-1
 896 43 l 1,2,-1
 896 725 l 1,3,-1
 811 725 l 1,0,-1
768 811 m 2,4,-1
 939 811 l 2,5,6
 957 810 957 810 969 798 c 128,-1,7
 981 786 981 786 981 768 c 2,8,-1
 981 0 l 2,9,10
 981 -18 981 -18 969 -30 c 128,-1,11
 957 -42 957 -42 939 -43 c 2,12,-1
 768 -43 l 2,13,14
 750 -42 750 -42 738 -30 c 128,-1,15
 726 -18 726 -18 725 0 c 2,16,-1
 725 768 l 2,17,18
 726 786 726 786 738 798 c 128,-1,19
 750 810 750 810 768 811 c 2,4,-1
469 512 m 1,20,-1
 469 43 l 1,21,-1
 555 43 l 1,22,-1
 555 512 l 1,23,-1
 469 512 l 1,20,-1
427 597 m 2,24,-1
 597 597 l 2,25,26
 615 597 615 597 627.5 585 c 128,-1,27
 640 573 640 573 640 555 c 2,28,-1
 640 0 l 2,29,30
 640 -18 640 -18 627.5 -30 c 128,-1,31
 615 -42 615 -42 597 -43 c 2,32,-1
 427 -43 l 2,33,34
 409 -42 409 -42 396.5 -30 c 128,-1,35
 384 -18 384 -18 384 0 c 2,36,-1
 384 555 l 2,37,38
 384 573 384 573 396.5 585 c 128,-1,39
 409 597 409 597 427 597 c 2,24,-1
128 43 m 1,40,-1
 213 43 l 1,41,-1
 213 299 l 1,42,-1
 128 299 l 1,43,-1
 128 43 l 1,40,-1
85 384 m 2,44,-1
 256 384 l 2,45,46
 274 384 274 384 286 371.5 c 128,-1,47
 298 359 298 359 299 341 c 2,48,-1
 299 0 l 2,49,50
 298 -18 298 -18 286 -30 c 128,-1,51
 274 -42 274 -42 256 -43 c 2,52,-1
 85 -43 l 2,53,54
 67 -42 67 -42 55 -30 c 128,-1,55
 43 -18 43 -18 43 0 c 2,56,-1
 43 341 l 2,57,58
 43 359 43 359 55 371.5 c 128,-1,59
 67 384 67 384 85 384 c 2,44,-1
EndSplineSet
EndChar

StartChar: at-sign
Encoding: 59440 59440 25
Width: 1024
GlyphClass: 2
Flags: W
LayerCount: 2
Fore
SplineSet
725 384 m 2,0,-1
 725 341 l 2,1,2
 726 305 726 305 750 281 c 128,-1,3
 774 257 774 257 810.5 257 c 128,-1,4
 847 257 847 257 871 281 c 128,-1,5
 895 305 895 305 896 341 c 2,6,-1
 896 384 l 2,7,8
 894 521 894 521 813 623 c 128,-1,9
 732 725 732 725 599 758 c 0,10,11
 466 787 466 787 348 731.5 c 128,-1,12
 230 676 230 676 168 554 c 0,13,14
 109 430 109 430 136.5 303 c 128,-1,15
 164 176 164 176 268 87 c 1,16,17
 375 2 375 2 505.5 0 c 128,-1,18
 636 -2 636 -2 745 79 c 0,19,20
 755 86 755 86 766 87.5 c 128,-1,21
 777 89 777 89 787.5 84.5 c 128,-1,22
 798 80 798 80 805 71 c 128,-1,23
 812 62 812 62 813.5 50.5 c 128,-1,24
 815 39 815 39 811 28.5 c 128,-1,25
 807 18 807 18 797 11 c 0,26,27
 663 -88 663 -88 504 -85.5 c 128,-1,28
 345 -83 345 -83 214 21 c 1,29,30
 87 130 87 130 53.5 285.5 c 128,-1,31
 20 441 20 441 91 592 c 1,32,33
 168 740 168 740 311.5 808 c 128,-1,34
 455 876 455 876 619 841 c 1,35,36
 781 800 781 800 880 675.5 c 128,-1,37
 979 551 979 551 981 384 c 2,38,-1
 981 341 l 2,39,40
 981 285 981 285 948.5 241 c 128,-1,41
 916 197 916 197 862 179.5 c 128,-1,42
 808 162 808 162 756.5 179.5 c 128,-1,43
 705 197 705 197 672 242 c 1,44,45
 618 184 618 184 544 173 c 128,-1,46
 470 162 470 162 402 202 c 0,47,48
 335 244 335 244 310.5 314.5 c 128,-1,49
 286 385 286 385 313 460 c 0,50,51
 342 533 342 533 407.5 570 c 128,-1,52
 473 607 473 607 551 594 c 0,53,54
 628 578 628 578 676 520.5 c 128,-1,55
 724 463 724 463 725 384 c 2,0,-1
512 256 m 0,56,57
 566 257 566 257 602.5 293.5 c 128,-1,58
 639 330 639 330 640 384 c 0,59,60
 639 438 639 438 602.5 474.5 c 128,-1,61
 566 511 566 511 512 512 c 0,62,63
 458 511 458 511 421.5 474.5 c 128,-1,64
 385 438 385 438 384 384 c 0,65,66
 385 330 385 330 421.5 293.5 c 128,-1,67
 458 257 458 257 512 256 c 0,56,57
EndSplineSet
EndChar

StartChar: bar-chart-
Encoding: 59441 59441 26
Width: 1024
GlyphClass: 2
Flags: W
LayerCount: 2
Fore
SplineSet
469 725 m 1,0,-1
 469 43 l 1,1,-1
 555 43 l 1,2,-1
 555 725 l 1,3,-1
 469 725 l 1,0,-1
427 811 m 2,4,-1
 597 811 l 2,5,6
 615 810 615 810 627.5 798 c 128,-1,7
 640 786 640 786 640 768 c 2,8,-1
 640 0 l 2,9,10
 640 -18 640 -18 627.5 -30 c 128,-1,11
 615 -42 615 -42 597 -43 c 2,12,-1
 427 -43 l 2,13,14
 409 -42 409 -42 396.5 -30 c 128,-1,15
 384 -18 384 -18 384 0 c 2,16,-1
 384 768 l 2,17,18
 384 786 384 786 396.5 798 c 128,-1,19
 409 810 409 810 427 811 c 2,4,-1
811 512 m 1,20,-1
 811 43 l 1,21,-1
 896 43 l 1,22,-1
 896 512 l 1,23,-1
 811 512 l 1,20,-1
768 597 m 2,24,-1
 939 597 l 2,25,26
 957 597 957 597 969 585 c 128,-1,27
 981 573 981 573 981 555 c 2,28,-1
 981 0 l 2,29,30
 981 -18 981 -18 969 -30 c 128,-1,31
 957 -42 957 -42 939 -43 c 2,32,-1
 768 -43 l 2,33,34
 750 -42 750 -42 738 -30 c 128,-1,35
 726 -18 726 -18 725 0 c 2,36,-1
 725 555 l 2,37,38
 726 573 726 573 738 585 c 128,-1,39
 750 597 750 597 768 597 c 2,24,-1
128 43 m 1,40,-1
 213 43 l 1,41,-1
 213 299 l 1,42,-1
 128 299 l 1,43,-1
 128 43 l 1,40,-1
85 384 m 2,44,-1
 256 384 l 2,45,46
 274 384 274 384 286 371.5 c 128,-1,47
 298 359 298 359 299 341 c 2,48,-1
 299 0 l 2,49,50
 298 -18 298 -18 286 -30 c 128,-1,51
 274 -42 274 -42 256 -43 c 2,52,-1
 85 -43 l 2,53,54
 67 -42 67 -42 55 -30 c 128,-1,55
 43 -18 43 -18 43 0 c 2,56,-1
 43 341 l 2,57,58
 43 359 43 359 55 371.5 c 128,-1,59
 67 384 67 384 85 384 c 2,44,-1
EndSplineSet
EndChar

StartChar: battery-charging
Encoding: 59442 59442 27
Width: 1024
GlyphClass: 2
Flags: W
LayerCount: 2
Fore
SplineSet
213 171 m 2,0,-1
 128 171 l 2,1,2
 110 171 110 171 98 183 c 128,-1,3
 86 195 86 195 85 213 c 2,4,-1
 85 555 l 2,5,6
 86 573 86 573 98 585 c 128,-1,7
 110 597 110 597 128 597 c 2,8,-1
 264 597 l 2,9,10
 282 598 282 598 294 610 c 128,-1,11
 306 622 306 622 306 640 c 128,-1,12
 306 658 306 658 294 670 c 128,-1,13
 282 682 282 682 264 683 c 2,14,-1
 128 683 l 2,15,16
 74 681 74 681 37.5 645 c 128,-1,17
 1 609 1 609 0 555 c 2,18,-1
 0 213 l 2,19,20
 1 159 1 159 37.5 123 c 128,-1,21
 74 87 74 87 128 85 c 2,22,-1
 213 85 l 2,23,24
 231 86 231 86 243.5 98 c 128,-1,25
 256 110 256 110 256 128 c 128,-1,26
 256 146 256 146 243.5 158 c 128,-1,27
 231 170 231 170 213 171 c 2,0,-1
640 597 m 2,28,-1
 725 597 l 2,29,30
 743 597 743 597 755.5 585 c 128,-1,31
 768 573 768 573 768 555 c 2,32,-1
 768 213 l 2,33,34
 768 195 768 195 755.5 183 c 128,-1,35
 743 171 743 171 725 171 c 2,36,-1
 589 171 l 2,37,38
 571 170 571 170 559 158 c 128,-1,39
 547 146 547 146 547 128 c 128,-1,40
 547 110 547 110 559 98 c 128,-1,41
 571 86 571 86 589 85 c 2,42,-1
 725 85 l 2,43,44
 780 87 780 87 816 123 c 128,-1,45
 852 159 852 159 853 213 c 2,46,-1
 853 555 l 2,47,48
 852 609 852 609 816 645 c 128,-1,49
 780 681 780 681 725 683 c 2,50,-1
 640 683 l 2,51,52
 622 682 622 682 610 670 c 128,-1,53
 598 658 598 658 598 640 c 128,-1,54
 598 622 598 622 610 610 c 128,-1,55
 622 598 622 598 640 597 c 2,28,-1
1024 341 m 2,56,-1
 1024 427 l 2,57,58
 1024 445 1024 445 1011.5 457 c 128,-1,59
 999 469 999 469 981 469 c 128,-1,60
 963 469 963 469 951 457 c 128,-1,61
 939 445 939 445 939 427 c 2,62,-1
 939 341 l 2,63,64
 939 323 939 323 951 311 c 128,-1,65
 963 299 963 299 981 299 c 128,-1,66
 999 299 999 299 1011.5 311 c 128,-1,67
 1024 323 1024 323 1024 341 c 2,56,-1
349 152 m 2,68,69
 339 136 339 136 342 119.5 c 128,-1,70
 345 103 345 103 360.5 93 c 128,-1,71
 376 83 376 83 392.5 86 c 128,-1,72
 409 89 409 89 419 104 c 2,73,-1
 590 360 l 2,74,75
 597 370 597 370 597.5 382 c 128,-1,76
 598 394 598 394 592.5 404.5 c 128,-1,77
 587 415 587 415 577 421 c 128,-1,78
 567 427 567 427 555 427 c 2,79,-1
 378 427 l 1,80,-1
 505 616 l 2,81,82
 511 626 511 626 512 637 c 128,-1,83
 513 648 513 648 507.5 658.5 c 128,-1,84
 502 669 502 669 493 675.5 c 128,-1,85
 484 682 484 682 472.5 682.5 c 128,-1,86
 461 683 461 683 450.5 678 c 128,-1,87
 440 673 440 673 434 664 c 2,88,-1
 263 408 l 2,89,90
 257 398 257 398 256 386 c 128,-1,91
 255 374 255 374 261 363.5 c 128,-1,92
 267 353 267 353 277 347 c 128,-1,93
 287 341 287 341 299 341 c 2,94,-1
 475 341 l 1,95,-1
 349 152 l 2,68,69
EndSplineSet
EndChar

StartChar: bell-off
Encoding: 59443 59443 28
Width: 1024
GlyphClass: 2
Flags: W
LayerCount: 2
Fore
SplineSet
387 735 m 0,0,1
 447 768 447 768 514 767.5 c 128,-1,2
 581 767 581 767 641 732 c 128,-1,3
 701 697 701 697 734.5 639 c 128,-1,4
 768 581 768 581 768 512 c 2,5,-1
 768 341 l 2,6,7
 769 323 769 323 781 311 c 128,-1,8
 793 299 793 299 811 299 c 128,-1,9
 829 299 829 299 841 311 c 128,-1,10
 853 323 853 323 853 341 c 2,11,-1
 853 512 l 2,12,13
 853 604 853 604 808.5 681.5 c 128,-1,14
 764 759 764 759 684 805.5 c 128,-1,15
 604 852 604 852 514.5 853 c 128,-1,16
 425 854 425 854 345 809 c 0,17,18
 334 803 334 803 328 793.5 c 128,-1,19
 322 784 322 784 321.5 772 c 128,-1,20
 321 760 321 760 326.5 750 c 128,-1,21
 332 740 332 740 342.5 734 c 128,-1,22
 353 728 353 728 364.5 728 c 128,-1,23
 376 728 376 728 387 735 c 0,0,1
256 298 m 2,24,-1
 256 512 l 2,25,26
 257 574 257 574 285 629 c 0,27,28
 293 646 293 646 287.5 662 c 128,-1,29
 282 678 282 678 266 686.5 c 128,-1,30
 250 695 250 695 234 690 c 128,-1,31
 218 685 218 685 209 669 c 0,32,33
 171 595 171 595 171 512 c 2,34,-1
 171 298 l 2,35,36
 170 262 170 262 146 238 c 128,-1,37
 122 214 122 214 86 213 c 0,38,39
 43 208 43 208 43 170.5 c 128,-1,40
 43 133 43 133 86 128 c 1,41,-1
 725 128 l 2,42,43
 744 128 744 128 756 140 c 128,-1,44
 768 152 768 152 768 170.5 c 128,-1,45
 768 189 768 189 756 201 c 128,-1,46
 744 213 744 213 725 213 c 2,47,-1
 234 213 l 1,48,49
 256 251 256 251 256 298 c 2,24,-1
549 21 m 0,50,51
 543 11 543 11 533.5 5.5 c 128,-1,52
 524 0 524 0 512.5 0 c 128,-1,53
 501 0 501 0 491 5.5 c 128,-1,54
 481 11 481 11 475 21 c 0,55,56
 466 37 466 37 449.5 41.5 c 128,-1,57
 433 46 433 46 417.5 36.5 c 128,-1,58
 402 27 402 27 397.5 10.5 c 128,-1,59
 393 -6 393 -6 402 -21 c 0,60,61
 419 -51 419 -51 448.5 -68 c 128,-1,62
 478 -85 478 -85 512.5 -85 c 128,-1,63
 547 -85 547 -85 576 -68 c 128,-1,64
 605 -51 605 -51 623 -21 c 0,65,66
 632 -6 632 -6 627.5 10.5 c 128,-1,67
 623 27 623 27 607.5 36.5 c 128,-1,68
 592 46 592 46 575.5 41.5 c 128,-1,69
 559 37 559 37 549 21 c 0,50,51
13 823 m 2,70,-1
 951 -116 l 2,71,72
 964 -128 964 -128 981 -127.5 c 128,-1,73
 998 -127 998 -127 1010.5 -114.5 c 128,-1,74
 1023 -102 1023 -102 1023.5 -85 c 128,-1,75
 1024 -68 1024 -68 1012 -55 c 2,76,-1
 73 883 l 2,77,78
 65 891 65 891 54 894 c 128,-1,79
 43 897 43 897 32 894.5 c 128,-1,80
 21 892 21 892 12.5 883.5 c 128,-1,81
 4 875 4 875 1.5 864 c 128,-1,82
 -1 853 -1 853 2 842 c 128,-1,83
 5 831 5 831 13 823 c 2,70,-1
EndSplineSet
EndChar

StartChar: battery
Encoding: 59444 59444 29
Width: 1024
GlyphClass: 2
Flags: W
LayerCount: 2
Fore
SplineSet
85 554 m 2,0,-1
 85 214 l 2,1,2
 86 195 86 195 98 183 c 128,-1,3
 110 171 110 171 128 171 c 2,4,-1
 726 171 l 2,5,6
 744 171 744 171 756 183 c 128,-1,7
 768 195 768 195 768 214 c 2,8,-1
 768 554 l 2,9,10
 768 573 768 573 756 585 c 128,-1,11
 744 597 744 597 726 597 c 2,12,-1
 128 597 l 2,13,14
 110 597 110 597 98 585 c 128,-1,15
 86 573 86 573 85 554 c 2,0,-1
0 554 m 2,16,17
 0 580 0 580 9.5 603.5 c 128,-1,18
 19 627 19 627 37 645 c 128,-1,19
 55 663 55 663 78.5 673 c 128,-1,20
 102 683 102 683 128 683 c 2,21,-1
 726 683 l 2,22,23
 780 681 780 681 816 645 c 128,-1,24
 852 609 852 609 853 554 c 2,25,-1
 853 214 l 2,26,27
 853 188 853 188 843.5 164.5 c 128,-1,28
 834 141 834 141 816 123 c 128,-1,29
 798 105 798 105 774.5 95 c 128,-1,30
 751 85 751 85 726 85 c 2,31,-1
 128 85 l 2,32,33
 73 87 73 87 37 123 c 128,-1,34
 1 159 1 159 0 214 c 2,35,-1
 0 554 l 2,16,17
1024 341 m 2,36,-1
 1024 427 l 2,37,38
 1024 445 1024 445 1011.5 457 c 128,-1,39
 999 469 999 469 981 469 c 128,-1,40
 963 469 963 469 951 457 c 128,-1,41
 939 445 939 445 939 427 c 2,42,-1
 939 341 l 2,43,44
 939 323 939 323 951 311 c 128,-1,45
 963 299 963 299 981 299 c 128,-1,46
 999 299 999 299 1011.5 311 c 128,-1,47
 1024 323 1024 323 1024 341 c 2,36,-1
EndSplineSet
EndChar

StartChar: bluetooth
Encoding: 59445 59445 30
Width: 1024
GlyphClass: 2
Flags: W
LayerCount: 2
Fore
SplineSet
555 18 m 1,0,-1
 686 149 l 1,1,-1
 555 281 l 1,2,-1
 555 18 l 1,0,-1
686 619 m 1,3,-1
 555 750 l 1,4,-1
 555 487 l 1,5,-1
 686 619 l 1,3,-1
247 588 m 2,6,7
 235 602 235 602 235 618.5 c 128,-1,8
 235 635 235 635 248 648 c 128,-1,9
 261 661 261 661 277.5 661 c 128,-1,10
 294 661 294 661 308 649 c 2,11,-1
 777 180 l 2,12,13
 789 166 789 166 789 149 c 128,-1,14
 789 132 789 132 777 119 c 2,15,-1
 542 -115 l 2,16,17
 520 -135 520 -135 495.5 -125 c 128,-1,18
 471 -115 471 -115 469 -85 c 2,19,-1
 469 853 l 2,20,21
 471 883 471 883 495.5 893 c 128,-1,22
 520 903 520 903 542 883 c 2,23,-1
 777 649 l 2,24,25
 789 636 789 636 789 619 c 128,-1,26
 789 602 789 602 777 588 c 2,27,-1
 308 119 l 2,28,29
 299 111 299 111 288 108 c 128,-1,30
 277 105 277 105 266 108 c 128,-1,31
 255 111 255 111 247 119 c 128,-1,32
 239 127 239 127 236 138 c 128,-1,33
 233 149 233 149 236 160 c 128,-1,34
 239 171 239 171 247 180 c 2,35,-1
 555 487 l 1,36,-1
 555 281 l 1,37,-1
 247 588 l 2,6,7
EndSplineSet
EndChar

StartChar: bell
Encoding: 59446 59446 31
Width: 1024
GlyphClass: 2
Flags: W
LayerCount: 2
Fore
SplineSet
768 299 m 2,0,-1
 768 512 l 2,1,2
 765 621 765 621 693 693 c 128,-1,3
 621 765 621 765 512 768 c 1,4,5
 403 765 403 765 331 693 c 128,-1,6
 259 621 259 621 256 512 c 2,7,-1
 256 299 l 2,8,9
 255 251 255 251 233 213 c 1,10,-1
 791 213 l 1,11,12
 768 253 768 253 768 299 c 2,0,-1
939 128 m 1,13,-1
 85 128 l 1,14,15
 43 133 43 133 43 170.5 c 128,-1,16
 43 208 43 208 85 213 c 0,17,18
 120 214 120 214 145 239 c 128,-1,19
 170 264 170 264 171 299 c 2,20,-1
 171 512 l 2,21,22
 174 657 174 657 270.5 753.5 c 128,-1,23
 367 850 367 850 512 853 c 1,24,25
 657 850 657 850 753.5 753.5 c 128,-1,26
 850 657 850 657 853 512 c 2,27,-1
 853 299 l 2,28,29
 854 264 854 264 879 239 c 128,-1,30
 904 214 904 214 939 213 c 0,31,32
 981 208 981 208 981 170.5 c 128,-1,33
 981 133 981 133 939 128 c 1,13,-1
549 21 m 0,34,35
 543 11 543 11 533.5 5.5 c 128,-1,36
 524 0 524 0 512 0 c 128,-1,37
 500 0 500 0 490.5 5.5 c 128,-1,38
 481 11 481 11 475 21 c 0,39,40
 466 37 466 37 449.5 41.5 c 128,-1,41
 433 46 433 46 417 36.5 c 128,-1,42
 401 27 401 27 397 10.5 c 128,-1,43
 393 -6 393 -6 401 -21 c 0,44,45
 419 -51 419 -51 448 -68 c 128,-1,46
 477 -85 477 -85 512 -85 c 128,-1,47
 547 -85 547 -85 576 -68 c 128,-1,48
 605 -51 605 -51 623 -21 c 0,49,50
 631 -6 631 -6 627 10.5 c 128,-1,51
 623 27 623 27 607 36.5 c 128,-1,52
 591 46 591 46 574.5 41.5 c 128,-1,53
 558 37 558 37 549 21 c 0,34,35
EndSplineSet
EndChar

StartChar: book
Encoding: 59447 59447 32
Width: 1024
GlyphClass: 2
Flags: W
LayerCount: 2
Fore
SplineSet
853 853 m 2,0,1
 871 853 871 853 883.5 841 c 128,-1,2
 896 829 896 829 896 811 c 2,3,-1
 896 -43 l 2,4,5
 896 -61 896 -61 883.5 -73 c 128,-1,6
 871 -85 871 -85 853 -85 c 2,7,-1
 277 -85 l 2,8,9
 214 -84 214 -84 172 -41.5 c 128,-1,10
 130 1 130 1 128 64 c 2,11,-1
 128 704 l 2,12,13
 130 767 130 767 172 809.5 c 128,-1,14
 214 852 214 852 277 853 c 2,15,-1
 853 853 l 2,0,1
811 213 m 1,16,-1
 811 768 l 1,17,-1
 277 768 l 2,18,19
 250 767 250 767 232 749 c 128,-1,20
 214 731 214 731 213 704 c 2,21,-1
 213 199 l 1,22,23
 244 213 244 213 277 213 c 2,24,-1
 811 213 l 1,16,-1
811 128 m 1,25,-1
 277 128 l 2,26,27
 250 127 250 127 232 109 c 128,-1,28
 214 91 214 91 214 64 c 128,-1,29
 214 37 214 37 232 19 c 128,-1,30
 250 1 250 1 277 0 c 2,31,-1
 811 0 l 1,32,-1
 811 128 l 1,25,-1
EndSplineSet
EndChar

StartChar: briefcase
Encoding: 59448 59448 33
Width: 1024
GlyphClass: 2
Flags: W
LayerCount: 2
Fore
SplineSet
299 640 m 1,0,-1
 299 683 l 2,1,2
 300 737 300 737 336 773 c 128,-1,3
 372 809 372 809 427 811 c 2,4,-1
 597 811 l 2,5,6
 652 809 652 809 688 773 c 128,-1,7
 724 737 724 737 725 683 c 2,8,-1
 725 640 l 1,9,-1
 854 640 l 2,10,11
 879 640 879 640 902.5 630 c 128,-1,12
 926 620 926 620 944 602 c 128,-1,13
 962 584 962 584 971.5 560.5 c 128,-1,14
 981 537 981 537 981 512 c 2,15,-1
 981 86 l 2,16,17
 980 31 980 31 944 -5 c 128,-1,18
 908 -41 908 -41 854 -43 c 2,19,-1
 170 -43 l 2,20,21
 145 -43 145 -43 121.5 -33 c 128,-1,22
 98 -23 98 -23 80 -5 c 128,-1,23
 62 13 62 13 52.5 36.5 c 128,-1,24
 43 60 43 60 43 86 c 2,25,-1
 43 512 l 2,26,27
 44 566 44 566 80 602 c 128,-1,28
 116 638 116 638 170 640 c 2,29,-1
 299 640 l 1,0,-1
299 555 m 1,30,-1
 170 555 l 2,31,32
 152 554 152 554 140 542 c 128,-1,33
 128 530 128 530 128 512 c 2,34,-1
 128 86 l 2,35,36
 128 68 128 68 140.5 55.5 c 128,-1,37
 153 43 153 43 170 43 c 2,38,-1
 299 43 l 1,39,-1
 299 555 l 1,30,-1
384 555 m 1,40,-1
 384 43 l 1,41,-1
 640 43 l 1,42,-1
 640 555 l 1,43,-1
 384 555 l 1,40,-1
725 555 m 1,44,-1
 725 43 l 1,45,-1
 854 43 l 2,46,47
 872 43 872 43 884 55 c 128,-1,48
 896 67 896 67 896 86 c 2,49,-1
 896 512 l 2,50,51
 896 529 896 529 883.5 541.5 c 128,-1,52
 871 554 871 554 854 555 c 2,53,-1
 725 555 l 1,44,-1
384 640 m 1,54,-1
 640 640 l 1,55,-1
 640 683 l 2,56,57
 640 701 640 701 627.5 713 c 128,-1,58
 615 725 615 725 597 725 c 2,59,-1
 427 725 l 2,60,61
 409 725 409 725 396.5 713 c 128,-1,62
 384 701 384 701 384 683 c 2,63,-1
 384 640 l 1,54,-1
EndSplineSet
EndChar

StartChar: camera-off
Encoding: 59449 59449 34
Width: 1024
GlyphClass: 2
Flags: W
LayerCount: 2
Fore
SplineSet
683 273 m 1,0,-1
 1012 -55 l 2,1,2
 1024 -68 1024 -68 1023.5 -85 c 128,-1,3
 1023 -102 1023 -102 1010.5 -114.5 c 128,-1,4
 998 -127 998 -127 981 -127.5 c 128,-1,5
 964 -128 964 -128 951 -116 c 2,6,-1
 878 -43 l 1,7,-1
 128 -43 l 2,8,9
 74 -41 74 -41 38 -5 c 128,-1,10
 2 31 2 31 1 85 c 2,11,-1
 1 554 l 2,12,13
 1 580 1 580 10.5 603.5 c 128,-1,14
 20 627 20 627 38 645 c 128,-1,15
 56 663 56 663 79.5 672.5 c 128,-1,16
 103 682 103 682 128 682 c 2,17,-1
 153 682 l 1,18,-1
 13 823 l 2,19,20
 5 831 5 831 2 842 c 128,-1,21
 -1 853 -1 853 1.5 864 c 128,-1,22
 4 875 4 875 12.5 883.5 c 128,-1,23
 21 892 21 892 32 894.5 c 128,-1,24
 43 897 43 897 54 894 c 128,-1,25
 65 891 65 891 73 883 c 2,26,-1
 683 273 l 1,0,-1
654 182 m 1,27,28
 588 125 588 125 506 127 c 128,-1,29
 424 129 424 129 361 190 c 0,30,31
 301 253 301 253 298.5 335 c 128,-1,32
 296 417 296 417 353 483 c 1,33,-1
 239 597 l 1,34,-1
 128 597 l 2,35,36
 111 597 111 597 98.5 584.5 c 128,-1,37
 86 572 86 572 86 554 c 2,38,-1
 86 85 l 2,39,40
 86 67 86 67 98 55 c 128,-1,41
 110 43 110 43 128 43 c 2,42,-1
 793 43 l 1,43,-1
 654 182 l 1,27,28
594 242 m 1,44,-1
 413 422 l 1,45,46
 382 383 382 383 384 335 c 128,-1,47
 386 287 386 287 421 250 c 0,48,49
 458 215 458 215 506 212.5 c 128,-1,50
 554 210 554 210 594 242 c 1,44,-1
690 616 m 2,51,52
 703 598 703 598 725 597 c 2,53,-1
 896 597 l 2,54,55
 914 597 914 597 926 584.5 c 128,-1,56
 938 572 938 572 939 554 c 2,57,-1
 939 156 l 2,58,59
 939 138 939 138 951 126 c 128,-1,60
 963 114 963 114 981 114 c 128,-1,61
 999 114 999 114 1011.5 126 c 128,-1,62
 1024 138 1024 138 1024 156 c 2,63,-1
 1024 554 l 2,64,65
 1024 580 1024 580 1014.5 603.5 c 128,-1,66
 1005 627 1005 627 986.5 645 c 128,-1,67
 968 663 968 663 945 672.5 c 128,-1,68
 922 682 922 682 896 682 c 2,69,-1
 748 682 l 1,70,-1
 676 791 l 2,71,72
 663 810 663 810 640 810 c 2,73,-1
 384 810 l 2,74,75
 366 810 366 810 354 798 c 128,-1,76
 342 786 342 786 342 767.5 c 128,-1,77
 342 749 342 749 354 737 c 128,-1,78
 366 725 366 725 384 725 c 2,79,-1
 617 725 l 1,80,-1
 690 616 l 2,51,52
EndSplineSet
EndChar

StartChar: calendar
Encoding: 59450 59450 35
Width: 1024
GlyphClass: 2
Flags: W
LayerCount: 2
Fore
SplineSet
384 768 m 1,0,-1
 640 768 l 1,1,-1
 640 811 l 2,2,3
 640 829 640 829 652.5 841 c 128,-1,4
 665 853 665 853 683 853 c 128,-1,5
 701 853 701 853 713 841 c 128,-1,6
 725 829 725 829 725 811 c 2,7,-1
 725 768 l 1,8,-1
 811 768 l 2,9,10
 865 767 865 767 901 731 c 128,-1,11
 937 695 937 695 939 640 c 2,12,-1
 939 42 l 2,13,14
 937 -12 937 -12 901 -48 c 128,-1,15
 865 -84 865 -84 811 -85 c 2,16,-1
 213 -85 l 2,17,18
 159 -84 159 -84 123 -48 c 128,-1,19
 87 -12 87 -12 85 42 c 2,20,-1
 85 640 l 2,21,22
 87 695 87 695 123 731 c 128,-1,23
 159 767 159 767 213 768 c 2,24,-1
 299 768 l 1,25,-1
 299 811 l 2,26,27
 299 822 299 822 304.5 832 c 128,-1,28
 310 842 310 842 320 847.5 c 128,-1,29
 330 853 330 853 341.5 853 c 128,-1,30
 353 853 353 853 363 847.5 c 128,-1,31
 373 842 373 842 378.5 832 c 128,-1,32
 384 822 384 822 384 811 c 2,33,-1
 384 768 l 1,0,-1
853 427 m 1,34,-1
 171 427 l 1,35,-1
 171 42 l 2,36,37
 171 24 171 24 183 12 c 128,-1,38
 195 0 195 0 213 0 c 2,39,-1
 811 0 l 2,40,41
 829 0 829 0 841 12 c 128,-1,42
 853 24 853 24 853 42 c 2,43,-1
 853 427 l 1,34,-1
384 683 m 1,44,-1
 384 640 l 2,45,46
 384 628 384 628 378.5 618.5 c 128,-1,47
 373 609 373 609 363 603 c 128,-1,48
 353 597 353 597 341.5 597 c 128,-1,49
 330 597 330 597 320 603 c 128,-1,50
 310 609 310 609 304.5 618.5 c 128,-1,51
 299 628 299 628 299 640 c 2,52,-1
 299 683 l 1,53,-1
 213 683 l 2,54,55
 196 682 196 682 183.5 670 c 128,-1,56
 171 658 171 658 171 640 c 2,57,-1
 171 512 l 1,58,-1
 853 512 l 1,59,-1
 853 640 l 2,60,61
 853 658 853 658 840.5 670 c 128,-1,62
 828 682 828 682 811 683 c 2,63,-1
 725 683 l 1,64,-1
 725 640 l 2,65,66
 725 622 725 622 713 610 c 128,-1,67
 701 598 701 598 683 598 c 128,-1,68
 665 598 665 598 652.5 610 c 128,-1,69
 640 622 640 622 640 640 c 2,70,-1
 640 683 l 1,71,-1
 384 683 l 1,44,-1
EndSplineSet
EndChar

StartChar: bookmark
Encoding: 59451 59451 36
Width: 1024
GlyphClass: 2
Flags: W
LayerCount: 2
Fore
SplineSet
768 83 m 1,0,-1
 768 683 l 2,1,2
 768 701 768 701 755.5 713 c 128,-1,3
 743 725 743 725 725 725 c 2,4,-1
 299 725 l 2,5,6
 281 725 281 725 268.5 713 c 128,-1,7
 256 701 256 701 256 683 c 2,8,-1
 256 83 l 1,9,-1
 487 248 l 2,10,11
 499 256 499 256 512 256 c 128,-1,12
 525 256 525 256 537 248 c 2,13,-1
 768 83 l 1,0,-1
238 -35 m 2,14,15
 228 -42 228 -42 216.5 -42.5 c 128,-1,16
 205 -43 205 -43 194 -37.5 c 128,-1,17
 183 -32 183 -32 177 -22 c 128,-1,18
 171 -12 171 -12 171 0 c 2,19,-1
 171 683 l 2,20,21
 172 737 172 737 208 773 c 128,-1,22
 244 809 244 809 299 811 c 2,23,-1
 725 811 l 2,24,25
 780 809 780 809 816 773 c 128,-1,26
 852 737 852 737 853 683 c 2,27,-1
 853 0 l 2,28,29
 853 -12 853 -12 847 -22 c 128,-1,30
 841 -32 841 -32 830 -37.5 c 128,-1,31
 819 -43 819 -43 807.5 -42.5 c 128,-1,32
 796 -42 796 -42 786 -35 c 2,33,-1
 512 161 l 1,34,-1
 238 -35 l 2,14,15
EndSplineSet
EndChar

StartChar: box
Encoding: 59452 59452 37
Width: 1024
GlyphClass: 2
Flags: W
LayerCount: 2
Fore
SplineSet
569 872 m 2,0,-1
 910 702 l 2,1,2
 943 685 943 685 962 654.5 c 128,-1,3
 981 624 981 624 981 587 c 2,4,-1
 981 180 l 2,5,6
 981 143 981 143 962 113 c 128,-1,7
 943 83 943 83 910 66 c 2,8,-1
 569 -105 l 2,9,10
 542 -118 542 -118 512 -118 c 128,-1,11
 482 -118 482 -118 455 -105 c 2,12,-1
 113 66 l 2,13,14
 80 83 80 83 61.5 113.5 c 128,-1,15
 43 144 43 144 43 181 c 2,16,-1
 43 587 l 2,17,18
 43 624 43 624 62 654.5 c 128,-1,19
 81 685 81 685 114 702 c 2,20,-1
 455 872 l 2,21,22
 482 886 482 886 512 886 c 128,-1,23
 542 886 542 886 569 872 c 2,0,-1
512 474 m 1,24,-1
 843 640 l 1,25,-1
 531 796 l 2,26,27
 512 805 512 805 493 796 c 2,28,-1
 181 640 l 1,29,-1
 512 474 l 1,24,-1
896 571 m 1,30,-1
 555 400 l 1,31,-1
 555 -17 l 1,32,-1
 872 142 l 2,33,34
 883 148 883 148 889.5 158 c 128,-1,35
 896 168 896 168 896 180 c 2,36,-1
 896 571 l 1,30,-1
469 -17 m 1,37,-1
 469 400 l 1,38,-1
 128 571 l 1,39,-1
 128 181 l 2,40,41
 128 168 128 168 134 158 c 128,-1,42
 140 148 140 148 151 142 c 2,43,-1
 469 -17 l 1,37,-1
EndSplineSet
EndChar

StartChar: camera
Encoding: 59453 59453 38
Width: 1024
GlyphClass: 2
Flags: W
LayerCount: 2
Fore
SplineSet
334 616 m 2,0,1
 321 598 321 598 299 597 c 2,2,-1
 128 597 l 2,3,4
 110 597 110 597 98 585 c 128,-1,5
 86 573 86 573 85 555 c 2,6,-1
 85 85 l 2,7,8
 86 67 86 67 98 55 c 128,-1,9
 110 43 110 43 128 43 c 2,10,-1
 896 43 l 2,11,12
 914 43 914 43 926 55 c 128,-1,13
 938 67 938 67 939 85 c 2,14,-1
 939 555 l 2,15,16
 938 573 938 573 926 585 c 128,-1,17
 914 597 914 597 896 597 c 2,18,-1
 725 597 l 2,19,20
 703 598 703 598 690 616 c 2,21,-1
 617 725 l 1,22,-1
 407 725 l 1,23,-1
 334 616 l 2,0,1
896 683 m 2,24,25
 950 681 950 681 986.5 645 c 128,-1,26
 1023 609 1023 609 1024 555 c 2,27,-1
 1024 85 l 2,28,29
 1023 31 1023 31 986.5 -5 c 128,-1,30
 950 -41 950 -41 896 -43 c 2,31,-1
 128 -43 l 2,32,33
 74 -41 74 -41 37.5 -5 c 128,-1,34
 1 31 1 31 0 85 c 2,35,-1
 0 555 l 2,36,37
 1 609 1 609 37.5 645 c 128,-1,38
 74 681 74 681 128 683 c 2,39,-1
 276 683 l 1,40,-1
 349 792 l 2,41,42
 361 810 361 810 384 811 c 2,43,-1
 640 811 l 2,44,45
 663 810 663 810 675 792 c 2,46,-1
 748 683 l 1,47,-1
 896 683 l 2,24,25
512 128 m 0,48,49
 421 130 421 130 361 190.5 c 128,-1,50
 301 251 301 251 299 341 c 0,51,52
 301 432 301 432 361 492 c 128,-1,53
 421 552 421 552 512 555 c 1,54,55
 603 552 603 552 663 492 c 128,-1,56
 723 432 723 432 725 341 c 0,57,58
 723 251 723 251 663 190.5 c 128,-1,59
 603 130 603 130 512 128 c 0,48,49
512 213 m 0,60,61
 566 215 566 215 602.5 251 c 128,-1,62
 639 287 639 287 640 341 c 0,63,64
 639 396 639 396 602.5 432 c 128,-1,65
 566 468 566 468 512 469 c 0,66,67
 458 468 458 468 421.5 432 c 128,-1,68
 385 396 385 396 384 341 c 0,69,70
 385 287 385 287 421.5 251 c 128,-1,71
 458 215 458 215 512 213 c 0,60,61
EndSplineSet
EndChar

StartChar: check-circle
Encoding: 59454 59454 39
Width: 1024
GlyphClass: 2
Flags: W
LayerCount: 2
Fore
SplineSet
896 424 m 2,0,-1
 896 384 l 2,1,2
 894 254 894 254 819.5 154.5 c 128,-1,3
 745 55 745 55 621 16 c 1,4,5
 496 -19 496 -19 379 24 c 128,-1,6
 262 67 262 67 190 175 c 0,7,8
 121 285 121 285 129 409.5 c 128,-1,9
 137 534 137 534 220 634 c 1,10,11
 306 731 306 731 427.5 758.5 c 128,-1,12
 549 786 549 786 668 735 c 0,13,14
 679 730 679 730 690.5 731 c 128,-1,15
 702 732 702 732 711.5 739 c 128,-1,16
 721 746 721 746 725.5 756.5 c 128,-1,17
 730 767 730 767 729 778.5 c 128,-1,18
 728 790 728 790 721 799 c 128,-1,19
 714 808 714 808 703 813 c 0,20,21
 557 876 557 876 408.5 842.5 c 128,-1,22
 260 809 260 809 155 689 c 1,23,24
 54 567 54 567 44 415 c 128,-1,25
 34 263 34 263 118 129 c 1,26,27
 207 -3 207 -3 349.5 -56 c 128,-1,28
 492 -109 492 -109 645 -66 c 1,29,30
 797 -19 797 -19 888 103 c 128,-1,31
 979 225 979 225 981 384 c 2,32,-1
 981 424 l 2,33,34
 981 442 981 442 969 454 c 128,-1,35
 957 466 957 466 939 466 c 128,-1,36
 921 466 921 466 908.5 454 c 128,-1,37
 896 442 896 442 896 424 c 2,0,-1
414 457 m 2,38,39
 401 469 401 469 384 469 c 128,-1,40
 367 469 367 469 354.5 456 c 128,-1,41
 342 443 342 443 342 426.5 c 128,-1,42
 342 410 342 410 354 397 c 2,43,-1
 482 269 l 2,44,45
 495 256 495 256 512 256 c 128,-1,46
 529 256 529 256 542 269 c 2,47,-1
 1011 738 l 2,48,49
 1020 746 1020 746 1023 757 c 128,-1,50
 1026 768 1026 768 1023 779.5 c 128,-1,51
 1020 791 1020 791 1012 799 c 128,-1,52
 1004 807 1004 807 992.5 810 c 128,-1,53
 981 813 981 813 970 810 c 128,-1,54
 959 807 959 807 951 798 c 2,55,-1
 512 359 l 1,56,-1
 414 457 l 2,38,39
EndSplineSet
EndChar

StartChar: check
Encoding: 59455 59455 40
Width: 1024
GlyphClass: 2
Flags: W
LayerCount: 2
Fore
SplineSet
201 371 m 2,0,1
 193 380 193 380 182 383 c 128,-1,2
 171 386 171 386 159.5 383 c 128,-1,3
 148 380 148 380 140 372 c 128,-1,4
 132 364 132 364 129 352.5 c 128,-1,5
 126 341 126 341 129 330 c 128,-1,6
 132 319 132 319 141 311 c 2,7,-1
 354 98 l 2,8,9
 367 85 367 85 384 85 c 128,-1,10
 401 85 401 85 414 98 c 2,11,-1
 883 567 l 2,12,13
 892 575 892 575 895 586 c 128,-1,14
 898 597 898 597 895 608.5 c 128,-1,15
 892 620 892 620 884 628 c 128,-1,16
 876 636 876 636 864.5 639 c 128,-1,17
 853 642 853 642 842 639 c 128,-1,18
 831 636 831 636 823 627 c 2,19,-1
 384 188 l 1,20,-1
 201 371 l 2,0,1
EndSplineSet
EndChar

StartChar: check-square
Encoding: 59456 59456 41
Width: 1024
GlyphClass: 2
Flags: W
LayerCount: 2
Fore
SplineSet
371 457 m 2,0,1
 358 469 358 469 341.5 469 c 128,-1,2
 325 469 325 469 312 456 c 128,-1,3
 299 443 299 443 299 426.5 c 128,-1,4
 299 410 299 410 311 397 c 2,5,-1
 439 269 l 2,6,7
 452 256 452 256 469 256 c 128,-1,8
 486 256 486 256 499 269 c 2,9,-1
 969 738 l 2,10,11
 977 746 977 746 980 757 c 128,-1,12
 983 768 983 768 980 779.5 c 128,-1,13
 977 791 977 791 969 799 c 128,-1,14
 961 807 961 807 950 810 c 128,-1,15
 939 813 939 813 928 810 c 128,-1,16
 917 807 917 807 909 798 c 2,17,-1
 469 359 l 1,18,-1
 371 457 l 2,0,1
811 384 m 2,19,-1
 811 85 l 2,20,21
 810 67 810 67 798 55 c 128,-1,22
 786 43 786 43 768 43 c 2,23,-1
 171 43 l 2,24,25
 153 43 153 43 140.5 55 c 128,-1,26
 128 67 128 67 128 85 c 2,27,-1
 128 683 l 2,28,29
 128 701 128 701 140.5 713 c 128,-1,30
 153 725 153 725 171 725 c 2,31,-1
 640 725 l 2,32,33
 658 726 658 726 670 738 c 128,-1,34
 682 750 682 750 682 768 c 128,-1,35
 682 786 682 786 670 798 c 128,-1,36
 658 810 658 810 640 811 c 2,37,-1
 171 811 l 2,38,39
 116 809 116 809 80 773 c 128,-1,40
 44 737 44 737 43 683 c 2,41,-1
 43 85 l 2,42,43
 44 31 44 31 80 -5 c 128,-1,44
 116 -41 116 -41 171 -43 c 2,45,-1
 768 -43 l 2,46,47
 822 -41 822 -41 858.5 -5 c 128,-1,48
 895 31 895 31 896 85 c 2,49,-1
 896 384 l 2,50,51
 896 402 896 402 883.5 414 c 128,-1,52
 871 426 871 426 853 426 c 128,-1,53
 835 426 835 426 823 414 c 128,-1,54
 811 402 811 402 811 384 c 2,19,-1
EndSplineSet
EndChar

StartChar: cast
Encoding: 59457 59457 42
Width: 1024
GlyphClass: 2
Flags: W
LayerCount: 2
Fore
SplineSet
77 167 m 0,0,1
 128 156 128 156 163.5 120.5 c 128,-1,2
 199 85 199 85 210 34 c 0,3,4
 214 16 214 16 228 7 c 128,-1,5
 242 -2 242 -2 260 1.5 c 128,-1,6
 278 5 278 5 287.5 19 c 128,-1,7
 297 33 297 33 294 51 c 0,8,9
 277 128 277 128 223.5 181 c 128,-1,10
 170 234 170 234 94 251 c 0,11,12
 76 254 76 254 62 244.5 c 128,-1,13
 48 235 48 235 44 217.5 c 128,-1,14
 40 200 40 200 49.5 185.5 c 128,-1,15
 59 171 59 171 77 167 c 0,0,1
81 339 m 0,16,17
 202 324 202 324 284.5 241.5 c 128,-1,18
 367 159 367 159 382 38 c 0,19,20
 384 26 384 26 390.5 17 c 128,-1,21
 397 8 397 8 407.5 3.5 c 128,-1,22
 418 -1 418 -1 429 0.5 c 128,-1,23
 440 2 440 2 449.5 8.5 c 128,-1,24
 459 15 459 15 463.5 25.5 c 128,-1,25
 468 36 468 36 467 47 c 0,26,27
 448 199 448 199 345 302 c 128,-1,28
 242 405 242 405 90 424 c 0,29,30
 79 425 79 425 68.5 420.5 c 128,-1,31
 58 416 58 416 51 407 c 128,-1,32
 44 398 44 398 43 386.5 c 128,-1,33
 42 375 42 375 46.5 364.5 c 128,-1,34
 51 354 51 354 60 347.5 c 128,-1,35
 69 341 69 341 81 339 c 0,16,17
128 555 m 2,36,-1
 128 640 l 2,37,38
 128 658 128 658 140.5 670 c 128,-1,39
 153 682 153 682 171 683 c 2,40,-1
 853 683 l 2,41,42
 871 682 871 682 883.5 670 c 128,-1,43
 896 658 896 658 896 640 c 2,44,-1
 896 128 l 2,45,46
 896 110 896 110 883.5 98 c 128,-1,47
 871 86 871 86 853 85 c 2,48,-1
 597 85 l 2,49,50
 579 85 579 85 567 73 c 128,-1,51
 555 61 555 61 555 43 c 128,-1,52
 555 25 555 25 567 12.5 c 128,-1,53
 579 0 579 0 597 0 c 2,54,-1
 853 0 l 2,55,56
 908 1 908 1 944 37.5 c 128,-1,57
 980 74 980 74 981 128 c 2,58,-1
 981 640 l 2,59,60
 980 694 980 694 944 730.5 c 128,-1,61
 908 767 908 767 853 768 c 2,62,-1
 171 768 l 2,63,64
 116 767 116 767 80 730.5 c 128,-1,65
 44 694 44 694 43 640 c 2,66,-1
 43 555 l 2,67,68
 43 543 43 543 48.5 533.5 c 128,-1,69
 54 524 54 524 64 518 c 128,-1,70
 74 512 74 512 85.5 512 c 128,-1,71
 97 512 97 512 107 518 c 128,-1,72
 117 524 117 524 122.5 533.5 c 128,-1,73
 128 543 128 543 128 555 c 2,36,-1
85 43 m 1024,74,-1
43 43 m 0,75,76
 43 31 43 31 48.5 21.5 c 128,-1,77
 54 12 54 12 64 6 c 128,-1,78
 74 0 74 0 85.5 0 c 128,-1,79
 97 0 97 0 107 6 c 128,-1,80
 117 12 117 12 122.5 21.5 c 128,-1,81
 128 31 128 31 128 42.5 c 128,-1,82
 128 54 128 54 122.5 64 c 128,-1,83
 117 74 117 74 107 79.5 c 128,-1,84
 97 85 97 85 85.5 85 c 128,-1,85
 74 85 74 85 64 79.5 c 128,-1,86
 54 74 54 74 48.5 64 c 128,-1,87
 43 54 43 54 43 43 c 0,75,76
EndSplineSet
EndChar

StartChar: chevron-down
Encoding: 59458 59458 43
Width: 1024
GlyphClass: 2
Flags: W
LayerCount: 2
Fore
SplineSet
286 542 m 2,0,1
 273 554 273 554 256 554 c 128,-1,2
 239 554 239 554 226.5 541.5 c 128,-1,3
 214 529 214 529 214 512 c 128,-1,4
 214 495 214 495 226 482 c 2,5,-1
 482 226 l 2,6,7
 495 213 495 213 512 213 c 128,-1,8
 529 213 529 213 542 226 c 2,9,-1
 798 482 l 2,10,11
 807 490 807 490 810 501 c 128,-1,12
 813 512 813 512 810 523.5 c 128,-1,13
 807 535 807 535 799 543 c 128,-1,14
 791 551 791 551 779.5 554 c 128,-1,15
 768 557 768 557 757 554 c 128,-1,16
 746 551 746 551 738 542 c 2,17,-1
 512 316 l 1,18,-1
 286 542 l 2,0,1
EndSplineSet
EndChar

StartChar: chevron-left
Encoding: 59459 59459 44
Width: 1024
GlyphClass: 2
Flags: W
LayerCount: 2
Fore
SplineSet
670 610 m 2,0,1
 679 618 679 618 682 629 c 128,-1,2
 685 640 685 640 682 651.5 c 128,-1,3
 679 663 679 663 671 671 c 128,-1,4
 663 679 663 679 651.5 682 c 128,-1,5
 640 685 640 685 629 682 c 128,-1,6
 618 679 618 679 610 670 c 2,7,-1
 354 414 l 2,8,9
 341 401 341 401 341 384 c 128,-1,10
 341 367 341 367 354 354 c 2,11,-1
 610 98 l 2,12,13
 623 86 623 86 640 86 c 128,-1,14
 657 86 657 86 669.5 98.5 c 128,-1,15
 682 111 682 111 682 128 c 128,-1,16
 682 145 682 145 670 158 c 2,17,-1
 444 384 l 1,18,-1
 670 610 l 2,0,1
EndSplineSet
EndChar

StartChar: chevron-right
Encoding: 59460 59460 45
Width: 1024
GlyphClass: 2
Flags: W
LayerCount: 2
Fore
SplineSet
354 158 m 2,0,1
 342 145 342 145 342 128 c 128,-1,2
 342 111 342 111 354.5 98.5 c 128,-1,3
 367 86 367 86 384 86 c 128,-1,4
 401 86 401 86 414 98 c 2,5,-1
 670 354 l 2,6,7
 683 367 683 367 683 384 c 128,-1,8
 683 401 683 401 670 414 c 2,9,-1
 414 670 l 2,10,11
 401 682 401 682 384 682 c 128,-1,12
 367 682 367 682 354.5 669.5 c 128,-1,13
 342 657 342 657 342 640 c 128,-1,14
 342 623 342 623 354 610 c 2,15,-1
 580 384 l 1,16,-1
 354 158 l 2,0,1
EndSplineSet
EndChar

StartChar: chevron-up
Encoding: 59461 59461 46
Width: 1024
GlyphClass: 2
Flags: W
LayerCount: 2
Fore
SplineSet
738 226 m 2,0,1
 751 214 751 214 768 214 c 128,-1,2
 785 214 785 214 797.5 226.5 c 128,-1,3
 810 239 810 239 810 256 c 128,-1,4
 810 273 810 273 798 286 c 2,5,-1
 542 542 l 2,6,7
 529 555 529 555 512 555 c 128,-1,8
 495 555 495 555 482 542 c 2,9,-1
 226 286 l 2,10,11
 214 273 214 273 214 256 c 128,-1,12
 214 239 214 239 226.5 226.5 c 128,-1,13
 239 214 239 214 256 214 c 128,-1,14
 273 214 273 214 286 226 c 2,15,-1
 512 452 l 1,16,-1
 738 226 l 2,0,1
EndSplineSet
EndChar

StartChar: chevrons-down
Encoding: 59462 59462 47
Width: 1024
GlyphClass: 2
Flags: W
LayerCount: 2
Fore
SplineSet
329 371 m 2,0,1
 321 380 321 380 310 383 c 128,-1,2
 299 386 299 386 287.5 383 c 128,-1,3
 276 380 276 380 268 372 c 128,-1,4
 260 364 260 364 257 352.5 c 128,-1,5
 254 341 254 341 257 330 c 128,-1,6
 260 319 260 319 269 311 c 2,7,-1
 482 98 l 2,8,9
 495 85 495 85 512 85 c 128,-1,10
 529 85 529 85 542 98 c 2,11,-1
 755 311 l 2,12,13
 768 324 768 324 767.5 341 c 128,-1,14
 767 358 767 358 754.5 370.5 c 128,-1,15
 742 383 742 383 725 383.5 c 128,-1,16
 708 384 708 384 695 371 c 2,17,-1
 512 188 l 1,18,-1
 329 371 l 2,0,1
329 670 m 2,19,20
 316 682 316 682 299 682 c 128,-1,21
 282 682 282 682 269.5 669.5 c 128,-1,22
 257 657 257 657 256.5 640 c 128,-1,23
 256 623 256 623 269 610 c 2,24,-1
 482 397 l 2,25,26
 495 384 495 384 512 384 c 128,-1,27
 529 384 529 384 542 397 c 2,28,-1
 755 610 l 2,29,30
 764 618 764 618 767 629 c 128,-1,31
 770 640 770 640 767 651.5 c 128,-1,32
 764 663 764 663 756 671 c 128,-1,33
 748 679 748 679 736.5 682 c 128,-1,34
 725 685 725 685 714 682 c 128,-1,35
 703 679 703 679 695 670 c 2,36,-1
 512 487 l 1,37,-1
 329 670 l 2,19,20
EndSplineSet
EndChar

StartChar: chevrons-right
Encoding: 59463 59463 48
Width: 1024
GlyphClass: 2
Flags: W
LayerCount: 2
Fore
SplineSet
525 201 m 2,0,1
 512 188 512 188 512.5 171 c 128,-1,2
 513 154 513 154 525.5 141.5 c 128,-1,3
 538 129 538 129 555 128.5 c 128,-1,4
 572 128 572 128 585 141 c 2,5,-1
 798 354 l 2,6,7
 811 367 811 367 811 384 c 128,-1,8
 811 401 811 401 798 414 c 2,9,-1
 585 627 l 2,10,11
 572 640 572 640 555 639.5 c 128,-1,12
 538 639 538 639 525.5 626.5 c 128,-1,13
 513 614 513 614 512.5 597 c 128,-1,14
 512 580 512 580 525 567 c 2,15,-1
 708 384 l 1,16,-1
 525 201 l 2,0,1
226 201 m 2,17,18
 214 188 214 188 214 171 c 128,-1,19
 214 154 214 154 226.5 141.5 c 128,-1,20
 239 129 239 129 256 128.5 c 128,-1,21
 273 128 273 128 286 141 c 2,22,-1
 499 354 l 2,23,24
 512 367 512 367 512 384 c 128,-1,25
 512 401 512 401 499 414 c 2,26,-1
 286 627 l 2,27,28
 273 640 273 640 256 639.5 c 128,-1,29
 239 639 239 639 226.5 626.5 c 128,-1,30
 214 614 214 614 214 597 c 128,-1,31
 214 580 214 580 226 567 c 2,32,-1
 409 384 l 1,33,-1
 226 201 l 2,17,18
EndSplineSet
EndChar

StartChar: chevrons-up
Encoding: 59464 59464 49
Width: 1024
GlyphClass: 2
Flags: W
LayerCount: 2
Fore
SplineSet
695 397 m 2,0,1
 708 384 708 384 725 384.5 c 128,-1,2
 742 385 742 385 754.5 397.5 c 128,-1,3
 767 410 767 410 767.5 427 c 128,-1,4
 768 444 768 444 755 457 c 2,5,-1
 542 670 l 2,6,7
 529 683 529 683 512 683 c 128,-1,8
 495 683 495 683 482 670 c 2,9,-1
 269 457 l 2,10,11
 256 444 256 444 256.5 427 c 128,-1,12
 257 410 257 410 269.5 397.5 c 128,-1,13
 282 385 282 385 299 384.5 c 128,-1,14
 316 384 316 384 329 397 c 2,15,-1
 512 580 l 1,16,-1
 695 397 l 2,0,1
512 281 m 1,17,-1
 695 98 l 2,18,19
 708 86 708 86 725 86 c 128,-1,20
 742 86 742 86 754.5 98.5 c 128,-1,21
 767 111 767 111 767.5 128 c 128,-1,22
 768 145 768 145 755 158 c 2,23,-1
 542 371 l 2,24,25
 529 384 529 384 512 384 c 128,-1,26
 495 384 495 384 482 371 c 2,27,-1
 269 158 l 2,28,29
 256 145 256 145 256.5 128 c 128,-1,30
 257 111 257 111 269.5 98.5 c 128,-1,31
 282 86 282 86 299 86 c 128,-1,32
 316 86 316 86 329 98 c 2,33,-1
 512 281 l 1,17,-1
EndSplineSet
EndChar

StartChar: chevrons-left
Encoding: 59465 59465 50
Width: 1024
GlyphClass: 2
Flags: W
LayerCount: 2
Fore
SplineSet
499 567 m 2,0,1
 508 575 508 575 511 586 c 128,-1,2
 514 597 514 597 511 608.5 c 128,-1,3
 508 620 508 620 500 628 c 128,-1,4
 492 636 492 636 480.5 639 c 128,-1,5
 469 642 469 642 458 639 c 128,-1,6
 447 636 447 636 439 627 c 2,7,-1
 226 414 l 2,8,9
 213 401 213 401 213 384 c 128,-1,10
 213 367 213 367 226 354 c 2,11,-1
 439 141 l 2,12,13
 452 128 452 128 469 128.5 c 128,-1,14
 486 129 486 129 498.5 141.5 c 128,-1,15
 511 154 511 154 511.5 171 c 128,-1,16
 512 188 512 188 499 201 c 2,17,-1
 316 384 l 1,18,-1
 499 567 l 2,0,1
798 567 m 2,19,20
 807 575 807 575 810 586 c 128,-1,21
 813 597 813 597 810 608.5 c 128,-1,22
 807 620 807 620 799 628 c 128,-1,23
 791 636 791 636 779.5 639 c 128,-1,24
 768 642 768 642 757 639 c 128,-1,25
 746 636 746 636 738 627 c 2,26,-1
 525 414 l 2,27,28
 512 401 512 401 512 384 c 128,-1,29
 512 367 512 367 525 354 c 2,30,-1
 738 141 l 2,31,32
 751 128 751 128 768 128.5 c 128,-1,33
 785 129 785 129 797.5 141.5 c 128,-1,34
 810 154 810 154 810 171 c 128,-1,35
 810 188 810 188 798 201 c 2,36,-1
 615 384 l 1,37,-1
 798 567 l 2,19,20
EndSplineSet
EndChar

StartChar: circle
Encoding: 59466 59466 51
Width: 1024
GlyphClass: 2
Flags: W
LayerCount: 2
Fore
SplineSet
512 -85 m 1,0,1
 313 -80 313 -80 180.5 52.5 c 128,-1,2
 48 185 48 185 43 384 c 1,3,4
 48 583 48 583 180.5 715.5 c 128,-1,5
 313 848 313 848 512 853 c 1,6,7
 711 848 711 848 843.5 715.5 c 128,-1,8
 976 583 976 583 981 384 c 1,9,10
 976 185 976 185 843.5 52.5 c 128,-1,11
 711 -80 711 -80 512 -85 c 1,0,1
512 0 m 1,12,13
 675 4 675 4 783.5 112.5 c 128,-1,14
 892 221 892 221 896 384 c 1,15,16
 892 547 892 547 783.5 655.5 c 128,-1,17
 675 764 675 764 512 768 c 1,18,19
 349 764 349 764 240.5 655.5 c 128,-1,20
 132 547 132 547 128 384 c 1,21,22
 132 221 132 221 240.5 112.5 c 128,-1,23
 349 4 349 4 512 0 c 1,12,13
EndSplineSet
EndChar

StartChar: clipboard
Encoding: 59467 59467 52
Width: 1024
GlyphClass: 2
Flags: W
LayerCount: 2
Fore
SplineSet
299 768 m 1,0,1
 300 804 300 804 324 828 c 128,-1,2
 348 852 348 852 384 853 c 2,3,-1
 640 853 l 2,4,5
 676 852 676 852 700 828 c 128,-1,6
 724 804 724 804 725 768 c 1,7,-1
 768 768 l 2,8,9
 822 767 822 767 858.5 730.5 c 128,-1,10
 895 694 895 694 896 640 c 2,11,-1
 896 43 l 2,12,13
 895 -12 895 -12 858.5 -48 c 128,-1,14
 822 -84 822 -84 768 -85 c 2,15,-1
 256 -85 l 2,16,17
 202 -84 202 -84 165.5 -48 c 128,-1,18
 129 -12 129 -12 128 43 c 2,19,-1
 128 640 l 2,20,21
 129 694 129 694 165.5 730.5 c 128,-1,22
 202 767 202 767 256 768 c 2,23,-1
 299 768 l 1,0,1
299 683 m 1,24,-1
 256 683 l 2,25,26
 238 682 238 682 226 670 c 128,-1,27
 214 658 214 658 213 640 c 2,28,-1
 213 43 l 2,29,30
 214 25 214 25 226 12.5 c 128,-1,31
 238 0 238 0 256 0 c 2,32,-1
 768 0 l 2,33,34
 786 0 786 0 798 12.5 c 128,-1,35
 810 25 810 25 811 43 c 2,36,-1
 811 640 l 2,37,38
 810 658 810 658 798 670 c 128,-1,39
 786 682 786 682 768 683 c 2,40,-1
 725 683 l 1,41,42
 724 647 724 647 700 622.5 c 128,-1,43
 676 598 676 598 640 597 c 2,44,-1
 384 597 l 2,45,46
 349 598 349 598 324 623 c 128,-1,47
 299 648 299 648 299 683 c 1,24,-1
384 768 m 1,48,49
 384 768 384 768 384 768 c 1,50,-1
 384 683 l 1,51,52
 384 683 384 683 384 683 c 1,53,-1
 640 683 l 1,54,-1
 640 768 l 1,55,-1
 384 768 l 1,48,49
EndSplineSet
EndChar

StartChar: chrome
Encoding: 59468 59468 53
Width: 1024
GlyphClass: 2
Flags: W
LayerCount: 2
Fore
SplineSet
462 -83 m 0,0,1
 459 -83 459 -83 457 -82 c 0,2,3
 278 -58 278 -58 162.5 71 c 128,-1,4
 47 200 47 200 43 384 c 0,5,6
 43 462 43 462 66.5 531.5 c 128,-1,7
 90 601 90 601 132 660 c 0,8,9
 134 663 134 663 137 666 c 0,10,11
 204 755 204 755 302 804 c 128,-1,12
 400 853 400 853 512 853 c 0,13,14
 655 852 655 852 770 776 c 128,-1,15
 885 700 885 700 943 569 c 0,16,17
 981 483 981 483 981 384 c 0,18,19
 976 185 976 185 843.5 52.5 c 128,-1,20
 711 -80 711 -80 512 -85 c 0,21,22
 487 -85 487 -85 462 -83 c 0,0,1
442 6 m 1,23,-1
 537 172 l 1,24,25
 470 165 470 165 412.5 195.5 c 128,-1,26
 355 226 355 226 323 285 c 2,27,-1
 168 554 l 1,28,29
 128 474 128 474 128 384 c 0,30,31
 131 240 131 240 218 137 c 128,-1,32
 305 34 305 34 442 6 c 1,23,-1
537 1 m 1,33,34
 628 7 628 7 705 52 c 128,-1,35
 782 97 782 97 832 173 c 128,-1,36
 882 249 882 249 893 337.5 c 128,-1,37
 904 426 904 426 874 512 c 1,38,-1
 683 512 l 1,39,40
 703 485 703 485 714 452.5 c 128,-1,41
 725 420 725 420 725 384 c 0,42,43
 725 320 725 320 692 270 c 2,44,-1
 537 1 l 1,33,34
619 314 m 2,45,-1
 623 320 l 1,46,-1
 624 323 l 1,47,48
 646 364 646 364 637.5 407.5 c 128,-1,49
 629 451 629 451 593.5 481 c 128,-1,50
 558 511 558 511 513.5 511.5 c 128,-1,51
 469 512 469 512 432.5 483 c 128,-1,52
 396 454 396 454 386.5 411 c 128,-1,53
 377 368 377 368 398 326 c 2,54,-1
 403 317 l 2,55,56
 421 289 421 289 449 273 c 128,-1,57
 477 257 477 257 510.5 256.5 c 128,-1,58
 544 256 544 256 572.5 271 c 128,-1,59
 601 286 601 286 619 314 c 2,45,-1
220 634 m 1,60,-1
 316 468 l 1,61,62
 342 528 342 528 394.5 562.5 c 128,-1,63
 447 597 447 597 512 597 c 2,64,-1
 831 597 l 1,65,66
 777 678 777 678 693 722.5 c 128,-1,67
 609 767 609 767 512 768 c 0,68,69
 427 768 427 768 351.5 733 c 128,-1,70
 276 698 276 698 220 634 c 1,60,-1
EndSplineSet
EndChar

StartChar: clock
Encoding: 59469 59469 54
Width: 1024
GlyphClass: 2
Flags: W
LayerCount: 2
Fore
SplineSet
512 -85 m 1,0,1
 313 -80 313 -80 180.5 52.5 c 128,-1,2
 48 185 48 185 43 384 c 1,3,4
 48 583 48 583 180.5 715.5 c 128,-1,5
 313 848 313 848 512 853 c 1,6,7
 711 848 711 848 843.5 715.5 c 128,-1,8
 976 583 976 583 981 384 c 1,9,10
 976 185 976 185 843.5 52.5 c 128,-1,11
 711 -80 711 -80 512 -85 c 1,0,1
512 0 m 1,12,13
 675 4 675 4 783.5 112.5 c 128,-1,14
 892 221 892 221 896 384 c 1,15,16
 892 547 892 547 783.5 655.5 c 128,-1,17
 675 764 675 764 512 768 c 1,18,19
 349 764 349 764 240.5 655.5 c 128,-1,20
 132 547 132 547 128 384 c 1,21,22
 132 221 132 221 240.5 112.5 c 128,-1,23
 349 4 349 4 512 0 c 1,12,13
555 640 m 2,24,25
 554 658 554 658 542 670 c 128,-1,26
 530 682 530 682 512 682 c 128,-1,27
 494 682 494 682 482 670 c 128,-1,28
 470 658 470 658 469 640 c 2,29,-1
 469 384 l 2,30,31
 470 366 470 366 482 354 c 2,32,-1
 610 226 l 2,33,34
 623 214 623 214 640 214 c 128,-1,35
 657 214 657 214 669.5 226.5 c 128,-1,36
 682 239 682 239 682 256 c 128,-1,37
 682 273 682 273 670 286 c 2,38,-1
 555 402 l 1,39,-1
 555 640 l 2,24,25
EndSplineSet
EndChar

StartChar: cloud-lightning
Encoding: 59470 59470 55
Width: 1024
GlyphClass: 2
Flags: W
LayerCount: 2
Fore
SplineSet
384 896 m 0,0,1
 250 894 250 894 149 815.5 c 128,-1,2
 48 737 48 737 12 608 c 1,3,4
 -19 478 -19 478 31.5 360.5 c 128,-1,5
 82 243 82 243 198 176 c 0,6,7
 214 168 214 168 230.5 172.5 c 128,-1,8
 247 177 247 177 255.5 193 c 128,-1,9
 264 209 264 209 259.5 225 c 128,-1,10
 255 241 255 241 239 251 c 0,11,12
 149 303 149 303 109.5 394 c 128,-1,13
 70 485 70 485 95 587 c 0,14,15
 123 687 123 687 201.5 748 c 128,-1,16
 280 809 280 809 384 811 c 0,17,18
 488 809 488 809 567 748 c 128,-1,19
 646 687 646 687 673 587 c 0,20,21
 677 572 677 572 688.5 563.5 c 128,-1,22
 700 555 700 555 715 555 c 2,23,-1
 768 555 l 2,24,25
 836 553 836 553 883 510.5 c 128,-1,26
 930 468 930 468 938 401 c 0,27,28
 944 334 944 334 906 283 c 128,-1,29
 868 232 868 232 802 217 c 0,30,31
 785 213 785 213 775.5 198.5 c 128,-1,32
 766 184 766 184 769.5 166.5 c 128,-1,33
 773 149 773 149 787.5 139.5 c 128,-1,34
 802 130 802 130 819 133 c 0,35,36
 918 155 918 155 974.5 232 c 128,-1,37
 1031 309 1031 309 1023 410 c 1,38,39
 1011 510 1011 510 940 574 c 128,-1,40
 869 638 869 638 768 640 c 2,41,-1
 746 640 l 1,42,43
 703 757 703 757 605.5 825.5 c 128,-1,44
 508 894 508 894 384 896 c 0,0,1
434 -62 m 2,45,46
 424 -77 424 -77 427.5 -93.5 c 128,-1,47
 431 -110 431 -110 446 -120.5 c 128,-1,48
 461 -131 461 -131 478 -127.5 c 128,-1,49
 495 -124 495 -124 505 -109 c 2,50,-1
 676 147 l 2,51,52
 682 157 682 157 683 168.5 c 128,-1,53
 684 180 684 180 678 190.5 c 128,-1,54
 672 201 672 201 662 207 c 128,-1,55
 652 213 652 213 640 213 c 2,56,-1
 464 213 l 1,57,-1
 590 403 l 2,58,59
 600 418 600 418 597 435 c 128,-1,60
 594 452 594 452 578.5 462 c 128,-1,61
 563 472 563 472 546.5 468.5 c 128,-1,62
 530 465 530 465 519 450 c 2,63,-1
 349 194 l 2,64,65
 342 184 342 184 341.5 172.5 c 128,-1,66
 341 161 341 161 346.5 150.5 c 128,-1,67
 352 140 352 140 362 134 c 128,-1,68
 372 128 372 128 384 128 c 2,69,-1
 561 128 l 1,70,-1
 434 -62 l 2,45,46
EndSplineSet
EndChar

StartChar: cloud-drizzle
Encoding: 59471 59471 56
Width: 1024
GlyphClass: 2
Flags: W
LayerCount: 2
Fore
SplineSet
299 85 m 2,0,-1
 299 0 l 2,1,2
 299 -18 299 -18 311 -30 c 128,-1,3
 323 -42 323 -42 341.5 -42 c 128,-1,4
 360 -42 360 -42 372 -30 c 128,-1,5
 384 -18 384 -18 384 0 c 2,6,-1
 384 85 l 2,7,8
 384 103 384 103 372 115.5 c 128,-1,9
 360 128 360 128 341.5 128 c 128,-1,10
 323 128 323 128 311 115.5 c 128,-1,11
 299 103 299 103 299 85 c 2,0,-1
299 341 m 2,12,-1
 299 256 l 2,13,14
 299 238 299 238 311 226 c 128,-1,15
 323 214 323 214 341.5 214 c 128,-1,16
 360 214 360 214 372 226 c 128,-1,17
 384 238 384 238 384 256 c 2,18,-1
 384 341 l 2,19,20
 384 359 384 359 372 371.5 c 128,-1,21
 360 384 360 384 341.5 384 c 128,-1,22
 323 384 323 384 311 371.5 c 128,-1,23
 299 359 299 359 299 341 c 2,12,-1
640 85 m 2,24,-1
 640 0 l 2,25,26
 641 -18 641 -18 653 -30 c 128,-1,27
 665 -42 665 -42 683 -42 c 128,-1,28
 701 -42 701 -42 713 -30 c 128,-1,29
 725 -18 725 -18 725 0 c 2,30,-1
 725 85 l 2,31,32
 725 103 725 103 713 115.5 c 128,-1,33
 701 128 701 128 683 128 c 128,-1,34
 665 128 665 128 653 115.5 c 128,-1,35
 641 103 641 103 640 85 c 2,24,-1
640 341 m 2,36,-1
 640 256 l 2,37,38
 641 238 641 238 653 226 c 128,-1,39
 665 214 665 214 683 214 c 128,-1,40
 701 214 701 214 713 226 c 128,-1,41
 725 238 725 238 725 256 c 2,42,-1
 725 341 l 2,43,44
 725 359 725 359 713 371.5 c 128,-1,45
 701 384 701 384 683 384 c 128,-1,46
 665 384 665 384 653 371.5 c 128,-1,47
 641 359 641 359 640 341 c 2,36,-1
469 0 m 2,48,-1
 469 -85 l 2,49,50
 470 -103 470 -103 482 -115.5 c 128,-1,51
 494 -128 494 -128 512 -128 c 128,-1,52
 530 -128 530 -128 542 -115.5 c 128,-1,53
 554 -103 554 -103 555 -85 c 2,54,-1
 555 0 l 2,55,56
 554 18 554 18 542 30 c 128,-1,57
 530 42 530 42 512 42 c 128,-1,58
 494 42 494 42 482 30 c 128,-1,59
 470 18 470 18 469 0 c 2,48,-1
469 256 m 2,60,-1
 469 171 l 2,61,62
 470 153 470 153 482 140.5 c 128,-1,63
 494 128 494 128 512 128 c 128,-1,64
 530 128 530 128 542 140.5 c 128,-1,65
 554 153 554 153 555 171 c 2,66,-1
 555 256 l 2,67,68
 554 274 554 274 542 286 c 128,-1,69
 530 298 530 298 512 298 c 128,-1,70
 494 298 494 298 482 286 c 128,-1,71
 470 274 470 274 469 256 c 2,60,-1
405 895 m 0,72,73
 278 901 278 901 175.5 834.5 c 128,-1,74
 73 768 73 768 25 649 c 1,75,76
 -19 529 -19 529 13.5 411 c 128,-1,77
 46 293 46 293 144 212 c 0,78,79
 159 202 159 202 175.5 204 c 128,-1,80
 192 206 192 206 203 220 c 128,-1,81
 214 234 214 234 212.5 250.5 c 128,-1,82
 211 267 211 267 197 279 c 0,83,84
 121 342 121 342 96 433.5 c 128,-1,85
 71 525 71 525 105 619 c 0,86,87
 142 711 142 711 221.5 762.5 c 128,-1,88
 301 814 301 814 401 810 c 0,89,90
 500 803 500 803 573.5 743 c 128,-1,91
 647 683 647 683 673 587 c 0,92,93
 677 572 677 572 688.5 563.5 c 128,-1,94
 700 555 700 555 714 555 c 2,95,-1
 768 555 l 2,96,97
 830 554 830 554 875.5 516.5 c 128,-1,98
 921 479 921 479 934 418.5 c 128,-1,99
 947 358 947 358 920 305.5 c 128,-1,100
 893 253 893 253 836 228 c 0,101,102
 820 220 820 220 814 204 c 128,-1,103
 808 188 808 188 815 171.5 c 128,-1,104
 822 155 822 155 838 149 c 128,-1,105
 854 143 854 143 871 150 c 0,106,107
 955 188 955 188 995.5 266.5 c 128,-1,108
 1036 345 1036 345 1019 436 c 0,109,110
 998 527 998 527 929.5 582.5 c 128,-1,111
 861 638 861 638 768 640 c 2,112,-1
 746 640 l 1,113,114
 705 751 705 751 614 819 c 128,-1,115
 523 887 523 887 405 895 c 0,72,73
EndSplineSet
EndChar

StartChar: cloud-rain
Encoding: 59472 59472 57
Width: 1024
GlyphClass: 2
Flags: W
LayerCount: 2
Fore
SplineSet
640 341 m 2,0,-1
 640 0 l 2,1,2
 641 -18 641 -18 653 -30 c 128,-1,3
 665 -42 665 -42 683 -42 c 128,-1,4
 701 -42 701 -42 713 -30 c 128,-1,5
 725 -18 725 -18 725 0 c 2,6,-1
 725 341 l 2,7,8
 725 359 725 359 713 371.5 c 128,-1,9
 701 384 701 384 683 384 c 128,-1,10
 665 384 665 384 653 371.5 c 128,-1,11
 641 359 641 359 640 341 c 2,0,-1
299 341 m 2,12,-1
 299 0 l 2,13,14
 299 -18 299 -18 311 -30 c 128,-1,15
 323 -42 323 -42 341.5 -42 c 128,-1,16
 360 -42 360 -42 372 -30 c 128,-1,17
 384 -18 384 -18 384 0 c 2,18,-1
 384 341 l 2,19,20
 384 359 384 359 372 371.5 c 128,-1,21
 360 384 360 384 341.5 384 c 128,-1,22
 323 384 323 384 311 371.5 c 128,-1,23
 299 359 299 359 299 341 c 2,12,-1
469 256 m 2,24,-1
 469 -85 l 2,25,26
 470 -103 470 -103 482 -115.5 c 128,-1,27
 494 -128 494 -128 512 -128 c 128,-1,28
 530 -128 530 -128 542 -115.5 c 128,-1,29
 554 -103 554 -103 555 -85 c 2,30,-1
 555 256 l 2,31,32
 554 274 554 274 542 286 c 128,-1,33
 530 298 530 298 512 298 c 128,-1,34
 494 298 494 298 482 286 c 128,-1,35
 470 274 470 274 469 256 c 2,24,-1
405 895 m 0,36,37
 278 901 278 901 175.5 834.5 c 128,-1,38
 73 768 73 768 25 649 c 1,39,40
 -19 529 -19 529 13.5 411 c 128,-1,41
 46 293 46 293 144 212 c 0,42,43
 159 202 159 202 175.5 204 c 128,-1,44
 192 206 192 206 203 220 c 128,-1,45
 214 234 214 234 212.5 250.5 c 128,-1,46
 211 267 211 267 197 279 c 0,47,48
 121 342 121 342 96 433.5 c 128,-1,49
 71 525 71 525 105 619 c 0,50,51
 142 711 142 711 221.5 762.5 c 128,-1,52
 301 814 301 814 401 810 c 0,53,54
 500 803 500 803 573.5 743 c 128,-1,55
 647 683 647 683 673 587 c 0,56,57
 677 572 677 572 688.5 563.5 c 128,-1,58
 700 555 700 555 714 555 c 2,59,-1
 768 555 l 2,60,61
 830 554 830 554 875.5 516.5 c 128,-1,62
 921 479 921 479 934 418.5 c 128,-1,63
 947 358 947 358 920 305.5 c 128,-1,64
 893 253 893 253 836 228 c 0,65,66
 820 220 820 220 814 204 c 128,-1,67
 808 188 808 188 815 171.5 c 128,-1,68
 822 155 822 155 838 149 c 128,-1,69
 854 143 854 143 871 150 c 0,70,71
 955 188 955 188 995.5 266.5 c 128,-1,72
 1036 345 1036 345 1019 436 c 0,73,74
 998 527 998 527 929.5 582.5 c 128,-1,75
 861 638 861 638 768 640 c 2,76,-1
 746 640 l 1,77,78
 705 751 705 751 614 819 c 128,-1,79
 523 887 523 887 405 895 c 0,36,37
EndSplineSet
EndChar

StartChar: cloud-off
Encoding: 59473 59473 58
Width: 1024
GlyphClass: 2
Flags: W
LayerCount: 2
Fore
SplineSet
421 767 m 0,0,1
 403 769 403 769 389.5 757.5 c 128,-1,2
 376 746 376 746 375 728.5 c 128,-1,3
 374 711 374 711 384.5 698 c 128,-1,4
 395 685 395 685 413 682 c 0,5,6
 509 672 509 672 579.5 612 c 128,-1,7
 650 552 650 552 675 459 c 0,8,9
 679 444 679 444 690 435.5 c 128,-1,10
 701 427 701 427 716 426 c 2,11,-1
 769 426 l 2,12,13
 813 426 813 426 850 406 c 128,-1,14
 887 386 887 386 911 350 c 128,-1,15
 935 314 935 314 938.5 271.5 c 128,-1,16
 942 229 942 229 926 189 c 0,17,18
 919 172 919 172 925.5 156.5 c 128,-1,19
 932 141 932 141 948 134 c 128,-1,20
 964 127 964 127 980.5 133.5 c 128,-1,21
 997 140 997 140 1004 156 c 0,22,23
 1029 216 1029 216 1023 279.5 c 128,-1,24
 1017 343 1017 343 981.5 397 c 128,-1,25
 946 451 946 451 890 481 c 128,-1,26
 834 511 834 511 769 512 c 2,27,-1
 747 512 l 1,28,29
 709 620 709 620 622 688 c 128,-1,30
 535 756 535 756 421 767 c 0,0,1
198 720 m 0,31,32
 81 652 81 652 31 534 c 128,-1,33
 -19 416 -19 416 13 285 c 1,34,35
 50 155 50 155 152 77.5 c 128,-1,36
 254 0 254 0 388 0 c 2,37,-1
 769 0 l 2,38,39
 814 0 814 0 856 15 c 0,40,41
 873 22 873 22 880 37.5 c 128,-1,42
 887 53 887 53 881 69.5 c 128,-1,43
 875 86 875 86 859 93.5 c 128,-1,44
 843 101 843 101 827 96 c 0,45,46
 799 85 799 85 769 85 c 2,47,-1
 388 85 l 2,48,49
 283 85 283 85 203.5 145.5 c 128,-1,50
 124 206 124 206 95 307 c 0,51,52
 70 408 70 408 109 500 c 128,-1,53
 148 592 148 592 239 645 c 0,54,55
 254 654 254 654 258.5 670.5 c 128,-1,56
 263 687 263 687 255 702.5 c 128,-1,57
 247 718 247 718 230 723 c 128,-1,58
 213 728 213 728 198 720 c 0,31,32
13 823 m 2,59,-1
 951 -116 l 2,60,61
 964 -128 964 -128 981 -127.5 c 128,-1,62
 998 -127 998 -127 1010.5 -114.5 c 128,-1,63
 1023 -102 1023 -102 1023.5 -85 c 128,-1,64
 1024 -68 1024 -68 1012 -55 c 2,65,-1
 73 883 l 2,66,67
 65 891 65 891 54 894 c 128,-1,68
 43 897 43 897 32 894.5 c 128,-1,69
 21 892 21 892 12.5 883.5 c 128,-1,70
 4 875 4 875 1.5 864 c 128,-1,71
 -1 853 -1 853 2 842 c 128,-1,72
 5 831 5 831 13 823 c 2,59,-1
EndSplineSet
EndChar

StartChar: codepen
Encoding: 59474 59474 59
Width: 1024
GlyphClass: 2
Flags: W
LayerCount: 2
Fore
SplineSet
535 846 m 2,0,-1
 962 569 l 2,1,2
 981 556 981 556 981 533 c 2,3,-1
 981 235 l 2,4,5
 981 212 981 212 962 199 c 2,6,-1
 535 -78 l 2,7,8
 524 -85 524 -85 512 -85 c 128,-1,9
 500 -85 500 -85 489 -78 c 2,10,-1
 62 199 l 2,11,12
 43 212 43 212 43 235 c 2,13,-1
 43 533 l 2,14,15
 43 556 43 556 62 569 c 2,16,-1
 489 846 l 2,17,18
 500 853 500 853 512 853 c 128,-1,19
 524 853 524 853 535 846 c 2,0,-1
469 732 m 1,20,-1
 162 532 l 1,21,-1
 299 436 l 1,22,-1
 469 556 l 1,23,-1
 469 732 l 1,20,-1
555 732 m 1,24,-1
 555 556 l 1,25,-1
 725 436 l 1,26,-1
 862 532 l 1,27,-1
 555 732 l 1,24,-1
512 287 m 1,28,-1
 651 384 l 1,29,-1
 512 481 l 1,30,-1
 373 384 l 1,31,-1
 512 287 l 1,28,-1
896 317 m 1,32,-1
 896 451 l 1,33,-1
 800 384 l 1,34,-1
 896 317 l 1,32,-1
862 236 m 1,35,-1
 725 332 l 1,36,-1
 555 212 l 1,37,-1
 555 36 l 1,38,-1
 862 236 l 1,35,-1
162 236 m 1,39,-1
 469 36 l 1,40,-1
 469 212 l 1,41,-1
 299 332 l 1,42,-1
 162 236 l 1,39,-1
128 317 m 1,43,-1
 224 384 l 1,44,-1
 128 451 l 1,45,-1
 128 317 l 1,43,-1
EndSplineSet
EndChar

StartChar: cloud-snow
Encoding: 59475 59475 60
Width: 1024
GlyphClass: 2
Flags: W
LayerCount: 2
Fore
SplineSet
406 853 m 0,0,1
 278 858 278 858 175.5 791.5 c 128,-1,2
 73 725 73 725 25 606 c 0,3,4
 -19 487 -19 487 13.5 369 c 128,-1,5
 46 251 46 251 144 169 c 0,6,7
 159 159 159 159 175.5 160.5 c 128,-1,8
 192 162 192 162 203.5 176.5 c 128,-1,9
 215 191 215 191 213 207.5 c 128,-1,10
 211 224 211 224 198 236 c 0,11,12
 121 299 121 299 96 391 c 128,-1,13
 71 483 71 483 105 576 c 0,14,15
 142 668 142 668 222 720 c 128,-1,16
 302 772 302 772 401 768 c 0,17,18
 500 761 500 761 573.5 700.5 c 128,-1,19
 647 640 647 640 673 544 c 0,20,21
 677 530 677 530 688.5 521 c 128,-1,22
 700 512 700 512 714 512 c 2,23,-1
 768 512 l 2,24,25
 830 511 830 511 875.5 474 c 128,-1,26
 921 437 921 437 934 376 c 128,-1,27
 947 315 947 315 920 263 c 128,-1,28
 893 211 893 211 837 185 c 0,29,30
 820 177 820 177 814 161.5 c 128,-1,31
 808 146 808 146 815.5 129.5 c 128,-1,32
 823 113 823 113 838.5 106.5 c 128,-1,33
 854 100 854 100 871 107 c 0,34,35
 955 146 955 146 995.5 224 c 128,-1,36
 1036 302 1036 302 1019 394 c 1,37,38
 998 484 998 484 929.5 540 c 128,-1,39
 861 596 861 596 768 597 c 2,40,-1
 746 597 l 1,41,42
 705 708 705 708 614 776.5 c 128,-1,43
 523 845 523 845 406 853 c 0,0,1
683 256 m 1024,44,-1
640 256 m 256,45,46
 640 244 640 244 645.5 234.5 c 128,-1,47
 651 225 651 225 661 219 c 128,-1,48
 671 213 671 213 682.5 213 c 128,-1,49
 694 213 694 213 704 219 c 128,-1,50
 714 225 714 225 719.5 234.5 c 128,-1,51
 725 244 725 244 725 256 c 128,-1,52
 725 268 725 268 719.5 277.5 c 128,-1,53
 714 287 714 287 704 293 c 128,-1,54
 694 299 694 299 682.5 299 c 128,-1,55
 671 299 671 299 661 293 c 128,-1,56
 651 287 651 287 645.5 277.5 c 128,-1,57
 640 268 640 268 640 256 c 256,45,46
512 171 m 1024,58,-1
469 171 m 0,59,60
 469 159 469 159 475 149.5 c 128,-1,61
 481 140 481 140 491 134 c 128,-1,62
 501 128 501 128 512 128 c 128,-1,63
 523 128 523 128 533 134 c 128,-1,64
 543 140 543 140 549 149.5 c 128,-1,65
 555 159 555 159 555 170.5 c 128,-1,66
 555 182 555 182 549 192 c 128,-1,67
 543 202 543 202 533 207.5 c 128,-1,68
 523 213 523 213 512 213 c 128,-1,69
 501 213 501 213 491 207.5 c 128,-1,70
 481 202 481 202 475 192 c 128,-1,71
 469 182 469 182 469 171 c 0,59,60
341 256 m 1024,72,-1
299 256 m 256,73,74
 299 244 299 244 304.5 234.5 c 128,-1,75
 310 225 310 225 320 219 c 128,-1,76
 330 213 330 213 341.5 213 c 128,-1,77
 353 213 353 213 363 219 c 128,-1,78
 373 225 373 225 378.5 234.5 c 128,-1,79
 384 244 384 244 384 256 c 128,-1,80
 384 268 384 268 378.5 277.5 c 128,-1,81
 373 287 373 287 363 293 c 128,-1,82
 353 299 353 299 341.5 299 c 128,-1,83
 330 299 330 299 320 293 c 128,-1,84
 310 287 310 287 304.5 277.5 c 128,-1,85
 299 268 299 268 299 256 c 256,73,74
341 43 m 1024,86,-1
299 43 m 0,87,88
 299 31 299 31 304.5 21.5 c 128,-1,89
 310 12 310 12 320 6 c 128,-1,90
 330 0 330 0 341.5 0 c 128,-1,91
 353 0 353 0 363 6 c 128,-1,92
 373 12 373 12 378.5 21.5 c 128,-1,93
 384 31 384 31 384 42.5 c 128,-1,94
 384 54 384 54 378.5 64 c 128,-1,95
 373 74 373 74 363 79.5 c 128,-1,96
 353 85 353 85 341.5 85 c 128,-1,97
 330 85 330 85 320 79.5 c 128,-1,98
 310 74 310 74 304.5 64 c 128,-1,99
 299 54 299 54 299 43 c 0,87,88
512 -43 m 1024,100,-1
469 -43 m 0,101,102
 469 -54 469 -54 475 -64 c 128,-1,103
 481 -74 481 -74 491 -79.5 c 128,-1,104
 501 -85 501 -85 512 -85 c 128,-1,105
 523 -85 523 -85 533 -79.5 c 128,-1,106
 543 -74 543 -74 549 -64 c 128,-1,107
 555 -54 555 -54 555 -42.5 c 128,-1,108
 555 -31 555 -31 549 -21.5 c 128,-1,109
 543 -12 543 -12 533 -6 c 128,-1,110
 523 0 523 0 512 0 c 128,-1,111
 501 0 501 0 491 -6 c 128,-1,112
 481 -12 481 -12 475 -21.5 c 128,-1,113
 469 -31 469 -31 469 -43 c 0,101,102
683 43 m 1024,114,-1
640 43 m 0,115,116
 640 31 640 31 645.5 21.5 c 128,-1,117
 651 12 651 12 661 6 c 128,-1,118
 671 0 671 0 682.5 0 c 128,-1,119
 694 0 694 0 704 6 c 128,-1,120
 714 12 714 12 719.5 21.5 c 128,-1,121
 725 31 725 31 725 42.5 c 128,-1,122
 725 54 725 54 719.5 64 c 128,-1,123
 714 74 714 74 704 79.5 c 128,-1,124
 694 85 694 85 682.5 85 c 128,-1,125
 671 85 671 85 661 79.5 c 128,-1,126
 651 74 651 74 645.5 64 c 128,-1,127
 640 54 640 54 640 43 c 0,115,116
683 43 m 1024,128,-1
640 43 m 0,129,130
 640 31 640 31 645.5 21.5 c 128,-1,131
 651 12 651 12 661 6 c 128,-1,132
 671 0 671 0 682.5 0 c 128,-1,133
 694 0 694 0 704 6 c 128,-1,134
 714 12 714 12 719.5 21.5 c 128,-1,135
 725 31 725 31 725 42.5 c 128,-1,136
 725 54 725 54 719.5 64 c 128,-1,137
 714 74 714 74 704 79.5 c 128,-1,138
 694 85 694 85 682.5 85 c 128,-1,139
 671 85 671 85 661 79.5 c 128,-1,140
 651 74 651 74 645.5 64 c 128,-1,141
 640 54 640 54 640 43 c 0,129,130
EndSplineSet
EndChar

StartChar: compass
Encoding: 59476 59476 61
Width: 1024
GlyphClass: 2
Flags: W
LayerCount: 2
Fore
SplineSet
512 -85 m 1,0,1
 313 -80 313 -80 180.5 52.5 c 128,-1,2
 48 185 48 185 43 384 c 1,3,4
 48 583 48 583 180.5 715.5 c 128,-1,5
 313 848 313 848 512 853 c 1,6,7
 711 848 711 848 843.5 715.5 c 128,-1,8
 976 583 976 583 981 384 c 1,9,10
 976 185 976 185 843.5 52.5 c 128,-1,11
 711 -80 711 -80 512 -85 c 1,0,1
512 0 m 1,12,13
 675 4 675 4 783.5 112.5 c 128,-1,14
 892 221 892 221 896 384 c 1,15,16
 892 547 892 547 783.5 655.5 c 128,-1,17
 675 764 675 764 512 768 c 1,18,19
 349 764 349 764 240.5 655.5 c 128,-1,20
 132 547 132 547 128 384 c 1,21,22
 132 221 132 221 240.5 112.5 c 128,-1,23
 349 4 349 4 512 0 c 1,12,13
455 441 m 1,24,-1
 399 271 l 1,25,-1
 569 327 l 1,26,-1
 625 497 l 1,27,-1
 455 441 l 1,24,-1
733 551 m 2,28,-1
 643 280 l 2,29,30
 636 260 636 260 616 253 c 2,31,-1
 345 163 l 2,32,33
 333 159 333 159 321.5 161.5 c 128,-1,34
 310 164 310 164 301 173 c 128,-1,35
 292 182 292 182 289.5 193.5 c 128,-1,36
 287 205 287 205 291 217 c 2,37,-1
 381 488 l 2,38,39
 388 508 388 508 408 515 c 2,40,-1
 679 605 l 2,41,42
 691 609 691 609 702.5 606.5 c 128,-1,43
 714 604 714 604 723 595 c 128,-1,44
 732 586 732 586 734.5 574.5 c 128,-1,45
 737 563 737 563 733 551 c 2,28,-1
EndSplineSet
EndChar

StartChar: copy
Encoding: 59477 59477 62
Width: 1024
GlyphClass: 2
Flags: W
LayerCount: 2
Fore
SplineSet
427 427 m 2,0,-1
 427 43 l 2,1,2
 427 25 427 25 439.5 12.5 c 128,-1,3
 452 0 452 0 469 0 c 2,4,-1
 853 0 l 2,5,6
 871 0 871 0 883.5 12.5 c 128,-1,7
 896 25 896 25 896 43 c 2,8,-1
 896 427 l 2,9,10
 896 444 896 444 883.5 456.5 c 128,-1,11
 871 469 871 469 853 469 c 2,12,-1
 469 469 l 2,13,14
 452 469 452 469 439.5 456.5 c 128,-1,15
 427 444 427 444 427 427 c 2,0,-1
341 427 m 2,16,17
 341 452 341 452 351 475.5 c 128,-1,18
 361 499 361 499 379 517 c 128,-1,19
 397 535 397 535 420.5 545 c 128,-1,20
 444 555 444 555 469 555 c 2,21,-1
 853 555 l 2,22,23
 879 555 879 555 902.5 545 c 128,-1,24
 926 535 926 535 944 517 c 128,-1,25
 962 499 962 499 971.5 475.5 c 128,-1,26
 981 452 981 452 981 427 c 2,27,-1
 981 43 l 2,28,29
 981 17 981 17 971.5 -6.5 c 128,-1,30
 962 -30 962 -30 944 -48 c 128,-1,31
 926 -66 926 -66 902.5 -75.5 c 128,-1,32
 879 -85 879 -85 853 -85 c 2,33,-1
 469 -85 l 2,34,35
 444 -85 444 -85 420.5 -75.5 c 128,-1,36
 397 -66 397 -66 379 -48 c 128,-1,37
 361 -30 361 -30 351 -6.5 c 128,-1,38
 341 17 341 17 341 43 c 2,39,-1
 341 427 l 2,16,17
213 299 m 2,40,-1
 171 299 l 2,41,42
 153 299 153 299 140.5 311 c 128,-1,43
 128 323 128 323 128 341 c 2,44,-1
 128 725 l 2,45,46
 128 743 128 743 140.5 755.5 c 128,-1,47
 153 768 153 768 171 768 c 2,48,-1
 555 768 l 2,49,50
 573 768 573 768 585 755.5 c 128,-1,51
 597 743 597 743 597 725 c 2,52,-1
 597 683 l 2,53,54
 598 665 598 665 610 652.5 c 128,-1,55
 622 640 622 640 640 640 c 128,-1,56
 658 640 658 640 670 652.5 c 128,-1,57
 682 665 682 665 683 683 c 2,58,-1
 683 725 l 2,59,60
 681 780 681 780 645 816 c 128,-1,61
 609 852 609 852 555 853 c 2,62,-1
 171 853 l 2,63,64
 116 852 116 852 80 816 c 128,-1,65
 44 780 44 780 43 725 c 2,66,-1
 43 341 l 2,67,68
 44 287 44 287 80 251 c 128,-1,69
 116 215 116 215 171 213 c 2,70,-1
 213 213 l 2,71,72
 231 214 231 214 243.5 226 c 128,-1,73
 256 238 256 238 256 256 c 128,-1,74
 256 274 256 274 243.5 286 c 128,-1,75
 231 298 231 298 213 299 c 2,40,-1
EndSplineSet
EndChar

StartChar: corner-down-right
Encoding: 59478 59478 63
Width: 1024
GlyphClass: 2
Flags: W
LayerCount: 2
Fore
SplineSet
610 73 m 2,0,1
 598 60 598 60 598 43 c 128,-1,2
 598 26 598 26 610.5 13.5 c 128,-1,3
 623 1 623 1 640 0.5 c 128,-1,4
 657 0 657 0 670 13 c 2,5,-1
 883 226 l 2,6,7
 896 239 896 239 896 256 c 128,-1,8
 896 273 896 273 883 286 c 2,9,-1
 670 499 l 2,10,11
 657 512 657 512 640 511.5 c 128,-1,12
 623 511 623 511 610.5 498.5 c 128,-1,13
 598 486 598 486 598 469 c 128,-1,14
 598 452 598 452 610 439 c 2,15,-1
 793 256 l 1,16,-1
 610 73 l 2,0,1
128 725 m 2,17,-1
 128 427 l 2,18,19
 128 384 128 384 144 345 c 128,-1,20
 160 306 160 306 190.5 276 c 128,-1,21
 221 246 221 246 260 229.5 c 128,-1,22
 299 213 299 213 341 213 c 2,23,-1
 853 213 l 2,24,25
 871 214 871 214 883.5 226 c 128,-1,26
 896 238 896 238 896 256 c 128,-1,27
 896 274 896 274 883.5 286 c 128,-1,28
 871 298 871 298 853 299 c 2,29,-1
 341 299 l 2,30,31
 287 300 287 300 251 336 c 128,-1,32
 215 372 215 372 213 427 c 2,33,-1
 213 725 l 2,34,35
 213 737 213 737 207.5 746.5 c 128,-1,36
 202 756 202 756 192 762 c 128,-1,37
 182 768 182 768 170.5 768 c 128,-1,38
 159 768 159 768 149 762 c 128,-1,39
 139 756 139 756 133.5 746.5 c 128,-1,40
 128 737 128 737 128 725 c 2,17,-1
EndSplineSet
EndChar

StartChar: corner-down-left
Encoding: 59479 59479 64
Width: 1024
GlyphClass: 2
Flags: W
LayerCount: 2
Fore
SplineSet
414 439 m 2,0,1
 423 447 423 447 426 458 c 128,-1,2
 429 469 429 469 426 480.5 c 128,-1,3
 423 492 423 492 415 500 c 128,-1,4
 407 508 407 508 395.5 511 c 128,-1,5
 384 514 384 514 373 511 c 128,-1,6
 362 508 362 508 354 499 c 2,7,-1
 141 286 l 2,8,9
 128 273 128 273 128 256 c 128,-1,10
 128 239 128 239 141 226 c 2,11,-1
 354 13 l 2,12,13
 362 4 362 4 373 1 c 128,-1,14
 384 -2 384 -2 395.5 1 c 128,-1,15
 407 4 407 4 415 12 c 128,-1,16
 423 20 423 20 426 31.5 c 128,-1,17
 429 43 429 43 426 54 c 128,-1,18
 423 65 423 65 414 73 c 2,19,-1
 231 256 l 1,20,-1
 414 439 l 2,0,1
811 725 m 2,21,-1
 811 427 l 2,22,23
 809 372 809 372 773 336 c 128,-1,24
 737 300 737 300 683 299 c 2,25,-1
 171 299 l 2,26,27
 153 298 153 298 140.5 286 c 128,-1,28
 128 274 128 274 128 256 c 128,-1,29
 128 238 128 238 140.5 226 c 128,-1,30
 153 214 153 214 171 213 c 2,31,-1
 683 213 l 2,32,33
 725 213 725 213 764 229.5 c 128,-1,34
 803 246 803 246 833.5 276 c 128,-1,35
 864 306 864 306 880 345 c 128,-1,36
 896 384 896 384 896 427 c 2,37,-1
 896 725 l 2,38,39
 896 743 896 743 883.5 755.5 c 128,-1,40
 871 768 871 768 853 768 c 128,-1,41
 835 768 835 768 823 755.5 c 128,-1,42
 811 743 811 743 811 725 c 2,21,-1
EndSplineSet
EndChar

StartChar: corner-left-down
Encoding: 59480 59480 65
Width: 1024
GlyphClass: 2
Flags: W
LayerCount: 2
Fore
SplineSet
201 286 m 2,0,1
 193 295 193 295 182 298 c 128,-1,2
 171 301 171 301 159.5 298 c 128,-1,3
 148 295 148 295 140 287 c 128,-1,4
 132 279 132 279 129 267.5 c 128,-1,5
 126 256 126 256 129 245 c 128,-1,6
 132 234 132 234 141 226 c 2,7,-1
 354 13 l 2,8,9
 367 0 367 0 384 0 c 128,-1,10
 401 0 401 0 414 13 c 2,11,-1
 627 226 l 2,12,13
 640 239 640 239 639.5 256 c 128,-1,14
 639 273 639 273 626.5 285.5 c 128,-1,15
 614 298 614 298 597 298 c 128,-1,16
 580 298 580 298 567 286 c 2,17,-1
 384 103 l 1,18,-1
 201 286 l 2,0,1
853 768 m 2,19,-1
 555 768 l 2,20,21
 512 768 512 768 473 752 c 128,-1,22
 434 736 434 736 404 705.5 c 128,-1,23
 374 675 374 675 357.5 636 c 128,-1,24
 341 597 341 597 341 555 c 2,25,-1
 341 43 l 2,26,27
 342 25 342 25 354 12.5 c 128,-1,28
 366 0 366 0 384 0 c 128,-1,29
 402 0 402 0 414 12.5 c 128,-1,30
 426 25 426 25 427 43 c 2,31,-1
 427 555 l 2,32,33
 427 580 427 580 436.5 603.5 c 128,-1,34
 446 627 446 627 464 645 c 128,-1,35
 482 663 482 663 505.5 673 c 128,-1,36
 529 683 529 683 555 683 c 2,37,-1
 853 683 l 2,38,39
 871 683 871 683 883.5 695 c 128,-1,40
 896 707 896 707 896 725 c 128,-1,41
 896 743 896 743 883.5 755.5 c 128,-1,42
 871 768 871 768 853 768 c 2,19,-1
EndSplineSet
EndChar

StartChar: corner-left-up
Encoding: 59481 59481 66
Width: 1024
GlyphClass: 2
Flags: W
LayerCount: 2
Fore
SplineSet
567 482 m 2,0,1
 575 473 575 473 586 470 c 128,-1,2
 597 467 597 467 608.5 470 c 128,-1,3
 620 473 620 473 628 481 c 128,-1,4
 636 489 636 489 639 500.5 c 128,-1,5
 642 512 642 512 639 523 c 128,-1,6
 636 534 636 534 627 542 c 2,7,-1
 414 755 l 2,8,9
 401 768 401 768 384 768 c 128,-1,10
 367 768 367 768 354 755 c 2,11,-1
 141 542 l 2,12,13
 128 529 128 529 128.5 512 c 128,-1,14
 129 495 129 495 141.5 482.5 c 128,-1,15
 154 470 154 470 171 470 c 128,-1,16
 188 470 188 470 201 482 c 2,17,-1
 384 665 l 1,18,-1
 567 482 l 2,0,1
853 85 m 2,19,-1
 555 85 l 2,20,21
 500 87 500 87 464 123 c 128,-1,22
 428 159 428 159 427 213 c 2,23,-1
 427 725 l 2,24,25
 427 737 427 737 421 746.5 c 128,-1,26
 415 756 415 756 405 762 c 128,-1,27
 395 768 395 768 384 768 c 128,-1,28
 373 768 373 768 363 762 c 128,-1,29
 353 756 353 756 347 746.5 c 128,-1,30
 341 737 341 737 341 725 c 2,31,-1
 341 213 l 2,32,33
 341 171 341 171 357.5 132 c 128,-1,34
 374 93 374 93 404 62.5 c 128,-1,35
 434 32 434 32 473 16 c 128,-1,36
 512 0 512 0 555 0 c 2,37,-1
 853 0 l 2,38,39
 871 0 871 0 883.5 12.5 c 128,-1,40
 896 25 896 25 896 43 c 128,-1,41
 896 61 896 61 883.5 73 c 128,-1,42
 871 85 871 85 853 85 c 2,19,-1
EndSplineSet
EndChar

StartChar: corner-up-left
Encoding: 59482 59482 67
Width: 1024
GlyphClass: 2
Flags: W
LayerCount: 2
Fore
SplineSet
414 695 m 2,0,1
 423 703 423 703 426 714 c 128,-1,2
 429 725 429 725 426 736.5 c 128,-1,3
 423 748 423 748 415 756 c 128,-1,4
 407 764 407 764 395.5 767 c 128,-1,5
 384 770 384 770 373 767 c 128,-1,6
 362 764 362 764 354 755 c 2,7,-1
 141 542 l 2,8,9
 128 529 128 529 128 512 c 128,-1,10
 128 495 128 495 141 482 c 2,11,-1
 354 269 l 2,12,13
 362 260 362 260 373 257 c 128,-1,14
 384 254 384 254 395.5 257 c 128,-1,15
 407 260 407 260 415 268 c 128,-1,16
 423 276 423 276 426 287.5 c 128,-1,17
 429 299 429 299 426 310 c 128,-1,18
 423 321 423 321 414 329 c 2,19,-1
 231 512 l 1,20,-1
 414 695 l 2,0,1
896 43 m 2,21,-1
 896 341 l 2,22,23
 896 384 896 384 880 423 c 128,-1,24
 864 462 864 462 833.5 492 c 128,-1,25
 803 522 803 522 764 538.5 c 128,-1,26
 725 555 725 555 683 555 c 2,27,-1
 171 555 l 2,28,29
 159 555 159 555 149.5 549 c 128,-1,30
 140 543 140 543 134 533 c 128,-1,31
 128 523 128 523 128 512 c 128,-1,32
 128 501 128 501 134 491 c 128,-1,33
 140 481 140 481 149.5 475 c 128,-1,34
 159 469 159 469 171 469 c 2,35,-1
 683 469 l 2,36,37
 737 468 737 468 773 432 c 128,-1,38
 809 396 809 396 811 341 c 2,39,-1
 811 43 l 2,40,41
 811 25 811 25 823 12.5 c 128,-1,42
 835 0 835 0 853 0 c 128,-1,43
 871 0 871 0 883.5 12.5 c 128,-1,44
 896 25 896 25 896 43 c 2,21,-1
EndSplineSet
EndChar

StartChar: corner-up-right
Encoding: 59483 59483 68
Width: 1024
GlyphClass: 2
Flags: W
LayerCount: 2
Fore
SplineSet
610 329 m 2,0,1
 598 316 598 316 598 299 c 128,-1,2
 598 282 598 282 610.5 269.5 c 128,-1,3
 623 257 623 257 640 256.5 c 128,-1,4
 657 256 657 256 670 269 c 2,5,-1
 883 482 l 2,6,7
 896 495 896 495 896 512 c 128,-1,8
 896 529 896 529 883 542 c 2,9,-1
 670 755 l 2,10,11
 657 768 657 768 640 767.5 c 128,-1,12
 623 767 623 767 610.5 754.5 c 128,-1,13
 598 742 598 742 598 725 c 128,-1,14
 598 708 598 708 610 695 c 2,15,-1
 793 512 l 1,16,-1
 610 329 l 2,0,1
213 43 m 2,17,-1
 213 341 l 2,18,19
 213 367 213 367 223 390.5 c 128,-1,20
 233 414 233 414 251 432 c 128,-1,21
 269 450 269 450 292.5 459.5 c 128,-1,22
 316 469 316 469 341 469 c 2,23,-1
 853 469 l 2,24,25
 871 470 871 470 883.5 482 c 128,-1,26
 896 494 896 494 896 512 c 128,-1,27
 896 530 896 530 883.5 542 c 128,-1,28
 871 554 871 554 853 555 c 2,29,-1
 341 555 l 2,30,31
 299 555 299 555 260 538.5 c 128,-1,32
 221 522 221 522 190.5 492 c 128,-1,33
 160 462 160 462 144 423 c 128,-1,34
 128 384 128 384 128 341 c 2,35,-1
 128 43 l 2,36,37
 128 25 128 25 140.5 12.5 c 128,-1,38
 153 0 153 0 171 0 c 128,-1,39
 189 0 189 0 201 12.5 c 128,-1,40
 213 25 213 25 213 43 c 2,17,-1
EndSplineSet
EndChar

StartChar: corner-right-down
Encoding: 59484 59484 69
Width: 1024
GlyphClass: 2
Flags: W
LayerCount: 2
Fore
SplineSet
457 286 m 2,0,1
 449 295 449 295 438 298 c 128,-1,2
 427 301 427 301 415.5 298 c 128,-1,3
 404 295 404 295 396 287 c 128,-1,4
 388 279 388 279 385 267.5 c 128,-1,5
 382 256 382 256 385 245 c 128,-1,6
 388 234 388 234 397 226 c 2,7,-1
 610 13 l 2,8,9
 623 0 623 0 640 0 c 128,-1,10
 657 0 657 0 670 13 c 2,11,-1
 883 226 l 2,12,13
 896 239 896 239 895.5 256 c 128,-1,14
 895 273 895 273 882.5 285.5 c 128,-1,15
 870 298 870 298 853 298 c 128,-1,16
 836 298 836 298 823 286 c 2,17,-1
 640 103 l 1,18,-1
 457 286 l 2,0,1
171 683 m 2,19,-1
 469 683 l 2,20,21
 524 681 524 681 560 645 c 128,-1,22
 596 609 596 609 597 555 c 2,23,-1
 597 43 l 2,24,25
 598 25 598 25 610 12.5 c 128,-1,26
 622 0 622 0 640 0 c 128,-1,27
 658 0 658 0 670 12.5 c 128,-1,28
 682 25 682 25 683 43 c 2,29,-1
 683 555 l 2,30,31
 683 597 683 597 666.5 636 c 128,-1,32
 650 675 650 675 620 705.5 c 128,-1,33
 590 736 590 736 551 752 c 128,-1,34
 512 768 512 768 469 768 c 2,35,-1
 171 768 l 2,36,37
 159 768 159 768 149.5 762.5 c 128,-1,38
 140 757 140 757 134 747 c 128,-1,39
 128 737 128 737 128 725.5 c 128,-1,40
 128 714 128 714 134 704 c 128,-1,41
 140 694 140 694 149.5 688.5 c 128,-1,42
 159 683 159 683 171 683 c 2,19,-1
EndSplineSet
EndChar

StartChar: corner-right-up
Encoding: 59485 59485 70
Width: 1024
GlyphClass: 2
Flags: W
LayerCount: 2
Fore
SplineSet
823 482 m 2,0,1
 831 473 831 473 842 470 c 128,-1,2
 853 467 853 467 864.5 470 c 128,-1,3
 876 473 876 473 884 481 c 128,-1,4
 892 489 892 489 895 500.5 c 128,-1,5
 898 512 898 512 895 523 c 128,-1,6
 892 534 892 534 883 542 c 2,7,-1
 670 755 l 2,8,9
 657 768 657 768 640 768 c 128,-1,10
 623 768 623 768 610 755 c 2,11,-1
 397 542 l 2,12,13
 388 534 388 534 385 523 c 128,-1,14
 382 512 382 512 385 500.5 c 128,-1,15
 388 489 388 489 396 481 c 128,-1,16
 404 473 404 473 415.5 470 c 128,-1,17
 427 467 427 467 438 470 c 128,-1,18
 449 473 449 473 457 482 c 2,19,-1
 640 665 l 1,20,-1
 823 482 l 2,0,1
171 0 m 2,21,-1
 469 0 l 2,22,23
 512 0 512 0 551 16 c 128,-1,24
 590 32 590 32 620 62.5 c 128,-1,25
 650 93 650 93 666.5 132 c 128,-1,26
 683 171 683 171 683 213 c 2,27,-1
 683 725 l 2,28,29
 682 743 682 743 670 755.5 c 128,-1,30
 658 768 658 768 640 768 c 128,-1,31
 622 768 622 768 610 755.5 c 128,-1,32
 598 743 598 743 597 725 c 2,33,-1
 597 213 l 2,34,35
 596 159 596 159 560 123 c 128,-1,36
 524 87 524 87 469 85 c 2,37,-1
 171 85 l 2,38,39
 153 85 153 85 140.5 73 c 128,-1,40
 128 61 128 61 128 43 c 128,-1,41
 128 25 128 25 140.5 12.5 c 128,-1,42
 153 0 153 0 171 0 c 2,21,-1
EndSplineSet
EndChar

StartChar: cpu
Encoding: 59486 59486 71
Width: 1024
GlyphClass: 2
Flags: W
LayerCount: 2
Fore
SplineSet
213 640 m 2,0,-1
 213 128 l 2,1,2
 214 110 214 110 226 98 c 128,-1,3
 238 86 238 86 256 85 c 2,4,-1
 768 85 l 2,5,6
 786 86 786 86 798 98 c 128,-1,7
 810 110 810 110 811 128 c 2,8,-1
 811 640 l 2,9,10
 810 658 810 658 798 670 c 128,-1,11
 786 682 786 682 768 683 c 2,12,-1
 256 683 l 2,13,14
 238 682 238 682 226 670 c 128,-1,15
 214 658 214 658 213 640 c 2,0,-1
128 640 m 2,16,17
 129 695 129 695 165 731 c 128,-1,18
 201 767 201 767 256 768 c 2,19,-1
 768 768 l 2,20,21
 823 767 823 767 859 731 c 128,-1,22
 895 695 895 695 896 640 c 2,23,-1
 896 128 l 2,24,25
 895 73 895 73 859 37 c 128,-1,26
 823 1 823 1 768 0 c 2,27,-1
 256 0 l 2,28,29
 201 1 201 1 165 37 c 128,-1,30
 129 73 129 73 128 128 c 2,31,-1
 128 640 l 2,16,17
427 299 m 1,32,-1
 597 299 l 1,33,-1
 597 469 l 1,34,-1
 427 469 l 1,35,-1
 427 299 l 1,32,-1
384 555 m 2,36,-1
 640 555 l 2,37,38
 658 554 658 554 670 542 c 128,-1,39
 682 530 682 530 683 512 c 2,40,-1
 683 256 l 2,41,42
 682 238 682 238 670 226 c 128,-1,43
 658 214 658 214 640 213 c 2,44,-1
 384 213 l 2,45,46
 366 214 366 214 354 226 c 128,-1,47
 342 238 342 238 341 256 c 2,48,-1
 341 512 l 2,49,50
 342 530 342 530 354 542 c 128,-1,51
 366 554 366 554 384 555 c 2,36,-1
341 853 m 2,52,53
 341 865 341 865 347 874.5 c 128,-1,54
 353 884 353 884 363 890 c 128,-1,55
 373 896 373 896 384 896 c 128,-1,56
 395 896 395 896 405 890 c 128,-1,57
 415 884 415 884 421 874.5 c 128,-1,58
 427 865 427 865 427 853 c 2,59,-1
 427 725 l 2,60,61
 427 714 427 714 421 704 c 128,-1,62
 415 694 415 694 405 688.5 c 128,-1,63
 395 683 395 683 384 683 c 128,-1,64
 373 683 373 683 363 688.5 c 128,-1,65
 353 694 353 694 347 704 c 128,-1,66
 341 714 341 714 341 725 c 2,67,-1
 341 853 l 2,52,53
597 853 m 2,68,69
 598 871 598 871 610 883.5 c 128,-1,70
 622 896 622 896 640 896 c 128,-1,71
 658 896 658 896 670 883.5 c 128,-1,72
 682 871 682 871 683 853 c 2,73,-1
 683 725 l 2,74,75
 682 707 682 707 670 695 c 128,-1,76
 658 683 658 683 640 683 c 128,-1,77
 622 683 622 683 610 695 c 128,-1,78
 598 707 598 707 597 725 c 2,79,-1
 597 853 l 2,68,69
341 43 m 2,80,81
 342 61 342 61 354 73 c 128,-1,82
 366 85 366 85 384 85 c 128,-1,83
 402 85 402 85 414 73 c 128,-1,84
 426 61 426 61 427 43 c 2,85,-1
 427 -85 l 2,86,87
 426 -103 426 -103 414 -115.5 c 128,-1,88
 402 -128 402 -128 384 -128 c 128,-1,89
 366 -128 366 -128 354 -115.5 c 128,-1,90
 342 -103 342 -103 341 -85 c 2,91,-1
 341 43 l 2,80,81
597 43 m 2,92,93
 598 61 598 61 610 73 c 128,-1,94
 622 85 622 85 640 85 c 128,-1,95
 658 85 658 85 670 73 c 128,-1,96
 682 61 682 61 683 43 c 2,97,-1
 683 -85 l 2,98,99
 682 -103 682 -103 670 -115.5 c 128,-1,100
 658 -128 658 -128 640 -128 c 128,-1,101
 622 -128 622 -128 610 -115.5 c 128,-1,102
 598 -103 598 -103 597 -85 c 2,103,-1
 597 43 l 2,92,93
853 469 m 2,104,105
 835 470 835 470 823 482 c 128,-1,106
 811 494 811 494 811 512 c 128,-1,107
 811 530 811 530 823 542 c 128,-1,108
 835 554 835 554 853 555 c 2,109,-1
 981 555 l 2,110,111
 999 554 999 554 1011.5 542 c 128,-1,112
 1024 530 1024 530 1024 512 c 128,-1,113
 1024 494 1024 494 1011.5 482 c 128,-1,114
 999 470 999 470 981 469 c 2,115,-1
 853 469 l 2,104,105
853 256 m 2,116,117
 835 256 835 256 823 268.5 c 128,-1,118
 811 281 811 281 811 299 c 128,-1,119
 811 317 811 317 823 329 c 128,-1,120
 835 341 835 341 853 341 c 2,121,-1
 981 341 l 2,122,123
 999 341 999 341 1011.5 329 c 128,-1,124
 1024 317 1024 317 1024 299 c 128,-1,125
 1024 281 1024 281 1011.5 268.5 c 128,-1,126
 999 256 999 256 981 256 c 2,127,-1
 853 256 l 2,116,117
43 469 m 2,128,129
 31 469 31 469 21.5 475 c 128,-1,130
 12 481 12 481 6 491 c 128,-1,131
 0 501 0 501 0 512 c 128,-1,132
 0 523 0 523 6 533 c 128,-1,133
 12 543 12 543 21.5 549 c 128,-1,134
 31 555 31 555 43 555 c 2,135,-1
 171 555 l 2,136,137
 182 555 182 555 192 549 c 128,-1,138
 202 543 202 543 207.5 533 c 128,-1,139
 213 523 213 523 213 512 c 128,-1,140
 213 501 213 501 207.5 491 c 128,-1,141
 202 481 202 481 192 475 c 128,-1,142
 182 469 182 469 171 469 c 2,143,-1
 43 469 l 2,128,129
43 256 m 2,144,145
 25 256 25 256 12.5 268.5 c 128,-1,146
 0 281 0 281 0 299 c 128,-1,147
 0 317 0 317 12.5 329 c 128,-1,148
 25 341 25 341 43 341 c 2,149,-1
 171 341 l 2,150,151
 189 341 189 341 201 329 c 128,-1,152
 213 317 213 317 213 299 c 128,-1,153
 213 281 213 281 201 268.5 c 128,-1,154
 189 256 189 256 171 256 c 2,155,-1
 43 256 l 2,144,145
EndSplineSet
EndChar

StartChar: credit-card
Encoding: 59487 59487 72
Width: 1024
GlyphClass: 2
Flags: W
LayerCount: 2
Fore
SplineSet
0 640 m 2,0,1
 0 666 0 666 9.5 689 c 128,-1,2
 19 712 19 712 37.5 730.5 c 128,-1,3
 56 749 56 749 79 758.5 c 128,-1,4
 102 768 102 768 128 768 c 2,5,-1
 896 768 l 2,6,7
 951 767 951 767 987 730.5 c 128,-1,8
 1023 694 1023 694 1024 640 c 2,9,-1
 1024 128 l 2,10,11
 1024 102 1024 102 1014.5 79 c 128,-1,12
 1005 56 1005 56 986.5 37.5 c 128,-1,13
 968 19 968 19 945 9.5 c 128,-1,14
 922 0 922 0 896 0 c 2,15,-1
 128 0 l 2,16,17
 73 1 73 1 37 37.5 c 128,-1,18
 1 74 1 74 0 128 c 2,19,-1
 0 640 l 2,0,1
939 512 m 1,20,-1
 939 640 l 2,21,22
 938 658 938 658 926 670 c 128,-1,23
 914 682 914 682 896 683 c 2,24,-1
 128 683 l 2,25,26
 110 682 110 682 98 670 c 128,-1,27
 86 658 86 658 85 640 c 2,28,-1
 85 512 l 1,29,-1
 939 512 l 1,20,-1
939 427 m 1,30,-1
 85 427 l 1,31,-1
 85 128 l 2,32,33
 86 110 86 110 98 98 c 128,-1,34
 110 86 110 86 128 85 c 2,35,-1
 896 85 l 2,36,37
 914 86 914 86 926.5 98 c 128,-1,38
 939 110 939 110 939 128 c 2,39,-1
 939 427 l 1,30,-1
EndSplineSet
EndChar

StartChar: crosshair
Encoding: 59488 59488 73
Width: 1024
GlyphClass: 2
Flags: W
LayerCount: 2
Fore
SplineSet
469 2 m 1,0,-1
 469 128 l 2,1,2
 470 146 470 146 482 158 c 128,-1,3
 494 170 494 170 512 170 c 128,-1,4
 530 170 530 170 542 158 c 128,-1,5
 554 146 554 146 555 128 c 2,6,-1
 555 2 l 1,7,8
 691 20 691 20 783.5 112.5 c 128,-1,9
 876 205 876 205 894 341 c 1,10,-1
 768 341 l 2,11,12
 750 342 750 342 738 354 c 128,-1,13
 726 366 726 366 726 384 c 128,-1,14
 726 402 726 402 738 414 c 128,-1,15
 750 426 750 426 768 427 c 2,16,-1
 894 427 l 1,17,18
 876 563 876 563 783.5 655.5 c 128,-1,19
 691 748 691 748 555 766 c 1,20,-1
 555 640 l 2,21,22
 554 622 554 622 542 610 c 128,-1,23
 530 598 530 598 512 598 c 128,-1,24
 494 598 494 598 482 610 c 128,-1,25
 470 622 470 622 469 640 c 2,26,-1
 469 766 l 1,27,28
 333 748 333 748 240.5 655.5 c 128,-1,29
 148 563 148 563 130 427 c 1,30,-1
 256 427 l 2,31,32
 274 426 274 426 286 414 c 128,-1,33
 298 402 298 402 298 384 c 128,-1,34
 298 366 298 366 286 354 c 128,-1,35
 274 342 274 342 256 341 c 2,36,-1
 130 341 l 1,37,38
 148 205 148 205 240.5 112.5 c 128,-1,39
 333 20 333 20 469 2 c 1,0,-1
512 -85 m 1,40,41
 313 -80 313 -80 180.5 52.5 c 128,-1,42
 48 185 48 185 43 384 c 1,43,44
 48 583 48 583 180.5 715.5 c 128,-1,45
 313 848 313 848 512 853 c 1,46,47
 711 848 711 848 843.5 715.5 c 128,-1,48
 976 583 976 583 981 384 c 1,49,50
 976 185 976 185 843.5 52.5 c 128,-1,51
 711 -80 711 -80 512 -85 c 1,40,41
EndSplineSet
EndChar

StartChar: disc
Encoding: 59489 59489 74
Width: 1024
GlyphClass: 2
Flags: W
LayerCount: 2
Fore
SplineSet
512 -85 m 1,0,1
 313 -80 313 -80 180.5 52.5 c 128,-1,2
 48 185 48 185 43 384 c 1,3,4
 48 583 48 583 180.5 715.5 c 128,-1,5
 313 848 313 848 512 853 c 1,6,7
 711 848 711 848 843.5 715.5 c 128,-1,8
 976 583 976 583 981 384 c 1,9,10
 976 185 976 185 843.5 52.5 c 128,-1,11
 711 -80 711 -80 512 -85 c 1,0,1
512 0 m 1,12,13
 675 4 675 4 783.5 112.5 c 128,-1,14
 892 221 892 221 896 384 c 1,15,16
 892 547 892 547 783.5 655.5 c 128,-1,17
 675 764 675 764 512 768 c 1,18,19
 349 764 349 764 240.5 655.5 c 128,-1,20
 132 547 132 547 128 384 c 1,21,22
 132 221 132 221 240.5 112.5 c 128,-1,23
 349 4 349 4 512 0 c 1,12,13
512 213 m 0,24,25
 466 214 466 214 427 236.5 c 128,-1,26
 388 259 388 259 364.5 299 c 128,-1,27
 341 339 341 339 341 384 c 128,-1,28
 341 429 341 429 364.5 469 c 128,-1,29
 388 509 388 509 427 531.5 c 128,-1,30
 466 554 466 554 512 555 c 0,31,32
 585 553 585 553 633 505 c 128,-1,33
 681 457 681 457 683 384 c 0,34,35
 681 311 681 311 633 263 c 128,-1,36
 585 215 585 215 512 213 c 0,24,25
512 299 m 0,37,38
 548 300 548 300 572 324 c 128,-1,39
 596 348 596 348 596 384 c 128,-1,40
 596 420 596 420 572 444 c 128,-1,41
 548 468 548 468 512 468 c 128,-1,42
 476 468 476 468 452 444 c 128,-1,43
 428 420 428 420 428 384 c 128,-1,44
 428 348 428 348 452 324 c 128,-1,45
 476 300 476 300 512 299 c 0,37,38
EndSplineSet
EndChar

StartChar: delete
Encoding: 59490 59490 75
Width: 1024
GlyphClass: 2
Flags: W
LayerCount: 2
Fore
SplineSet
896 768 m 2,0,1
 950 767 950 767 986.5 730.5 c 128,-1,2
 1023 694 1023 694 1024 640 c 2,3,-1
 1024 128 l 2,4,5
 1023 74 1023 74 986.5 37.5 c 128,-1,6
 950 1 950 1 896 0 c 2,7,-1
 341 0 l 2,8,9
 322 0 322 0 309 15 c 2,10,-1
 11 356 l 2,11,12
 0 368 0 368 0 384 c 128,-1,13
 0 400 0 400 11 412 c 2,14,-1
 309 753 l 2,15,16
 322 768 322 768 341 768 c 2,17,-1
 896 768 l 2,0,1
896 85 m 2,18,19
 914 86 914 86 926 98 c 128,-1,20
 938 110 938 110 939 128 c 2,21,-1
 939 640 l 2,22,23
 938 658 938 658 926 670 c 128,-1,24
 914 682 914 682 896 683 c 2,25,-1
 361 683 l 1,26,-1
 99 384 l 1,27,-1
 361 85 l 1,28,-1
 896 85 l 2,18,19
738 542 m 2,29,-1
 482 286 l 2,30,31
 470 273 470 273 470 256 c 128,-1,32
 470 239 470 239 482.5 226.5 c 128,-1,33
 495 214 495 214 512 214 c 128,-1,34
 529 214 529 214 542 226 c 2,35,-1
 798 482 l 2,36,37
 807 490 807 490 810 501 c 128,-1,38
 813 512 813 512 810 523.5 c 128,-1,39
 807 535 807 535 799 543 c 128,-1,40
 791 551 791 551 779.5 554 c 128,-1,41
 768 557 768 557 757 554 c 128,-1,42
 746 551 746 551 738 542 c 2,29,-1
482 482 m 2,43,-1
 738 226 l 2,44,45
 751 214 751 214 768 214 c 128,-1,46
 785 214 785 214 797.5 226.5 c 128,-1,47
 810 239 810 239 810 256 c 128,-1,48
 810 273 810 273 798 286 c 2,49,-1
 542 542 l 2,50,51
 529 554 529 554 512 554 c 128,-1,52
 495 554 495 554 482.5 541.5 c 128,-1,53
 470 529 470 529 470 512 c 128,-1,54
 470 495 470 495 482 482 c 2,43,-1
EndSplineSet
EndChar

StartChar: download-cloud
Encoding: 59491 59491 76
Width: 1024
GlyphClass: 2
Flags: W
LayerCount: 2
Fore
SplineSet
512 18 m 1,0,-1
 372 158 l 2,1,2
 364 167 364 167 353 170 c 128,-1,3
 342 173 342 173 330.5 170 c 128,-1,4
 319 167 319 167 311 159 c 128,-1,5
 303 151 303 151 300 139.5 c 128,-1,6
 297 128 297 128 300 117 c 128,-1,7
 303 106 303 106 312 98 c 2,8,-1
 482 -73 l 2,9,10
 495 -85 495 -85 512 -85 c 128,-1,11
 529 -85 529 -85 543 -73 c 2,12,-1
 713 98 l 2,13,14
 725 111 725 111 725 128 c 128,-1,15
 725 145 725 145 712.5 157.5 c 128,-1,16
 700 170 700 170 683 170 c 128,-1,17
 666 170 666 170 653 158 c 2,18,-1
 512 18 l 1,0,-1
470 341 m 2,19,-1
 470 -43 l 2,20,21
 470 -61 470 -61 482 -73 c 128,-1,22
 494 -85 494 -85 512.5 -85 c 128,-1,23
 531 -85 531 -85 543 -73 c 128,-1,24
 555 -61 555 -61 555 -43 c 2,25,-1
 555 341 l 2,26,27
 555 359 555 359 543 371.5 c 128,-1,28
 531 384 531 384 512.5 384 c 128,-1,29
 494 384 494 384 482 371.5 c 128,-1,30
 470 359 470 359 470 341 c 2,19,-1
428 766 m 0,31,32
 307 778 307 778 204 723.5 c 128,-1,33
 101 669 101 669 44 562 c 0,34,35
 -11 454 -11 454 3 338 c 128,-1,36
 17 222 17 222 97 130 c 0,37,38
 109 117 109 117 126 116 c 128,-1,39
 143 115 143 115 156.5 127 c 128,-1,40
 170 139 170 139 171 156 c 128,-1,41
 172 173 172 173 160 187 c 0,42,43
 99 258 99 258 87.5 348 c 128,-1,44
 76 438 76 438 119 523 c 0,45,46
 164 606 164 606 244 648.5 c 128,-1,47
 324 691 324 691 418 681 c 0,48,49
 512 669 512 669 580.5 609.5 c 128,-1,50
 649 550 649 550 673 459 c 0,51,52
 677 444 677 444 688.5 435.5 c 128,-1,53
 700 427 700 427 715 427 c 2,54,-1
 768 427 l 2,55,56
 825 426 825 426 869 394 c 128,-1,57
 913 362 913 362 930.5 307.5 c 128,-1,58
 948 253 948 253 930.5 201.5 c 128,-1,59
 913 150 913 150 867 116 c 0,60,61
 853 105 853 105 850 88.5 c 128,-1,62
 847 72 847 72 857.5 57.5 c 128,-1,63
 868 43 868 43 884.5 40 c 128,-1,64
 901 37 901 37 916 47 c 0,65,66
 985 97 985 97 1011 174.5 c 128,-1,67
 1037 252 1037 252 1013 333 c 0,68,69
 986 414 986 414 920 462.5 c 128,-1,70
 854 511 854 511 768 512 c 2,71,-1
 746 512 l 1,72,73
 708 617 708 617 623.5 684.5 c 128,-1,74
 539 752 539 752 428 766 c 0,31,32
EndSplineSet
EndChar

StartChar: download
Encoding: 59492 59492 77
Width: 1024
GlyphClass: 2
Flags: W
LayerCount: 2
Fore
SplineSet
85 171 m 2,0,-1
 85 43 l 2,1,2
 87 -12 87 -12 123 -48 c 128,-1,3
 159 -84 159 -84 213 -85 c 2,4,-1
 811 -85 l 2,5,6
 865 -84 865 -84 901 -48 c 128,-1,7
 937 -12 937 -12 939 43 c 2,8,-1
 939 171 l 2,9,10
 938 189 938 189 926 201 c 128,-1,11
 914 213 914 213 896 213 c 128,-1,12
 878 213 878 213 866 201 c 128,-1,13
 854 189 854 189 853 171 c 2,14,-1
 853 43 l 2,15,16
 853 25 853 25 841 12.5 c 128,-1,17
 829 0 829 0 811 0 c 2,18,-1
 213 0 l 2,19,20
 195 0 195 0 183 12.5 c 128,-1,21
 171 25 171 25 171 43 c 2,22,-1
 171 171 l 2,23,24
 170 189 170 189 158 201 c 128,-1,25
 146 213 146 213 128 213 c 128,-1,26
 110 213 110 213 98 201 c 128,-1,27
 86 189 86 189 85 171 c 2,0,-1
512 274 m 1,28,-1
 371 414 l 2,29,30
 363 423 363 423 352 426 c 128,-1,31
 341 429 341 429 330 426 c 128,-1,32
 319 423 319 423 311 415 c 128,-1,33
 303 407 303 407 300 395.5 c 128,-1,34
 297 384 297 384 300 373 c 128,-1,35
 303 362 303 362 311 354 c 2,36,-1
 482 183 l 2,37,38
 495 171 495 171 512 171 c 128,-1,39
 529 171 529 171 542 183 c 2,40,-1
 713 354 l 2,41,42
 725 367 725 367 725 384 c 128,-1,43
 725 401 725 401 712 413.5 c 128,-1,44
 699 426 699 426 682.5 426 c 128,-1,45
 666 426 666 426 653 414 c 2,46,-1
 512 274 l 1,28,-1
469 811 m 2,47,-1
 469 213 l 2,48,49
 470 195 470 195 482 183 c 128,-1,50
 494 171 494 171 512 171 c 128,-1,51
 530 171 530 171 542 183 c 128,-1,52
 554 195 554 195 555 213 c 2,53,-1
 555 811 l 2,54,55
 554 829 554 829 542 841 c 128,-1,56
 530 853 530 853 512 853 c 128,-1,57
 494 853 494 853 482 841 c 128,-1,58
 470 829 470 829 469 811 c 2,47,-1
EndSplineSet
EndChar

StartChar: droplet
Encoding: 59493 59493 78
Width: 1024
GlyphClass: 2
Flags: W
LayerCount: 2
Fore
SplineSet
301 501 m 2,0,1
 237 437 237 437 219.5 351 c 128,-1,2
 202 265 202 265 236 180 c 0,3,4
 273 97 273 97 346.5 48.5 c 128,-1,5
 420 0 420 0 512 0 c 128,-1,6
 604 0 604 0 678 48.5 c 128,-1,7
 752 97 752 97 788 180 c 0,8,9
 822 265 822 265 805 351 c 128,-1,10
 788 437 788 437 723 501 c 2,11,-1
 512 709 l 1,12,-1
 301 501 l 2,0,1
542 798 m 2,13,-1
 784 560 l 2,14,15
 866 478 866 478 888.5 367.5 c 128,-1,16
 911 257 911 257 867 148 c 0,17,18
 820 41 820 41 725.5 -21.5 c 128,-1,19
 631 -84 631 -84 512 -85 c 0,20,21
 394 -84 394 -84 299 -21.5 c 128,-1,22
 204 41 204 41 157 148 c 0,23,24
 113 257 113 257 135.5 367 c 128,-1,25
 158 477 158 477 241 560 c 2,26,-1
 482 798 l 2,27,28
 495 811 495 811 512 811 c 128,-1,29
 529 811 529 811 542 798 c 2,13,-1
EndSplineSet
EndChar

StartChar: edit-
Encoding: 59494 59494 79
Width: 1024
GlyphClass: 2
Flags: W
LayerCount: 2
Fore
SplineSet
171 196 m 1,0,-1
 171 43 l 1,1,-1
 324 43 l 1,2,-1
 836 555 l 1,3,-1
 683 708 l 1,4,-1
 171 196 l 1,0,-1
713 798 m 2,5,-1
 926 585 l 2,6,7
 939 572 939 572 939 555 c 128,-1,8
 939 538 939 538 926 525 c 2,9,-1
 371 -30 l 2,10,11
 359 -42 359 -42 341 -43 c 2,12,-1
 128 -43 l 2,13,14
 110 -42 110 -42 98 -30 c 128,-1,15
 86 -18 86 -18 85 0 c 2,16,-1
 85 213 l 2,17,18
 86 231 86 231 98 243 c 2,19,-1
 653 798 l 2,20,21
 666 811 666 811 683 811 c 128,-1,22
 700 811 700 811 713 798 c 2,5,-1
EndSplineSet
EndChar

StartChar: edit
Encoding: 59495 59495 80
Width: 1024
GlyphClass: 2
Flags: W
LayerCount: 2
Fore
SplineSet
811 271 m 2,0,-1
 811 43 l 2,1,2
 810 25 810 25 798 12.5 c 128,-1,3
 786 0 786 0 768 0 c 2,4,-1
 171 0 l 2,5,6
 153 0 153 0 140.5 12.5 c 128,-1,7
 128 25 128 25 128 43 c 2,8,-1
 128 640 l 2,9,10
 128 658 128 658 140.5 670 c 128,-1,11
 153 682 153 682 171 683 c 2,12,-1
 399 683 l 2,13,14
 410 683 410 683 420 688.5 c 128,-1,15
 430 694 430 694 435.5 704 c 128,-1,16
 441 714 441 714 441 725.5 c 128,-1,17
 441 737 441 737 435.5 747 c 128,-1,18
 430 757 430 757 420 762.5 c 128,-1,19
 410 768 410 768 399 768 c 2,20,-1
 171 768 l 2,21,22
 116 767 116 767 80 730.5 c 128,-1,23
 44 694 44 694 43 640 c 2,24,-1
 43 43 l 2,25,26
 44 -12 44 -12 80 -48 c 128,-1,27
 116 -84 116 -84 171 -85 c 2,28,-1
 768 -85 l 2,29,30
 822 -84 822 -84 858.5 -48 c 128,-1,31
 895 -12 895 -12 896 43 c 2,32,-1
 896 271 l 2,33,34
 896 289 896 289 883.5 301 c 128,-1,35
 871 313 871 313 853 313 c 128,-1,36
 835 313 835 313 823 301 c 128,-1,37
 811 289 811 289 811 271 c 2,0,-1
384 366 m 1,38,-1
 384 256 l 1,39,-1
 494 256 l 1,40,-1
 878 640 l 1,41,-1
 768 750 l 1,42,-1
 384 366 l 1,38,-1
798 841 m 2,43,-1
 969 670 l 2,44,45
 981 657 981 657 981 640 c 128,-1,46
 981 623 981 623 969 610 c 2,47,-1
 542 183 l 2,48,49
 530 171 530 171 512 171 c 2,50,-1
 341 171 l 2,51,52
 323 171 323 171 311 183 c 128,-1,53
 299 195 299 195 299 213 c 2,54,-1
 299 384 l 2,55,56
 299 402 299 402 311 414 c 2,57,-1
 738 841 l 2,58,59
 751 853 751 853 768 853 c 128,-1,60
 785 853 785 853 798 841 c 2,43,-1
EndSplineSet
EndChar

StartChar: edit-1
Encoding: 59496 59496 81
Width: 1024
GlyphClass: 2
Flags: W
LayerCount: 2
Fore
SplineSet
171 324 m 1,0,-1
 171 213 l 1,1,-1
 281 213 l 1,2,-1
 708 640 l 1,3,-1
 597 750 l 1,4,-1
 171 324 l 1,0,-1
627 841 m 2,5,-1
 798 670 l 2,6,7
 811 657 811 657 811 640 c 128,-1,8
 811 623 811 623 798 610 c 2,9,-1
 329 141 l 2,10,11
 316 128 316 128 299 128 c 2,12,-1
 128 128 l 2,13,14
 110 128 110 128 98 140.5 c 128,-1,15
 86 153 86 153 85 171 c 2,16,-1
 85 341 l 2,17,18
 86 359 86 359 98 371 c 2,19,-1
 567 841 l 2,20,21
 580 853 580 853 597 853 c 128,-1,22
 614 853 614 853 627 841 c 2,5,-1
128 -85 m 2,23,-1
 896 -85 l 2,24,25
 914 -85 914 -85 926 -73 c 128,-1,26
 938 -61 938 -61 938 -43 c 128,-1,27
 938 -25 938 -25 926 -12.5 c 128,-1,28
 914 0 914 0 896 0 c 2,29,-1
 128 0 l 2,30,31
 110 0 110 0 98 -12.5 c 128,-1,32
 86 -25 86 -25 86 -43 c 128,-1,33
 86 -61 86 -61 98 -73 c 128,-1,34
 110 -85 110 -85 128 -85 c 2,23,-1
EndSplineSet
EndChar

StartChar: external-link
Encoding: 59497 59497 82
Width: 1024
GlyphClass: 2
Flags: W
LayerCount: 2
Fore
SplineSet
725 341 m 2,0,-1
 725 85 l 2,1,2
 725 67 725 67 713 55 c 128,-1,3
 701 43 701 43 683 43 c 2,4,-1
 213 43 l 2,5,6
 195 43 195 43 183 55 c 128,-1,7
 171 67 171 67 171 85 c 2,8,-1
 171 555 l 2,9,10
 171 573 171 573 183 585 c 128,-1,11
 195 597 195 597 213 597 c 2,12,-1
 469 597 l 2,13,14
 487 598 487 598 499.5 610 c 128,-1,15
 512 622 512 622 512 640 c 128,-1,16
 512 658 512 658 499.5 670 c 128,-1,17
 487 682 487 682 469 683 c 2,18,-1
 213 683 l 2,19,20
 159 681 159 681 123 645 c 128,-1,21
 87 609 87 609 85 555 c 2,22,-1
 85 85 l 2,23,24
 87 31 87 31 123 -5 c 128,-1,25
 159 -41 159 -41 213 -43 c 2,26,-1
 683 -43 l 2,27,28
 737 -41 737 -41 773 -5 c 128,-1,29
 809 31 809 31 811 85 c 2,30,-1
 811 341 l 2,31,32
 810 359 810 359 798 371.5 c 128,-1,33
 786 384 786 384 768 384 c 128,-1,34
 750 384 750 384 738 371.5 c 128,-1,35
 726 359 726 359 725 341 c 2,0,-1
853 725 m 1,36,-1
 853 512 l 2,37,38
 854 494 854 494 866 482 c 128,-1,39
 878 470 878 470 896 470 c 128,-1,40
 914 470 914 470 926 482 c 128,-1,41
 938 494 938 494 939 512 c 2,42,-1
 939 768 l 2,43,44
 938 786 938 786 926 798 c 128,-1,45
 914 810 914 810 896 811 c 2,46,-1
 640 811 l 2,47,48
 622 810 622 810 610 798 c 128,-1,49
 598 786 598 786 598 768 c 128,-1,50
 598 750 598 750 610 738 c 128,-1,51
 622 726 622 726 640 725 c 2,52,-1
 853 725 l 1,36,-1
457 269 m 2,53,-1
 926 738 l 2,54,55
 935 746 935 746 938 757 c 128,-1,56
 941 768 941 768 938 779.5 c 128,-1,57
 935 791 935 791 927 799 c 128,-1,58
 919 807 919 807 907.5 810 c 128,-1,59
 896 813 896 813 885 810 c 128,-1,60
 874 807 874 807 866 798 c 2,61,-1
 397 329 l 2,62,63
 384 316 384 316 384.5 299 c 128,-1,64
 385 282 385 282 397.5 269.5 c 128,-1,65
 410 257 410 257 427 256.5 c 128,-1,66
 444 256 444 256 457 269 c 2,53,-1
EndSplineSet
EndChar

StartChar: eye
Encoding: 59498 59498 83
Width: 1024
GlyphClass: 2
Flags: W
LayerCount: 2
Fore
SplineSet
110 354 m 0,0,1
 147 296 147 296 196 242 c 0,2,3
 266 168 266 168 345 127 c 128,-1,4
 424 86 424 86 512 86 c 128,-1,5
 600 86 600 86 679 127 c 128,-1,6
 758 168 758 168 828 243 c 0,7,8
 888 307 888 307 933 384 c 1,9,10
 888 461 888 461 828 525 c 0,11,12
 758 600 758 600 679 641 c 128,-1,13
 600 682 600 682 512 682 c 128,-1,14
 424 682 424 682 345 641 c 128,-1,15
 266 600 266 600 197 525 c 0,16,17
 136 461 136 461 91 384 c 1,18,19
 99 370 99 370 110 354 c 0,0,1
5 403 m 256,20,21
 14 422 14 422 38 461 c 0,22,23
 81 526 81 526 134 584 c 0,24,25
 215 671 215 671 309.5 719 c 128,-1,26
 404 767 404 767 512 767 c 128,-1,27
 620 767 620 767 714.5 719 c 128,-1,28
 809 671 809 671 890 584 c 0,29,30
 943 526 943 526 986 461 c 0,31,32
 1010 422 1010 422 1019.5 403 c 128,-1,33
 1029 384 1029 384 1019.5 365 c 128,-1,34
 1010 346 1010 346 986 307 c 0,35,36
 943 242 943 242 890 184 c 0,37,38
 809 97 809 97 714.5 49 c 128,-1,39
 620 1 620 1 512 1 c 128,-1,40
 404 1 404 1 309.5 49 c 128,-1,41
 215 97 215 97 134 184 c 0,42,43
 81 242 81 242 38 307 c 0,44,45
 20 335 20 335 5 365 c 0,46,47
 -4 384 -4 384 5 403 c 256,20,21
512 213 m 0,48,49
 466 214 466 214 427 236.5 c 128,-1,50
 388 259 388 259 364.5 299 c 128,-1,51
 341 339 341 339 341 384 c 128,-1,52
 341 429 341 429 364.5 469 c 128,-1,53
 388 509 388 509 427 531.5 c 128,-1,54
 466 554 466 554 512 555 c 0,55,56
 585 553 585 553 633 505 c 128,-1,57
 681 457 681 457 683 384 c 0,58,59
 681 311 681 311 633 263 c 128,-1,60
 585 215 585 215 512 213 c 0,48,49
512 299 m 0,61,62
 548 300 548 300 572 324 c 128,-1,63
 596 348 596 348 596 384 c 128,-1,64
 596 420 596 420 572 444 c 128,-1,65
 548 468 548 468 512 468 c 128,-1,66
 476 468 476 468 452 444 c 128,-1,67
 428 420 428 420 428 384 c 128,-1,68
 428 348 428 348 452 324 c 128,-1,69
 476 300 476 300 512 299 c 0,61,62
EndSplineSet
EndChar

StartChar: feather
Encoding: 59499 59499 84
Width: 1024
GlyphClass: 2
Flags: W
LayerCount: 2
Fore
SplineSet
231 43 m 1,0,-1
 115 -73 l 2,1,2
 107 -81 107 -81 96 -84 c 128,-1,3
 85 -87 85 -87 74 -84 c 128,-1,4
 63 -81 63 -81 55 -73 c 128,-1,5
 47 -65 47 -65 44 -54 c 128,-1,6
 41 -43 41 -43 44 -32 c 128,-1,7
 47 -21 47 -21 55 -13 c 2,8,-1
 171 103 l 1,9,-1
 171 448 l 2,10,11
 171 466 171 466 183 478 c 2,12,-1
 471 766 l 2,13,14
 563 854 563 854 682.5 854 c 128,-1,15
 802 854 802 854 894 766 c 1,16,17
 981 674 981 674 981 555 c 128,-1,18
 981 436 981 436 894 344 c 2,19,-1
 606 55 l 2,20,21
 594 43 594 43 576 43 c 2,22,-1
 231 43 l 1,0,-1
487 299 m 1,23,-1
 728 299 l 1,24,-1
 833 404 l 2,25,26
 875 445 875 445 890.5 500 c 128,-1,27
 906 555 906 555 891 611.5 c 128,-1,28
 876 668 876 668 836 708.5 c 128,-1,29
 796 749 796 749 739 764 c 128,-1,30
 682 779 682 779 627.5 763.5 c 128,-1,31
 573 748 573 748 531 706 c 2,32,-1
 256 430 l 1,33,-1
 256 188 l 1,34,-1
 653 585 l 2,35,36
 666 597 666 597 682.5 597 c 128,-1,37
 699 597 699 597 712 584 c 128,-1,38
 725 571 725 571 725 554.5 c 128,-1,39
 725 538 725 538 713 525 c 2,40,-1
 487 299 l 1,23,-1
643 213 m 1,41,-1
 402 213 l 1,42,-1
 316 128 l 1,43,-1
 558 128 l 1,44,-1
 643 213 l 1,41,-1
EndSplineSet
EndChar

StartChar: facebook
Encoding: 59500 59500 85
Width: 1024
GlyphClass: 2
Flags: W
LayerCount: 2
Fore
SplineSet
384 597 m 2,0,1
 387 706 387 706 459 778.5 c 128,-1,2
 531 851 531 851 640 853 c 2,3,-1
 768 853 l 2,4,5
 786 853 786 853 798 841 c 128,-1,6
 810 829 810 829 811 811 c 2,7,-1
 811 640 l 2,8,9
 810 622 810 622 798 610 c 128,-1,10
 786 598 786 598 768 597 c 2,11,-1
 640 597 l 1,12,-1
 640 512 l 1,13,-1
 768 512 l 2,14,15
 789 512 789 512 801.5 495.5 c 128,-1,16
 814 479 814 479 809 459 c 2,17,-1
 767 288 l 2,18,19
 763 274 763 274 751.5 265 c 128,-1,20
 740 256 740 256 725 256 c 2,21,-1
 640 256 l 1,22,-1
 640 -43 l 2,23,24
 640 -61 640 -61 627.5 -73 c 128,-1,25
 615 -85 615 -85 597 -85 c 2,26,-1
 427 -85 l 2,27,28
 409 -85 409 -85 396.5 -73 c 128,-1,29
 384 -61 384 -61 384 -43 c 2,30,-1
 384 256 l 1,31,-1
 299 256 l 2,32,33
 281 256 281 256 268.5 268.5 c 128,-1,34
 256 281 256 281 256 299 c 2,35,-1
 256 469 l 2,36,37
 256 487 256 487 268.5 499.5 c 128,-1,38
 281 512 281 512 299 512 c 2,39,-1
 384 512 l 1,40,-1
 384 597 l 2,0,1
725 768 m 1,41,-1
 640 768 l 2,42,43
 567 766 567 766 519 718 c 128,-1,44
 471 670 471 670 469 597 c 2,45,-1
 469 469 l 2,46,47
 469 451 469 451 457 439 c 128,-1,48
 445 427 445 427 427 427 c 2,49,-1
 341 427 l 1,50,-1
 341 341 l 1,51,-1
 427 341 l 2,52,53
 445 341 445 341 457 329 c 128,-1,54
 469 317 469 317 469 299 c 2,55,-1
 469 0 l 1,56,-1
 555 0 l 1,57,-1
 555 299 l 2,58,59
 555 317 555 317 567 329 c 128,-1,60
 579 341 579 341 597 341 c 2,61,-1
 692 341 l 1,62,-1
 713 427 l 1,63,-1
 597 427 l 2,64,65
 579 427 579 427 567 439 c 128,-1,66
 555 451 555 451 555 469 c 2,67,-1
 555 597 l 2,68,69
 555 632 555 632 580 657 c 128,-1,70
 605 682 605 682 640 683 c 2,71,-1
 725 683 l 1,72,-1
 725 768 l 1,41,-1
EndSplineSet
EndChar

StartChar: file-minus
Encoding: 59501 59501 86
Width: 1024
GlyphClass: 2
Flags: W
LayerCount: 2
Fore
SplineSet
555 768 m 1,0,-1
 256 768 l 2,1,2
 238 768 238 768 226 755.5 c 128,-1,3
 214 743 214 743 213 725 c 2,4,-1
 213 43 l 2,5,6
 214 25 214 25 226 12.5 c 128,-1,7
 238 0 238 0 256 0 c 2,8,-1
 768 0 l 2,9,10
 786 0 786 0 798 12.5 c 128,-1,11
 810 25 810 25 811 43 c 2,12,-1
 811 512 l 1,13,-1
 597 512 l 2,14,15
 579 512 579 512 567 524.5 c 128,-1,16
 555 537 555 537 555 555 c 2,17,-1
 555 768 l 1,0,-1
640 708 m 1,18,-1
 640 597 l 1,19,-1
 750 597 l 1,20,-1
 640 708 l 1,18,-1
597 853 m 2,21,22
 615 853 615 853 627 841 c 2,23,-1
 883 585 l 2,24,25
 896 572 896 572 896 555 c 2,26,-1
 896 43 l 2,27,28
 895 -12 895 -12 858.5 -48 c 128,-1,29
 822 -84 822 -84 768 -85 c 2,30,-1
 256 -85 l 2,31,32
 202 -84 202 -84 165.5 -48 c 128,-1,33
 129 -12 129 -12 128 43 c 2,34,-1
 128 725 l 2,35,36
 129 780 129 780 165.5 816 c 128,-1,37
 202 852 202 852 256 853 c 2,38,-1
 597 853 l 2,21,22
384 213 m 2,39,40
 366 214 366 214 354 226 c 128,-1,41
 342 238 342 238 342 256 c 128,-1,42
 342 274 342 274 354 286 c 128,-1,43
 366 298 366 298 384 299 c 2,44,-1
 640 299 l 2,45,46
 658 298 658 298 670 286 c 128,-1,47
 682 274 682 274 682 256 c 128,-1,48
 682 238 682 238 670 226 c 128,-1,49
 658 214 658 214 640 213 c 2,50,-1
 384 213 l 2,39,40
EndSplineSet
EndChar

StartChar: eye-off
Encoding: 59502 59502 87
Width: 1024
GlyphClass: 2
Flags: W
LayerCount: 2
Fore
SplineSet
285 603 m 0,0,1
 299 615 299 615 301 631.5 c 128,-1,2
 303 648 303 648 292 662.5 c 128,-1,3
 281 677 281 677 264.5 679.5 c 128,-1,4
 248 682 248 682 233 671 c 0,5,6
 162 617 162 617 105 549.5 c 128,-1,7
 48 482 48 482 6 404 c 0,8,9
 -4 384 -4 384 5 365 c 128,-1,10
 14 346 14 346 39 307 c 0,11,12
 79 244 79 244 135 184 c 0,13,14
 215 97 215 97 309.5 49 c 128,-1,15
 404 1 404 1 512 0 c 0,16,17
 588 1 588 1 659.5 25.5 c 128,-1,18
 731 50 731 50 791 97 c 0,19,20
 801 104 801 104 805.5 114 c 128,-1,21
 810 124 810 124 808.5 136 c 128,-1,22
 807 148 807 148 800 157 c 128,-1,23
 793 166 793 166 782.5 170.5 c 128,-1,24
 772 175 772 175 760.5 173.5 c 128,-1,25
 749 172 749 172 740 164 c 0,26,27
 690 127 690 127 632 106.5 c 128,-1,28
 574 86 574 86 512 85 c 0,29,30
 424 86 424 86 345 127 c 128,-1,31
 266 168 266 168 197 242 c 0,32,33
 136 307 136 307 92 384 c 1,34,35
 167 513 167 513 285 603 c 0,0,1
857 275 m 0,36,37
 845 261 845 261 846.5 244 c 128,-1,38
 848 227 848 227 862 215.5 c 128,-1,39
 876 204 876 204 893 205.5 c 128,-1,40
 910 207 910 207 922 220 c 0,41,42
 978 287 978 287 1019 364 c 0,43,44
 1029 383 1029 383 1019.5 402 c 128,-1,45
 1010 421 1010 421 986 460 c 0,46,47
 943 526 943 526 890 583 c 0,48,49
 809 670 809 670 714.5 718.5 c 128,-1,50
 620 767 620 767 512 768 c 0,51,52
 462 768 462 768 413 756 c 0,53,54
 395 752 395 752 386 737.5 c 128,-1,55
 377 723 377 723 381.5 705 c 128,-1,56
 386 687 386 687 400.5 678 c 128,-1,57
 415 669 415 669 432 673 c 0,58,59
 472 682 472 682 512 682 c 0,60,61
 600 682 600 682 679 641 c 128,-1,62
 758 600 758 600 828 525 c 0,63,64
 888 460 888 460 933 384 c 1,65,66
 899 326 899 326 857 275 c 0,36,37
571 322 m 0,67,68
 555 305 555 305 533 298.5 c 128,-1,69
 511 292 511 292 488 298 c 128,-1,70
 465 304 465 304 448.5 320 c 128,-1,71
 432 336 432 336 426 359 c 128,-1,72
 420 382 420 382 427 404.5 c 128,-1,73
 434 427 434 427 451 443 c 0,74,75
 464 456 464 456 464.5 473 c 128,-1,76
 465 490 465 490 452.5 503 c 128,-1,77
 440 516 440 516 423 516.5 c 128,-1,78
 406 517 406 517 393 505 c 0,79,80
 359 473 359 473 346 429 c 128,-1,81
 333 385 333 385 344.5 339 c 128,-1,82
 356 293 356 293 388.5 260.5 c 128,-1,83
 421 228 421 228 467 216 c 128,-1,84
 513 204 513 204 557 217 c 128,-1,85
 601 230 601 230 634 264 c 0,86,87
 646 278 646 278 645.5 295 c 128,-1,88
 645 312 645 312 631.5 324.5 c 128,-1,89
 618 337 618 337 601 336 c 128,-1,90
 584 335 584 335 571 322 c 0,67,68
13 823 m 2,91,-1
 951 -116 l 2,92,93
 964 -128 964 -128 981 -127.5 c 128,-1,94
 998 -127 998 -127 1010.5 -114.5 c 128,-1,95
 1023 -102 1023 -102 1023.5 -85 c 128,-1,96
 1024 -68 1024 -68 1012 -55 c 2,97,-1
 73 883 l 2,98,99
 65 891 65 891 54 894 c 128,-1,100
 43 897 43 897 32 894.5 c 128,-1,101
 21 892 21 892 12.5 883.5 c 128,-1,102
 4 875 4 875 1.5 864 c 128,-1,103
 -1 853 -1 853 2 842 c 128,-1,104
 5 831 5 831 13 823 c 2,91,-1
EndSplineSet
EndChar

StartChar: fast-forward
Encoding: 59503 59503 88
Width: 1024
GlyphClass: 2
Flags: W
LayerCount: 2
Fore
SplineSet
581 52 m 2,0,1
 571 44 571 44 559 43 c 128,-1,2
 547 42 547 42 536 47.5 c 128,-1,3
 525 53 525 53 518.5 63 c 128,-1,4
 512 73 512 73 512 85 c 2,5,-1
 512 683 l 2,6,7
 512 695 512 695 518.5 705 c 128,-1,8
 525 715 525 715 536 720.5 c 128,-1,9
 547 726 547 726 559 725 c 128,-1,10
 571 724 571 724 581 716 c 2,11,-1
 965 418 l 2,12,13
 981 405 981 405 981 384 c 128,-1,14
 981 363 981 363 965 350 c 2,15,-1
 581 52 l 2,0,1
869 384 m 1,16,-1
 597 595 l 1,17,-1
 597 173 l 1,18,-1
 869 384 l 1,16,-1
112 52 m 2,19,20
 102 44 102 44 90 43 c 128,-1,21
 78 42 78 42 66.5 47.5 c 128,-1,22
 55 53 55 53 49 63 c 128,-1,23
 43 73 43 73 43 85 c 2,24,-1
 43 683 l 2,25,26
 43 695 43 695 49 705 c 128,-1,27
 55 715 55 715 66.5 720.5 c 128,-1,28
 78 726 78 726 90 725 c 128,-1,29
 102 724 102 724 112 716 c 2,30,-1
 496 418 l 2,31,32
 512 405 512 405 512 384 c 128,-1,33
 512 363 512 363 496 350 c 2,34,-1
 112 52 l 2,19,20
400 384 m 1,35,-1
 128 595 l 1,36,-1
 128 173 l 1,37,-1
 400 384 l 1,35,-1
EndSplineSet
EndChar

StartChar: file-text
Encoding: 59504 59504 89
Width: 1024
GlyphClass: 2
Flags: W
LayerCount: 2
Fore
SplineSet
555 768 m 1,0,-1
 256 768 l 2,1,2
 238 768 238 768 226 755.5 c 128,-1,3
 214 743 214 743 213 725 c 2,4,-1
 213 43 l 2,5,6
 214 25 214 25 226 12.5 c 128,-1,7
 238 0 238 0 256 0 c 2,8,-1
 768 0 l 2,9,10
 786 0 786 0 798 12.5 c 128,-1,11
 810 25 810 25 811 43 c 2,12,-1
 811 512 l 1,13,-1
 597 512 l 2,14,15
 579 512 579 512 567 524.5 c 128,-1,16
 555 537 555 537 555 555 c 2,17,-1
 555 768 l 1,0,-1
640 708 m 1,18,-1
 640 597 l 1,19,-1
 750 597 l 1,20,-1
 640 708 l 1,18,-1
597 853 m 2,21,22
 615 853 615 853 627 841 c 2,23,-1
 883 585 l 2,24,25
 896 572 896 572 896 555 c 2,26,-1
 896 43 l 2,27,28
 895 -12 895 -12 858.5 -48 c 128,-1,29
 822 -84 822 -84 768 -85 c 2,30,-1
 256 -85 l 2,31,32
 202 -84 202 -84 165.5 -48 c 128,-1,33
 129 -12 129 -12 128 43 c 2,34,-1
 128 725 l 2,35,36
 129 780 129 780 165.5 816 c 128,-1,37
 202 852 202 852 256 853 c 2,38,-1
 597 853 l 2,21,22
683 384 m 2,39,40
 701 384 701 384 713 371.5 c 128,-1,41
 725 359 725 359 725 341 c 128,-1,42
 725 323 725 323 713 311 c 128,-1,43
 701 299 701 299 683 299 c 2,44,-1
 341 299 l 2,45,46
 323 299 323 299 311 311 c 128,-1,47
 299 323 299 323 299 341 c 128,-1,48
 299 359 299 359 311 371.5 c 128,-1,49
 323 384 323 384 341 384 c 2,50,-1
 683 384 l 2,39,40
683 213 m 2,51,52
 701 213 701 213 713 201 c 128,-1,53
 725 189 725 189 725 171 c 128,-1,54
 725 153 725 153 713 140.5 c 128,-1,55
 701 128 701 128 683 128 c 2,56,-1
 341 128 l 2,57,58
 323 128 323 128 311 140.5 c 128,-1,59
 299 153 299 153 299 171 c 128,-1,60
 299 189 299 189 311 201 c 128,-1,61
 323 213 323 213 341 213 c 2,62,-1
 683 213 l 2,51,52
427 555 m 2,63,64
 445 554 445 554 457 542 c 128,-1,65
 469 530 469 530 469 512 c 128,-1,66
 469 494 469 494 457 482 c 128,-1,67
 445 470 445 470 427 469 c 2,68,-1
 341 469 l 2,69,70
 330 469 330 469 320 475 c 128,-1,71
 310 481 310 481 304.5 491 c 128,-1,72
 299 501 299 501 299 512 c 128,-1,73
 299 523 299 523 304.5 533 c 128,-1,74
 310 543 310 543 320 549 c 128,-1,75
 330 555 330 555 341 555 c 2,76,-1
 427 555 l 2,63,64
EndSplineSet
EndChar

StartChar: film
Encoding: 59505 59505 90
Width: 1024
GlyphClass: 2
Flags: W
LayerCount: 2
Fore
SplineSet
43 718 m 2,0,1
 44 775 44 775 82.5 813.5 c 128,-1,2
 121 852 121 852 178 853 c 2,3,-1
 846 853 l 2,4,5
 903 852 903 852 941.5 813.5 c 128,-1,6
 980 775 980 775 981 718 c 2,7,-1
 981 50 l 2,8,9
 980 -7 980 -7 941.5 -45.5 c 128,-1,10
 903 -84 903 -84 846 -85 c 2,11,-1
 178 -85 l 2,12,13
 121 -84 121 -84 82.5 -45.5 c 128,-1,14
 44 -7 44 -7 43 50 c 2,15,-1
 43 718 l 2,0,1
341 768 m 1,16,-1
 341 427 l 1,17,-1
 683 427 l 1,18,-1
 683 768 l 1,19,-1
 341 768 l 1,16,-1
341 0 m 1,20,-1
 683 0 l 1,21,-1
 683 341 l 1,22,-1
 341 341 l 1,23,-1
 341 0 l 1,20,-1
896 427 m 1,24,-1
 896 555 l 1,25,-1
 768 555 l 1,26,-1
 768 427 l 1,27,-1
 896 427 l 1,24,-1
896 341 m 1,28,-1
 768 341 l 1,29,-1
 768 213 l 1,30,-1
 896 213 l 1,31,-1
 896 341 l 1,28,-1
128 341 m 1,32,-1
 128 213 l 1,33,-1
 256 213 l 1,34,-1
 256 341 l 1,35,-1
 128 341 l 1,32,-1
128 427 m 1,36,-1
 256 427 l 1,37,-1
 256 555 l 1,38,-1
 128 555 l 1,39,-1
 128 427 l 1,36,-1
768 768 m 1,40,-1
 768 640 l 1,41,-1
 896 640 l 1,42,-1
 896 718 l 2,43,44
 895 739 895 739 881 753 c 128,-1,45
 867 767 867 767 846 768 c 2,46,-1
 768 768 l 1,40,-1
896 128 m 1,47,-1
 768 128 l 1,48,-1
 768 0 l 1,49,-1
 846 0 l 2,50,51
 867 1 867 1 881 15 c 128,-1,52
 895 29 895 29 896 50 c 2,53,-1
 896 128 l 1,47,-1
256 768 m 1,54,-1
 178 768 l 2,55,56
 157 767 157 767 143 753 c 128,-1,57
 129 739 129 739 128 718 c 2,58,-1
 128 640 l 1,59,-1
 256 640 l 1,60,-1
 256 768 l 1,54,-1
256 0 m 1,61,-1
 256 128 l 1,62,-1
 128 128 l 1,63,-1
 128 50 l 2,64,65
 129 29 129 29 143 15 c 128,-1,66
 157 1 157 1 178 0 c 2,67,-1
 256 0 l 1,61,-1
EndSplineSet
EndChar

StartChar: file
Encoding: 59506 59506 91
Width: 1024
GlyphClass: 2
Flags: W
LayerCount: 2
Fore
SplineSet
555 853 m 2,0,1
 572 853 572 853 585 841 c 2,2,-1
 883 542 l 2,3,4
 896 530 896 530 896 512 c 2,5,-1
 896 43 l 2,6,7
 895 -12 895 -12 858.5 -48 c 128,-1,8
 822 -84 822 -84 768 -85 c 2,9,-1
 256 -85 l 2,10,11
 202 -84 202 -84 165.5 -48 c 128,-1,12
 129 -12 129 -12 128 43 c 2,13,-1
 128 725 l 2,14,15
 129 780 129 780 165.5 816 c 128,-1,16
 202 852 202 852 256 853 c 2,17,-1
 555 853 l 2,0,1
512 512 m 2,18,-1
 512 768 l 1,19,-1
 256 768 l 2,20,21
 238 768 238 768 226 755.5 c 128,-1,22
 214 743 214 743 213 725 c 2,23,-1
 213 43 l 2,24,25
 214 25 214 25 226 12.5 c 128,-1,26
 238 0 238 0 256 0 c 2,27,-1
 768 0 l 2,28,29
 786 0 786 0 798 12.5 c 128,-1,30
 810 25 810 25 811 43 c 2,31,-1
 811 469 l 1,32,-1
 555 469 l 2,33,34
 537 470 537 470 524.5 482 c 128,-1,35
 512 494 512 494 512 512 c 2,18,-1
597 708 m 1,36,-1
 597 555 l 1,37,-1
 750 555 l 1,38,-1
 597 708 l 1,36,-1
EndSplineSet
EndChar

StartChar: file-plus
Encoding: 59507 59507 92
Width: 1024
GlyphClass: 2
Flags: W
LayerCount: 2
Fore
SplineSet
555 768 m 1,0,-1
 256 768 l 2,1,2
 238 768 238 768 226 755.5 c 128,-1,3
 214 743 214 743 213 725 c 2,4,-1
 213 43 l 2,5,6
 214 25 214 25 226 12.5 c 128,-1,7
 238 0 238 0 256 0 c 2,8,-1
 768 0 l 2,9,10
 786 0 786 0 798 12.5 c 128,-1,11
 810 25 810 25 811 43 c 2,12,-1
 811 512 l 1,13,-1
 597 512 l 2,14,15
 579 512 579 512 567 524.5 c 128,-1,16
 555 537 555 537 555 555 c 2,17,-1
 555 768 l 1,0,-1
640 708 m 1,18,-1
 640 597 l 1,19,-1
 750 597 l 1,20,-1
 640 708 l 1,18,-1
597 853 m 2,21,22
 615 853 615 853 627 841 c 2,23,-1
 883 585 l 2,24,25
 896 572 896 572 896 555 c 2,26,-1
 896 43 l 2,27,28
 895 -12 895 -12 858.5 -48 c 128,-1,29
 822 -84 822 -84 768 -85 c 2,30,-1
 256 -85 l 2,31,32
 202 -84 202 -84 165.5 -48 c 128,-1,33
 129 -12 129 -12 128 43 c 2,34,-1
 128 725 l 2,35,36
 129 780 129 780 165.5 816 c 128,-1,37
 202 852 202 852 256 853 c 2,38,-1
 597 853 l 2,21,22
469 213 m 1,39,-1
 384 213 l 2,40,41
 366 214 366 214 354 226 c 128,-1,42
 342 238 342 238 342 256 c 128,-1,43
 342 274 342 274 354 286 c 128,-1,44
 366 298 366 298 384 299 c 2,45,-1
 469 299 l 1,46,-1
 469 384 l 2,47,48
 470 402 470 402 482 414 c 128,-1,49
 494 426 494 426 512 426 c 128,-1,50
 530 426 530 426 542 414 c 128,-1,51
 554 402 554 402 555 384 c 2,52,-1
 555 299 l 1,53,-1
 640 299 l 2,54,55
 658 298 658 298 670 286 c 128,-1,56
 682 274 682 274 682 256 c 128,-1,57
 682 238 682 238 670 226 c 128,-1,58
 658 214 658 214 640 213 c 2,59,-1
 555 213 l 1,60,-1
 555 128 l 2,61,62
 554 110 554 110 542 98 c 128,-1,63
 530 86 530 86 512 86 c 128,-1,64
 494 86 494 86 482 98 c 128,-1,65
 470 110 470 110 469 128 c 2,66,-1
 469 213 l 1,39,-1
EndSplineSet
EndChar

StartChar: folder
Encoding: 59508 59508 93
Width: 1024
GlyphClass: 2
Flags: W
LayerCount: 2
Fore
SplineSet
171 725 m 2,0,1
 153 725 153 725 140.5 713 c 128,-1,2
 128 701 128 701 128 683 c 2,3,-1
 128 85 l 2,4,5
 128 67 128 67 140.5 55 c 128,-1,6
 153 43 153 43 171 43 c 2,7,-1
 853 43 l 2,8,9
 871 43 871 43 883.5 55 c 128,-1,10
 896 67 896 67 896 85 c 2,11,-1
 896 555 l 2,12,13
 896 573 896 573 883.5 585 c 128,-1,14
 871 597 871 597 853 597 c 2,15,-1
 469 597 l 2,16,17
 447 598 447 598 434 616 c 2,18,-1
 361 725 l 1,19,-1
 171 725 l 2,0,1
853 683 m 2,20,21
 908 681 908 681 944 645 c 128,-1,22
 980 609 980 609 981 555 c 2,23,-1
 981 85 l 2,24,25
 980 31 980 31 944 -5 c 128,-1,26
 908 -41 908 -41 853 -43 c 2,27,-1
 171 -43 l 2,28,29
 116 -41 116 -41 80 -5 c 128,-1,30
 44 31 44 31 43 85 c 2,31,-1
 43 683 l 2,32,33
 44 737 44 737 80 773 c 128,-1,34
 116 809 116 809 171 811 c 2,35,-1
 384 811 l 2,36,37
 407 810 407 810 419 792 c 2,38,-1
 492 683 l 1,39,-1
 853 683 l 2,20,21
EndSplineSet
EndChar

StartChar: filter
Encoding: 59509 59509 94
Width: 1024
GlyphClass: 2
Flags: W
LayerCount: 2
Fore
SplineSet
384 349 m 1,0,-1
 53 740 l 2,1,2
 45 750 45 750 43 762 c 128,-1,3
 41 774 41 774 46.5 785.5 c 128,-1,4
 52 797 52 797 62.5 804 c 128,-1,5
 73 811 73 811 85 811 c 2,6,-1
 939 811 l 2,7,8
 951 811 951 811 961.5 804 c 128,-1,9
 972 797 972 797 977.5 785.5 c 128,-1,10
 983 774 983 774 981 762 c 128,-1,11
 979 750 979 750 971 740 c 2,12,-1
 640 349 l 1,13,-1
 640 0 l 2,14,15
 639 -23 639 -23 619 -35.5 c 128,-1,16
 599 -48 599 -48 578 -38 c 2,17,-1
 408 47 l 2,18,19
 397 53 397 53 390.5 63 c 128,-1,20
 384 73 384 73 384 85 c 2,21,-1
 384 349 l 1,0,-1
177 725 m 1,22,-1
 459 392 l 2,23,24
 469 380 469 380 469 364 c 2,25,-1
 469 112 l 1,26,-1
 555 69 l 1,27,-1
 555 364 l 2,28,29
 555 380 555 380 565 392 c 2,30,-1
 847 725 l 1,31,-1
 177 725 l 1,22,-1
EndSplineSet
EndChar

StartChar: flag
Encoding: 59510 59510 95
Width: 1024
GlyphClass: 2
Flags: W
LayerCount: 2
Fore
SplineSet
128 -43 m 2,0,-1
 128 768 l 2,1,2
 128 786 128 786 141 798 c 0,3,4
 154 813 154 813 192 829 c 0,5,6
 250 853 250 853 341 853 c 0,7,8
 385 854 385 854 425.5 843.5 c 128,-1,9
 466 833 466 833 528 808 c 0,10,11
 583 785 583 785 616.5 776.5 c 128,-1,12
 650 768 650 768 683 768 c 0,13,14
 758 769 758 769 800 786 c 0,15,16
 822 796 822 796 823 798 c 0,17,18
 845 817 845 817 869.5 807 c 128,-1,19
 894 797 894 797 896 768 c 2,20,-1
 896 256 l 2,21,22
 896 238 896 238 883 226 c 0,23,24
 870 211 870 211 832 195 c 0,25,26
 774 171 774 171 683 171 c 0,27,28
 639 170 639 170 598.5 180.5 c 128,-1,29
 558 191 558 191 496 216 c 0,30,31
 441 239 441 239 407.5 247.5 c 128,-1,32
 374 256 374 256 341 256 c 0,33,34
 266 255 266 255 224 238 c 2,35,-1
 213 233 l 1,36,-1
 213 -43 l 2,37,38
 213 -61 213 -61 201 -73 c 128,-1,39
 189 -85 189 -85 171 -85 c 128,-1,40
 153 -85 153 -85 140.5 -73 c 128,-1,41
 128 -61 128 -61 128 -43 c 2,0,-1
341 341 m 0,42,43
 385 342 385 342 425.5 331.5 c 128,-1,44
 466 321 466 321 528 296 c 0,45,46
 583 273 583 273 616.5 264.5 c 128,-1,47
 650 256 650 256 683 256 c 0,48,49
 758 257 758 257 800 274 c 2,50,-1
 811 279 l 1,51,-1
 811 700 l 1,52,53
 758 683 758 683 683 683 c 0,54,55
 639 682 639 682 598.5 692.5 c 128,-1,56
 558 703 558 703 496 728 c 0,57,58
 441 751 441 751 407.5 759.5 c 128,-1,59
 374 768 374 768 341 768 c 0,60,61
 266 767 266 767 224 750 c 2,62,-1
 213 745 l 1,63,-1
 213 324 l 1,64,65
 266 341 266 341 341 341 c 0,42,43
EndSplineSet
EndChar

StartChar: globe
Encoding: 59511 59511 96
Width: 1024
GlyphClass: 2
Flags: W
LayerCount: 2
Fore
SplineSet
512 -85 m 1,0,1
 313 -80 313 -80 180.5 52.5 c 128,-1,2
 48 185 48 185 43 384 c 1,3,4
 48 583 48 583 180.5 715.5 c 128,-1,5
 313 848 313 848 512 853 c 1,6,7
 711 848 711 848 843.5 715.5 c 128,-1,8
 976 583 976 583 981 384 c 1,9,10
 976 185 976 185 843.5 52.5 c 128,-1,11
 711 -80 711 -80 512 -85 c 1,0,1
723 341 m 1,12,13
 716 253 716 253 687 169.5 c 128,-1,14
 658 86 658 86 609 12 c 1,15,16
 726 45 726 45 802.5 133 c 128,-1,17
 879 221 879 221 894 341 c 1,18,-1
 723 341 l 1,12,13
301 341 m 1,19,-1
 130 341 l 1,20,21
 145 221 145 221 221.5 133 c 128,-1,22
 298 45 298 45 415 12 c 1,23,24
 366 86 366 86 337 169.5 c 128,-1,25
 308 253 308 253 301 341 c 1,19,-1
609 756 m 1,26,27
 658 682 658 682 687 598.5 c 128,-1,28
 716 515 716 515 723 427 c 1,29,-1
 894 427 l 1,30,31
 879 547 879 547 802.5 635 c 128,-1,32
 726 723 726 723 609 756 c 1,26,27
415 756 m 1,33,34
 298 723 298 723 221.5 635 c 128,-1,35
 145 547 145 547 130 427 c 1,36,-1
 301 427 l 1,37,38
 308 515 308 515 337 598.5 c 128,-1,39
 366 682 366 682 415 756 c 1,33,34
386 341 m 1,40,41
 395 254 395 254 426.5 173.5 c 128,-1,42
 458 93 458 93 512 23 c 1,43,44
 566 93 566 93 597.5 173.5 c 128,-1,45
 629 254 629 254 638 341 c 1,46,-1
 386 341 l 1,40,41
638 427 m 1,47,48
 629 514 629 514 597.5 594.5 c 128,-1,49
 566 675 566 675 512 745 c 1,50,51
 458 675 458 675 426.5 594.5 c 128,-1,52
 395 514 395 514 386 427 c 1,53,-1
 638 427 l 1,47,48
EndSplineSet
EndChar

StartChar: grid
Encoding: 59512 59512 97
Width: 1024
GlyphClass: 2
Flags: W
LayerCount: 2
Fore
SplineSet
171 512 m 1,0,-1
 384 512 l 1,1,-1
 384 725 l 1,2,-1
 171 725 l 1,3,-1
 171 512 l 1,0,-1
128 811 m 2,4,-1
 427 811 l 2,5,6
 445 810 445 810 457 798 c 128,-1,7
 469 786 469 786 469 768 c 2,8,-1
 469 469 l 2,9,10
 469 451 469 451 457 439 c 128,-1,11
 445 427 445 427 427 427 c 2,12,-1
 128 427 l 2,13,14
 110 427 110 427 98 439 c 128,-1,15
 86 451 86 451 85 469 c 2,16,-1
 85 768 l 2,17,18
 86 786 86 786 98 798 c 128,-1,19
 110 810 110 810 128 811 c 2,4,-1
640 512 m 1,20,-1
 853 512 l 1,21,-1
 853 725 l 1,22,-1
 640 725 l 1,23,-1
 640 512 l 1,20,-1
597 811 m 2,24,-1
 896 811 l 2,25,26
 914 810 914 810 926 798 c 128,-1,27
 938 786 938 786 939 768 c 2,28,-1
 939 469 l 2,29,30
 938 451 938 451 926 439 c 128,-1,31
 914 427 914 427 896 427 c 2,32,-1
 597 427 l 2,33,34
 579 427 579 427 567 439 c 128,-1,35
 555 451 555 451 555 469 c 2,36,-1
 555 768 l 2,37,38
 555 786 555 786 567 798 c 128,-1,39
 579 810 579 810 597 811 c 2,24,-1
640 43 m 1,40,-1
 853 43 l 1,41,-1
 853 256 l 1,42,-1
 640 256 l 1,43,-1
 640 43 l 1,40,-1
597 341 m 2,44,-1
 896 341 l 2,45,46
 914 341 914 341 926 329 c 128,-1,47
 938 317 938 317 939 299 c 2,48,-1
 939 0 l 2,49,50
 938 -18 938 -18 926 -30 c 128,-1,51
 914 -42 914 -42 896 -43 c 2,52,-1
 597 -43 l 2,53,54
 579 -42 579 -42 567 -30 c 128,-1,55
 555 -18 555 -18 555 0 c 2,56,-1
 555 299 l 2,57,58
 555 317 555 317 567 329 c 128,-1,59
 579 341 579 341 597 341 c 2,44,-1
171 43 m 1,60,-1
 384 43 l 1,61,-1
 384 256 l 1,62,-1
 171 256 l 1,63,-1
 171 43 l 1,60,-1
128 341 m 2,64,-1
 427 341 l 2,65,66
 445 341 445 341 457 329 c 128,-1,67
 469 317 469 317 469 299 c 2,68,-1
 469 0 l 2,69,70
 469 -18 469 -18 457 -30 c 128,-1,71
 445 -42 445 -42 427 -43 c 2,72,-1
 128 -43 l 2,73,74
 110 -42 110 -42 98 -30 c 128,-1,75
 86 -18 86 -18 85 0 c 2,76,-1
 85 299 l 2,77,78
 86 317 86 317 98 329 c 128,-1,79
 110 341 110 341 128 341 c 2,64,-1
EndSplineSet
EndChar

StartChar: heart
Encoding: 59513 59513 98
Width: 1024
GlyphClass: 2
Flags: W
LayerCount: 2
Fore
SplineSet
527 729 m 2,0,1
 588 789 588 789 669 805.5 c 128,-1,2
 750 822 750 822 829 789 c 128,-1,3
 908 756 908 756 954 687.5 c 128,-1,4
 1000 619 1000 619 1001 533 c 0,5,6
 1000 478 1000 478 979.5 427.5 c 128,-1,7
 959 377 959 377 919 337 c 2,8,-1
 542 -40 l 2,9,10
 529 -52 529 -52 512 -52 c 128,-1,11
 495 -52 495 -52 482 -40 c 2,12,-1
 105 337 l 2,13,14
 23 423 23 423 23 533.5 c 128,-1,15
 23 644 23 644 105 729 c 1,16,17
 190 811 190 811 300.5 811 c 128,-1,18
 411 811 411 811 497 729 c 2,19,-1
 512 714 l 1,20,-1
 527 729 l 2,0,1
814 352 m 1,21,-1
 859 398 l 2,22,23
 901 440 901 440 912 496 c 128,-1,24
 923 552 923 552 900 606.5 c 128,-1,25
 877 661 877 661 830 693 c 128,-1,26
 783 725 783 725 723 725 c 0,27,28
 685 725 685 725 650 710.5 c 128,-1,29
 615 696 615 696 587 669 c 2,30,-1
 542 624 l 2,31,32
 529 611 529 611 512 611 c 128,-1,33
 495 611 495 611 482 624 c 2,34,-1
 437 669 l 2,35,36
 377 725 377 725 300.5 725 c 128,-1,37
 224 725 224 725 165 669 c 1,38,39
 109 610 109 610 109 533.5 c 128,-1,40
 109 457 109 457 165 398 c 2,41,-1
 512 51 l 1,42,-1
 814 352 l 1,21,-1
EndSplineSet
EndChar

StartChar: home
Encoding: 59514 59514 99
Width: 1024
GlyphClass: 2
Flags: W
LayerCount: 2
Fore
SplineSet
102 546 m 2,0,-1
 486 844 l 2,1,2
 498 853 498 853 512 853 c 128,-1,3
 526 853 526 853 538 844 c 2,4,-1
 922 546 l 2,5,6
 938 533 938 533 939 512 c 2,7,-1
 939 43 l 2,8,9
 937 -12 937 -12 901 -48 c 128,-1,10
 865 -84 865 -84 811 -85 c 2,11,-1
 213 -85 l 2,12,13
 159 -84 159 -84 123 -48 c 128,-1,14
 87 -12 87 -12 85 43 c 2,15,-1
 85 512 l 2,16,17
 86 533 86 533 102 546 c 2,0,-1
683 0 m 1,18,-1
 811 0 l 2,19,20
 829 0 829 0 841 12.5 c 128,-1,21
 853 25 853 25 853 43 c 2,22,-1
 853 491 l 1,23,-1
 512 757 l 1,24,-1
 171 491 l 1,25,-1
 171 43 l 2,26,27
 171 25 171 25 183 12.5 c 128,-1,28
 195 0 195 0 213 0 c 2,29,-1
 341 0 l 1,30,-1
 341 384 l 2,31,32
 342 402 342 402 354 414 c 128,-1,33
 366 426 366 426 384 427 c 2,34,-1
 640 427 l 2,35,36
 658 426 658 426 670 414 c 128,-1,37
 682 402 682 402 683 384 c 2,38,-1
 683 0 l 1,18,-1
427 0 m 1,39,-1
 597 0 l 1,40,-1
 597 341 l 1,41,-1
 427 341 l 1,42,-1
 427 0 l 1,39,-1
EndSplineSet
EndChar

StartChar: github
Encoding: 59515 59515 100
Width: 1024
GlyphClass: 2
Flags: W
LayerCount: 2
Fore
SplineSet
372 84 m 0,0,1
 305 63 305 63 267 74 c 128,-1,2
 229 85 229 85 197 127 c 2,3,-1
 178 152 l 2,4,5
 158 177 158 177 139 191.5 c 128,-1,6
 120 206 120 206 96 212 c 0,7,8
 78 216 78 216 63.5 207 c 128,-1,9
 49 198 49 198 44.5 180.5 c 128,-1,10
 40 163 40 163 49 148.5 c 128,-1,11
 58 134 58 134 75 129 c 0,12,13
 82 128 82 128 90.5 120.5 c 128,-1,14
 99 113 99 113 111 98 c 2,15,-1
 131 74 l 2,16,17
 179 12 179 12 240.5 -7.5 c 128,-1,18
 302 -27 302 -27 396 2 c 0,19,20
 413 7 413 7 421.5 22 c 128,-1,21
 430 37 430 37 424.5 54.5 c 128,-1,22
 419 72 419 72 404 80 c 128,-1,23
 389 88 389 88 372 84 c 0,0,1
960 490 m 0,24,25
 960 536 960 536 945 579.5 c 128,-1,26
 930 623 930 623 901 660 c 1,27,28
 912 702 912 702 909 744.5 c 128,-1,29
 906 787 906 787 889 827 c 0,30,31
 881 846 881 846 862 852 c 0,32,33
 857 853 857 853 853 853 c 0,34,35
 823 858 823 858 778.5 844.5 c 128,-1,36
 734 831 734 831 675 793 c 1,37,38
 605 810 605 810 533.5 810 c 128,-1,39
 462 810 462 810 392 793 c 1,40,41
 333 831 333 831 288.5 844.5 c 128,-1,42
 244 858 244 858 214 853 c 0,43,44
 209 853 209 853 205 852 c 0,45,46
 186 846 186 846 178 827 c 0,47,48
 161 787 161 787 158 744.5 c 128,-1,49
 155 702 155 702 166 660 c 1,50,51
 137 623 137 623 122 579 c 128,-1,52
 107 535 107 535 107 488 c 0,53,54
 107 342 107 342 170.5 263.5 c 128,-1,55
 234 185 234 185 354 159 c 1,56,57
 339 119 339 119 341 77 c 2,58,-1
 341 -85 l 2,59,60
 342 -103 342 -103 354 -115.5 c 128,-1,61
 366 -128 366 -128 384 -128 c 128,-1,62
 402 -128 402 -128 414 -115.5 c 128,-1,63
 426 -103 426 -103 427 -85 c 2,64,-1
 427 80 l 2,65,66
 424 128 424 128 455 160 c 0,67,68
 463 169 463 169 465.5 180.5 c 128,-1,69
 468 192 468 192 464 204 c 128,-1,70
 460 216 460 216 451 223.5 c 128,-1,71
 442 231 442 231 429 232 c 0,72,73
 308 245 308 245 250 303 c 128,-1,74
 192 361 192 361 192 489 c 0,75,76
 192 526 192 526 205.5 559.5 c 128,-1,77
 219 593 219 593 244 620 c 0,78,79
 253 629 253 629 255.5 641 c 128,-1,80
 258 653 258 653 253 665 c 0,81,82
 235 715 235 715 247 767 c 1,83,-1
 257 764 l 2,84,85
 298 753 298 753 360 712 c 0,86,87
 376 702 376 702 395 706 c 0,88,89
 463 725 463 725 533 725 c 128,-1,90
 603 725 603 725 671 706 c 0,91,92
 690 702 690 702 706 712 c 0,93,94
 768 753 768 753 809 764 c 2,95,-1
 819 767 l 1,96,97
 832 715 832 715 813 665 c 0,98,99
 809 653 809 653 811.5 641 c 128,-1,100
 814 629 814 629 822 620 c 0,101,102
 848 594 848 594 861.5 560.5 c 128,-1,103
 875 527 875 527 875 490 c 0,104,105
 875 361 875 361 816.5 303 c 128,-1,106
 758 245 758 245 638 234 c 0,107,108
 626 232 626 232 616.5 224.5 c 128,-1,109
 607 217 607 217 602.5 205.5 c 128,-1,110
 598 194 598 194 600.5 182 c 128,-1,111
 603 170 603 170 612 161 c 0,112,113
 627 146 627 146 634.5 125.5 c 128,-1,114
 642 105 642 105 640 83 c 2,115,-1
 640 -85 l 2,116,117
 640 -103 640 -103 652.5 -115.5 c 128,-1,118
 665 -128 665 -128 683 -128 c 128,-1,119
 701 -128 701 -128 713 -115.5 c 128,-1,120
 725 -103 725 -103 725 -85 c 2,121,-1
 725 80 l 2,122,123
 728 121 728 121 713 159 c 1,124,125
 833 185 833 185 896 263.5 c 128,-1,126
 959 342 959 342 960 490 c 0,24,25
EndSplineSet
EndChar

StartChar: image
Encoding: 59516 59516 101
Width: 1024
GlyphClass: 2
Flags: W
LayerCount: 2
Fore
SplineSet
213 -43 m 1,0,-1
 213 -43 l 1,1,2
 159 -41 159 -41 123 -5 c 128,-1,3
 87 31 87 31 85 85 c 2,4,-1
 85 683 l 2,5,6
 87 737 87 737 123 773 c 128,-1,7
 159 809 159 809 213 811 c 2,8,-1
 811 811 l 2,9,10
 865 809 865 809 901 773 c 128,-1,11
 937 737 937 737 939 683 c 2,12,-1
 939 85 l 2,13,14
 937 31 937 31 901 -5 c 128,-1,15
 865 -41 865 -41 811 -43 c 2,16,-1
 213 -43 l 1,0,-1
853 359 m 1,17,-1
 853 683 l 2,18,19
 853 700 853 700 840.5 712.5 c 128,-1,20
 828 725 828 725 811 725 c 2,21,-1
 213 725 l 2,22,23
 196 725 196 725 183.5 712.5 c 128,-1,24
 171 700 171 700 171 683 c 2,25,-1
 171 85 l 2,26,27
 171 71 171 71 178.5 60.5 c 128,-1,28
 186 50 186 50 198 45 c 1,29,-1
 653 499 l 2,30,31
 666 512 666 512 683 512 c 128,-1,32
 700 512 700 512 713 499 c 2,33,-1
 853 359 l 1,17,-1
853 238 m 1,34,-1
 683 409 l 1,35,-1
 316 43 l 1,36,-1
 811 43 l 2,37,38
 829 43 829 43 841 55 c 128,-1,39
 853 67 853 67 853 85 c 2,40,-1
 853 238 l 1,34,-1
363 427 m 0,41,42
 334 427 334 427 309.5 441 c 128,-1,43
 285 455 285 455 270.5 480 c 128,-1,44
 256 505 256 505 256 533 c 128,-1,45
 256 561 256 561 270.5 586.5 c 128,-1,46
 285 612 285 612 309.5 626 c 128,-1,47
 334 640 334 640 363 640 c 0,48,49
 408 639 408 639 438 609 c 128,-1,50
 468 579 468 579 469 533 c 0,51,52
 468 488 468 488 438 458 c 128,-1,53
 408 428 408 428 363 427 c 0,41,42
363 512 m 256,54,55
 372 512 372 512 378 518 c 128,-1,56
 384 524 384 524 384 533 c 128,-1,57
 384 542 384 542 378 548 c 128,-1,58
 372 554 372 554 363 554 c 128,-1,59
 354 554 354 554 348 548 c 128,-1,60
 342 542 342 542 342 533 c 128,-1,61
 342 524 342 524 348 518 c 128,-1,62
 354 512 354 512 363 512 c 256,54,55
EndSplineSet
EndChar

StartChar: inbox
Encoding: 59517 59517 102
Width: 1024
GlyphClass: 2
Flags: W
LayerCount: 2
Fore
SplineSet
311 768 m 2,0,-1
 713 768 l 2,1,2
 751 768 751 768 782.5 747.5 c 128,-1,3
 814 727 814 727 830 692 c 2,4,-1
 978 359 l 2,5,6
 981 350 981 350 981 341 c 2,7,-1
 981 128 l 2,8,9
 980 74 980 74 944 37.5 c 128,-1,10
 908 1 908 1 853 0 c 2,11,-1
 171 0 l 2,12,13
 116 1 116 1 80 37.5 c 128,-1,14
 44 74 44 74 43 128 c 2,15,-1
 43 341 l 2,16,17
 43 350 43 350 46 359 c 2,18,-1
 194 692 l 2,19,20
 210 727 210 727 241.5 747.5 c 128,-1,21
 273 768 273 768 311 768 c 2,0,-1
873 384 m 1,22,-1
 752 657 l 2,23,24
 746 669 746 669 735.5 676 c 128,-1,25
 725 683 725 683 713 683 c 2,26,-1
 311 683 l 2,27,28
 299 683 299 683 288.5 676 c 128,-1,29
 278 669 278 669 272 657 c 2,30,-1
 151 384 l 1,31,-1
 341 384 l 2,32,33
 364 383 364 383 377 365 c 2,34,-1
 449 256 l 1,35,-1
 575 256 l 1,36,-1
 647 365 l 2,37,38
 660 383 660 383 683 384 c 2,39,-1
 873 384 l 1,22,-1
896 128 m 2,40,-1
 896 299 l 1,41,-1
 705 299 l 1,42,-1
 633 190 l 2,43,44
 620 171 620 171 597 171 c 2,45,-1
 427 171 l 2,46,47
 404 171 404 171 391 190 c 2,48,-1
 319 299 l 1,49,-1
 128 299 l 1,50,-1
 128 128 l 2,51,52
 128 110 128 110 140.5 98 c 128,-1,53
 153 86 153 86 171 85 c 2,54,-1
 853 85 l 2,55,56
 871 86 871 86 883.5 98 c 128,-1,57
 896 110 896 110 896 128 c 2,40,-1
EndSplineSet
EndChar

StartChar: layers
Encoding: 59518 59518 103
Width: 1024
GlyphClass: 2
Flags: W
LayerCount: 2
Fore
SplineSet
493 849 m 2,0,1
 512 858 512 858 531 849 c 2,2,-1
 958 635 l 2,3,4
 969 630 969 630 975 620 c 128,-1,5
 981 610 981 610 981 597.5 c 128,-1,6
 981 585 981 585 975 575 c 128,-1,7
 969 565 969 565 958 559 c 2,8,-1
 531 346 l 2,9,10
 512 337 512 337 493 346 c 2,11,-1
 66 559 l 2,12,13
 55 565 55 565 49 575 c 128,-1,14
 43 585 43 585 43 597.5 c 128,-1,15
 43 610 43 610 49 620 c 128,-1,16
 55 630 55 630 66 635 c 2,17,-1
 493 849 l 2,0,1
181 597 m 1,18,-1
 512 432 l 1,19,-1
 843 597 l 1,20,-1
 512 763 l 1,21,-1
 181 597 l 1,18,-1
104 209 m 2,22,23
 88 216 88 216 72.5 210.5 c 128,-1,24
 57 205 57 205 49 189 c 128,-1,25
 41 173 41 173 46 157 c 128,-1,26
 51 141 51 141 66 133 c 2,27,-1
 493 -81 l 2,28,29
 512 -90 512 -90 531 -81 c 2,30,-1
 958 133 l 2,31,32
 973 141 973 141 978 157 c 128,-1,33
 983 173 983 173 975 189 c 128,-1,34
 967 205 967 205 951.5 210.5 c 128,-1,35
 936 216 936 216 920 209 c 2,36,-1
 512 5 l 1,37,-1
 104 209 l 2,22,23
104 422 m 2,38,39
 88 429 88 429 72.5 423.5 c 128,-1,40
 57 418 57 418 49 402 c 128,-1,41
 41 386 41 386 46 370.5 c 128,-1,42
 51 355 51 355 66 346 c 2,43,-1
 493 133 l 2,44,45
 512 124 512 124 531 133 c 2,46,-1
 958 346 l 2,47,48
 973 355 973 355 978 370.5 c 128,-1,49
 983 386 983 386 975 402 c 128,-1,50
 967 418 967 418 951.5 423.5 c 128,-1,51
 936 429 936 429 920 422 c 2,52,-1
 512 218 l 1,53,-1
 104 422 l 2,38,39
EndSplineSet
EndChar

StartChar: info
Encoding: 59519 59519 104
Width: 1024
GlyphClass: 2
Flags: W
LayerCount: 2
Fore
SplineSet
512 -85 m 1,0,1
 313 -80 313 -80 180.5 52.5 c 128,-1,2
 48 185 48 185 43 384 c 1,3,4
 48 583 48 583 180.5 715.5 c 128,-1,5
 313 848 313 848 512 853 c 1,6,7
 711 848 711 848 843.5 715.5 c 128,-1,8
 976 583 976 583 981 384 c 1,9,10
 976 185 976 185 843.5 52.5 c 128,-1,11
 711 -80 711 -80 512 -85 c 1,0,1
512 0 m 1,12,13
 675 4 675 4 783.5 112.5 c 128,-1,14
 892 221 892 221 896 384 c 1,15,16
 892 547 892 547 783.5 655.5 c 128,-1,17
 675 764 675 764 512 768 c 1,18,19
 349 764 349 764 240.5 655.5 c 128,-1,20
 132 547 132 547 128 384 c 1,21,22
 132 221 132 221 240.5 112.5 c 128,-1,23
 349 4 349 4 512 0 c 1,12,13
555 213 m 1,24,-1
 555 384 l 2,25,26
 554 402 554 402 542 414 c 128,-1,27
 530 426 530 426 512 426 c 128,-1,28
 494 426 494 426 482 414 c 128,-1,29
 470 402 470 402 469 384 c 2,30,-1
 469 213 l 2,31,32
 470 195 470 195 482 183 c 128,-1,33
 494 171 494 171 512 171 c 128,-1,34
 530 171 530 171 542 183 c 128,-1,35
 554 195 554 195 555 213 c 1,24,-1
512 555 m 1024,36,-1
469 555 m 0,37,38
 469 543 469 543 475 533.5 c 128,-1,39
 481 524 481 524 491 518 c 128,-1,40
 501 512 501 512 512 512 c 128,-1,41
 523 512 523 512 533 518 c 128,-1,42
 543 524 543 524 549 533.5 c 128,-1,43
 555 543 555 543 555 554.5 c 128,-1,44
 555 566 555 566 549 576 c 128,-1,45
 543 586 543 586 533 591.5 c 128,-1,46
 523 597 523 597 512 597 c 128,-1,47
 501 597 501 597 491 591.5 c 128,-1,48
 481 586 481 586 475 576 c 128,-1,49
 469 566 469 566 469 555 c 0,37,38
EndSplineSet
EndChar

StartChar: instagram
Encoding: 59520 59520 105
Width: 1024
GlyphClass: 2
Flags: W
LayerCount: 2
Fore
SplineSet
128 598 m 2,0,-1
 128 170 l 2,1,2
 130 98 130 98 178 50 c 128,-1,3
 226 2 226 2 298 0 c 2,4,-1
 726 0 l 2,5,6
 798 2 798 2 846 50 c 128,-1,7
 894 98 894 98 896 170 c 2,8,-1
 896 598 l 2,9,10
 896 632 896 632 883 663 c 128,-1,11
 870 694 870 694 846 718 c 128,-1,12
 822 742 822 742 791 755 c 128,-1,13
 760 768 760 768 726 768 c 2,14,-1
 298 768 l 2,15,16
 264 768 264 768 233 755 c 128,-1,17
 202 742 202 742 178 718 c 128,-1,18
 154 694 154 694 141 663 c 128,-1,19
 128 632 128 632 128 598 c 2,0,-1
43 598 m 2,20,21
 45 706 45 706 117.5 778.5 c 128,-1,22
 190 851 190 851 298 853 c 2,23,-1
 726 853 l 2,24,25
 834 851 834 851 906.5 778.5 c 128,-1,26
 979 706 979 706 981 598 c 2,27,-1
 981 170 l 2,28,29
 979 62 979 62 906.5 -10.5 c 128,-1,30
 834 -83 834 -83 726 -85 c 2,31,-1
 298 -85 l 2,32,33
 190 -83 190 -83 117.5 -10.5 c 128,-1,34
 45 62 45 62 43 170 c 2,35,-1
 43 598 l 2,20,21
640 405 m 0,36,37
 636 440 636 440 615 467 c 128,-1,38
 594 494 594 494 561 507 c 128,-1,39
 528 520 528 520 494.5 515 c 128,-1,40
 461 510 461 510 433.5 488 c 128,-1,41
 406 466 406 466 394 434 c 128,-1,42
 382 402 382 402 387 367 c 0,43,44
 397 314 397 314 438 283.5 c 128,-1,45
 479 253 479 253 533 260 c 0,46,47
 586 269 586 269 616.5 310 c 128,-1,48
 647 351 647 351 640 405 c 0,36,37
725 417 m 1,49,50
 736 327 736 327 685 258.5 c 128,-1,51
 634 190 634 190 545 175 c 1,52,53
 455 164 455 164 386.5 214.5 c 128,-1,54
 318 265 318 265 303 355 c 0,55,56
 292 445 292 445 342.5 513 c 128,-1,57
 393 581 393 581 483 597 c 1,58,59
 573 608 573 608 641 557 c 128,-1,60
 709 506 709 506 725 417 c 1,49,50
725 640 m 1024,61,-1
683 640 m 256,62,63
 683 628 683 628 688.5 618.5 c 128,-1,64
 694 609 694 609 704 603 c 128,-1,65
 714 597 714 597 725.5 597 c 128,-1,66
 737 597 737 597 747 603 c 128,-1,67
 757 609 757 609 762.5 618.5 c 128,-1,68
 768 628 768 628 768 640 c 128,-1,69
 768 652 768 652 762.5 661.5 c 128,-1,70
 757 671 757 671 747 677 c 128,-1,71
 737 683 737 683 725.5 683 c 128,-1,72
 714 683 714 683 704 677 c 128,-1,73
 694 671 694 671 688.5 661.5 c 128,-1,74
 683 652 683 652 683 640 c 256,62,63
EndSplineSet
EndChar

StartChar: layout
Encoding: 59521 59521 106
Width: 1024
GlyphClass: 2
Flags: W
LayerCount: 2
Fore
SplineSet
85 683 m 2,0,1
 87 737 87 737 123 773 c 128,-1,2
 159 809 159 809 213 811 c 2,3,-1
 811 811 l 2,4,5
 865 809 865 809 901 773 c 128,-1,6
 937 737 937 737 939 683 c 2,7,-1
 939 85 l 2,8,9
 937 31 937 31 901 -5 c 128,-1,10
 865 -41 865 -41 811 -43 c 2,11,-1
 213 -43 l 2,12,13
 159 -41 159 -41 123 -5 c 128,-1,14
 87 31 87 31 85 85 c 2,15,-1
 85 683 l 2,0,1
853 555 m 1,16,-1
 853 683 l 2,17,18
 853 700 853 700 840.5 712.5 c 128,-1,19
 828 725 828 725 811 725 c 2,20,-1
 213 725 l 2,21,22
 196 725 196 725 183.5 712.5 c 128,-1,23
 171 700 171 700 171 683 c 2,24,-1
 171 555 l 1,25,-1
 853 555 l 1,16,-1
853 469 m 1,26,-1
 427 469 l 1,27,-1
 427 43 l 1,28,-1
 811 43 l 2,29,30
 829 43 829 43 841 55 c 128,-1,31
 853 67 853 67 853 85 c 2,32,-1
 853 469 l 1,26,-1
341 43 m 1,33,-1
 341 469 l 1,34,-1
 171 469 l 1,35,-1
 171 85 l 2,36,37
 171 67 171 67 183 55 c 128,-1,38
 195 43 195 43 213 43 c 2,39,-1
 341 43 l 1,33,-1
EndSplineSet
EndChar

StartChar: link-
Encoding: 59522 59522 107
Width: 1024
GlyphClass: 2
Flags: W
LayerCount: 2
Fore
SplineSet
640 555 m 2,0,-1
 768 555 l 2,1,2
 841 553 841 553 889 505 c 128,-1,3
 937 457 937 457 939 384 c 0,4,5
 937 311 937 311 889 263 c 128,-1,6
 841 215 841 215 768 213 c 2,7,-1
 640 213 l 2,8,9
 622 213 622 213 610 201 c 128,-1,10
 598 189 598 189 598 171 c 128,-1,11
 598 153 598 153 610 140.5 c 128,-1,12
 622 128 622 128 640 128 c 2,13,-1
 768 128 l 2,14,15
 877 131 877 131 949 203 c 128,-1,16
 1021 275 1021 275 1024 384 c 1,17,18
 1021 493 1021 493 949 565 c 128,-1,19
 877 637 877 637 768 640 c 2,20,-1
 640 640 l 2,21,22
 622 640 622 640 610 627.5 c 128,-1,23
 598 615 598 615 598 597 c 128,-1,24
 598 579 598 579 610 567 c 128,-1,25
 622 555 622 555 640 555 c 2,0,-1
384 213 m 2,26,-1
 256 213 l 2,27,28
 183 215 183 215 135 263 c 128,-1,29
 87 311 87 311 85 384 c 0,30,31
 87 457 87 457 135 505 c 128,-1,32
 183 553 183 553 256 555 c 2,33,-1
 384 555 l 2,34,35
 396 555 396 555 405.5 560.5 c 128,-1,36
 415 566 415 566 421 576 c 128,-1,37
 427 586 427 586 427 597.5 c 128,-1,38
 427 609 427 609 421 619 c 128,-1,39
 415 629 415 629 405.5 634.5 c 128,-1,40
 396 640 396 640 384 640 c 2,41,-1
 256 640 l 2,42,43
 147 637 147 637 75 565 c 128,-1,44
 3 493 3 493 0 384 c 1,45,46
 3 275 3 275 75 203 c 128,-1,47
 147 131 147 131 256 128 c 2,48,-1
 384 128 l 2,49,50
 402 128 402 128 414 140.5 c 128,-1,51
 426 153 426 153 426 171 c 128,-1,52
 426 189 426 189 414 201 c 128,-1,53
 402 213 402 213 384 213 c 2,26,-1
341 341 m 2,54,-1
 683 341 l 2,55,56
 701 342 701 342 713 354 c 128,-1,57
 725 366 725 366 725 384 c 128,-1,58
 725 402 725 402 713 414 c 128,-1,59
 701 426 701 426 683 427 c 2,60,-1
 341 427 l 2,61,62
 323 426 323 426 311 414 c 128,-1,63
 299 402 299 402 299 384 c 128,-1,64
 299 366 299 366 311 354 c 128,-1,65
 323 342 323 342 341 341 c 2,54,-1
EndSplineSet
EndChar

StartChar: life-buoy
Encoding: 59523 59523 108
Width: 1024
GlyphClass: 2
Flags: W
LayerCount: 2
Fore
SplineSet
272 84 m 1,0,1
 324 43 324 43 385 21.5 c 128,-1,2
 446 0 446 0 512 0 c 128,-1,3
 578 0 578 0 639 21.5 c 128,-1,4
 700 43 700 43 752 84 c 1,5,-1
 630 206 l 1,6,7
 576 171 576 171 512 171 c 128,-1,8
 448 171 448 171 394 206 c 1,9,-1
 272 84 l 1,0,1
212 144 m 1,10,-1
 334 266 l 1,11,12
 299 320 299 320 299 384 c 0,13,14
 300 450 300 450 334 502 c 1,15,-1
 212 624 l 1,16,17
 171 572 171 572 149.5 511 c 128,-1,18
 128 450 128 450 128 384 c 0,19,20
 128 316 128 316 150 255 c 128,-1,21
 172 194 172 194 212 144 c 1,10,-1
272 684 m 1,22,-1
 394 562 l 1,23,24
 448 597 448 597 512 597 c 0,25,26
 578 596 578 596 630 562 c 1,27,-1
 752 684 l 1,28,29
 700 725 700 725 639 746.5 c 128,-1,30
 578 768 578 768 512 768 c 128,-1,31
 446 768 446 768 385 746.5 c 128,-1,32
 324 725 324 725 272 684 c 1,22,-1
812 624 m 1,33,-1
 690 502 l 1,34,35
 724 450 724 450 724 384 c 128,-1,36
 724 318 724 318 690 266 c 1,37,-1
 812 144 l 1,38,39
 853 196 853 196 874.5 257 c 128,-1,40
 896 318 896 318 896 384 c 128,-1,41
 896 450 896 450 874.5 511 c 128,-1,42
 853 572 853 572 812 624 c 1,33,-1
512 -85 m 1,43,44
 313 -80 313 -80 180.5 52.5 c 128,-1,45
 48 185 48 185 43 384 c 1,46,47
 48 583 48 583 180.5 715.5 c 128,-1,48
 313 848 313 848 512 853 c 1,49,50
 711 848 711 848 843.5 715.5 c 128,-1,51
 976 583 976 583 981 384 c 1,52,53
 976 185 976 185 843.5 52.5 c 128,-1,54
 711 -80 711 -80 512 -85 c 1,43,44
512 256 m 0,55,56
 566 257 566 257 602.5 293.5 c 128,-1,57
 639 330 639 330 640 384 c 0,58,59
 639 438 639 438 602.5 474.5 c 128,-1,60
 566 511 566 511 512 512 c 0,61,62
 458 511 458 511 421.5 474.5 c 128,-1,63
 385 438 385 438 384 384 c 0,64,65
 385 330 385 330 421.5 293.5 c 128,-1,66
 458 257 458 257 512 256 c 0,55,56
EndSplineSet
EndChar

StartChar: link
Encoding: 59524 59524 109
Width: 1024
GlyphClass: 2
Flags: W
LayerCount: 2
Fore
SplineSet
393 316 m 1,0,1
 426 271 426 271 474.5 244.5 c 128,-1,2
 523 218 523 218 579 214 c 128,-1,3
 635 210 635 210 687 229.5 c 128,-1,4
 739 249 739 249 779 288 c 2,5,-1
 907 416 l 2,6,7
 957 465 957 465 975.5 531 c 128,-1,8
 994 597 994 597 976 665 c 128,-1,9
 958 733 958 733 910 781.5 c 128,-1,10
 862 830 862 830 794 847.5 c 128,-1,11
 726 865 726 865 660 847 c 128,-1,12
 594 829 594 829 545 779 c 2,13,-1
 471 705 l 2,14,15
 463 697 463 697 460 686 c 128,-1,16
 457 675 457 675 460 663.5 c 128,-1,17
 463 652 463 652 471 644 c 128,-1,18
 479 636 479 636 490 633 c 128,-1,19
 501 630 501 630 512 633 c 128,-1,20
 523 636 523 636 531 645 c 2,21,-1
 605 718 l 2,22,23
 658 766 658 766 725 765.5 c 128,-1,24
 792 765 792 765 844 715 c 0,25,26
 893 663 893 663 893.5 596 c 128,-1,27
 894 529 894 529 846 476 c 2,28,-1
 718 348 l 2,29,30
 692 322 692 322 657.5 309 c 128,-1,31
 623 296 623 296 585.5 299 c 128,-1,32
 548 302 548 302 515.5 319.5 c 128,-1,33
 483 337 483 337 461 367 c 0,34,35
 450 381 450 381 433 383.5 c 128,-1,36
 416 386 416 386 401.5 375 c 128,-1,37
 387 364 387 364 384.5 347.5 c 128,-1,38
 382 331 382 331 392 316 c 1,39,-1
 393 316 l 1,0,1
631 452 m 1,40,41
 598 497 598 497 549.5 523.5 c 128,-1,42
 501 550 501 550 445 554 c 128,-1,43
 389 558 389 558 337 538.5 c 128,-1,44
 285 519 285 519 245 480 c 2,45,-1
 117 352 l 2,46,47
 67 303 67 303 48.5 237 c 128,-1,48
 30 171 30 171 48 103 c 128,-1,49
 66 35 66 35 114 -13.5 c 128,-1,50
 162 -62 162 -62 230 -79.5 c 128,-1,51
 298 -97 298 -97 364 -79 c 128,-1,52
 430 -61 430 -61 479 -11 c 2,53,-1
 552 63 l 2,54,55
 565 76 565 76 564.5 93 c 128,-1,56
 564 110 564 110 551.5 122.5 c 128,-1,57
 539 135 539 135 522 135 c 128,-1,58
 505 135 505 135 492 123 c 2,59,-1
 419 50 l 2,60,61
 367 2 367 2 299.5 2.5 c 128,-1,62
 232 3 232 3 180 53 c 0,63,64
 131 105 131 105 130.5 172 c 128,-1,65
 130 239 130 239 178 292 c 2,66,-1
 306 420 l 2,67,68
 332 446 332 446 366.5 459 c 128,-1,69
 401 472 401 472 438.5 469 c 128,-1,70
 476 466 476 466 508.5 448.5 c 128,-1,71
 541 431 541 431 563 401 c 0,72,73
 574 387 574 387 591 384.5 c 128,-1,74
 608 382 608 382 622.5 393 c 128,-1,75
 637 404 637 404 639.5 420.5 c 128,-1,76
 642 437 642 437 632 452 c 1,77,-1
 631 452 l 1,40,41
EndSplineSet
EndChar

StartChar: log-in
Encoding: 59525 59525 110
Width: 1024
GlyphClass: 2
Flags: W
LayerCount: 2
Fore
SplineSet
597 -85 m 2,0,-1
 811 -85 l 2,1,2
 865 -84 865 -84 901 -48 c 128,-1,3
 937 -12 937 -12 939 43 c 2,4,-1
 939 725 l 2,5,6
 937 780 937 780 901 816 c 128,-1,7
 865 852 865 852 811 853 c 2,8,-1
 597 853 l 2,9,10
 579 853 579 853 567 841 c 128,-1,11
 555 829 555 829 555 811 c 128,-1,12
 555 793 555 793 567 780.5 c 128,-1,13
 579 768 579 768 597 768 c 2,14,-1
 811 768 l 2,15,16
 829 768 829 768 841 755.5 c 128,-1,17
 853 743 853 743 853 725 c 2,18,-1
 853 43 l 2,19,20
 853 25 853 25 841 12.5 c 128,-1,21
 829 0 829 0 811 0 c 2,22,-1
 597 0 l 2,23,24
 579 0 579 0 567 -12.5 c 128,-1,25
 555 -25 555 -25 555 -43 c 128,-1,26
 555 -61 555 -61 567 -73 c 128,-1,27
 579 -85 579 -85 597 -85 c 2,0,-1
439 243 m 2,28,29
 427 230 427 230 427 213.5 c 128,-1,30
 427 197 427 197 440 184 c 128,-1,31
 453 171 453 171 469.5 171 c 128,-1,32
 486 171 486 171 499 183 c 2,33,-1
 670 354 l 2,34,35
 683 367 683 367 683 384 c 128,-1,36
 683 401 683 401 670 414 c 2,37,-1
 499 585 l 2,38,39
 486 597 486 597 469.5 597 c 128,-1,40
 453 597 453 597 440 584 c 128,-1,41
 427 571 427 571 427 554.5 c 128,-1,42
 427 538 427 538 439 525 c 2,43,-1
 580 384 l 1,44,-1
 439 243 l 2,28,29
640 427 m 2,45,-1
 128 427 l 2,46,47
 110 426 110 426 98 414 c 128,-1,48
 86 402 86 402 86 384 c 128,-1,49
 86 366 86 366 98 354 c 128,-1,50
 110 342 110 342 128 341 c 2,51,-1
 640 341 l 2,52,53
 658 342 658 342 670 354 c 128,-1,54
 682 366 682 366 682 384 c 128,-1,55
 682 402 682 402 670 414 c 128,-1,56
 658 426 658 426 640 427 c 2,45,-1
EndSplineSet
EndChar

StartChar: list
Encoding: 59526 59526 111
Width: 1024
GlyphClass: 2
Flags: W
LayerCount: 2
Fore
SplineSet
341 597 m 2,0,-1
 896 597 l 2,1,2
 914 598 914 598 926 610 c 128,-1,3
 938 622 938 622 938 640 c 128,-1,4
 938 658 938 658 926 670 c 128,-1,5
 914 682 914 682 896 683 c 2,6,-1
 341 683 l 2,7,8
 323 682 323 682 311 670 c 128,-1,9
 299 658 299 658 299 640 c 128,-1,10
 299 622 299 622 311 610 c 128,-1,11
 323 598 323 598 341 597 c 2,0,-1
341 341 m 2,12,-1
 896 341 l 2,13,14
 914 342 914 342 926 354 c 128,-1,15
 938 366 938 366 938 384 c 128,-1,16
 938 402 938 402 926 414 c 128,-1,17
 914 426 914 426 896 427 c 2,18,-1
 341 427 l 2,19,20
 323 426 323 426 311 414 c 128,-1,21
 299 402 299 402 299 384 c 128,-1,22
 299 366 299 366 311 354 c 128,-1,23
 323 342 323 342 341 341 c 2,12,-1
341 85 m 1,24,-1
 896 85 l 2,25,26
 914 86 914 86 926 98 c 128,-1,27
 938 110 938 110 938 128 c 128,-1,28
 938 146 938 146 926 158 c 128,-1,29
 914 170 914 170 896 171 c 2,30,-1
 341 171 l 2,31,32
 323 170 323 170 311 158 c 128,-1,33
 299 146 299 146 299 128 c 128,-1,34
 299 110 299 110 311 98 c 128,-1,35
 323 86 323 86 341 85 c 1,24,-1
128 640 m 1024,36,-1
85 640 m 0,37,38
 86 622 86 622 98 610 c 128,-1,39
 110 598 110 598 128 598 c 128,-1,40
 146 598 146 598 158 610 c 128,-1,41
 170 622 170 622 170 640 c 128,-1,42
 170 658 170 658 158 670 c 128,-1,43
 146 682 146 682 128 682 c 128,-1,44
 110 682 110 682 98 670 c 128,-1,45
 86 658 86 658 85 640 c 0,37,38
128 384 m 1024,46,-1
85 384 m 0,47,48
 86 366 86 366 98 354 c 128,-1,49
 110 342 110 342 128 342 c 128,-1,50
 146 342 146 342 158 354 c 128,-1,51
 170 366 170 366 170 384 c 128,-1,52
 170 402 170 402 158 414 c 128,-1,53
 146 426 146 426 128 426 c 128,-1,54
 110 426 110 426 98 414 c 128,-1,55
 86 402 86 402 85 384 c 0,47,48
128 128 m 1024,56,-1
85 128 m 0,57,58
 86 110 86 110 98 98 c 128,-1,59
 110 86 110 86 128 86 c 128,-1,60
 146 86 146 86 158 98 c 128,-1,61
 170 110 170 110 170 128 c 128,-1,62
 170 146 170 146 158 158 c 128,-1,63
 146 170 146 170 128 170 c 128,-1,64
 110 170 110 170 98 158 c 128,-1,65
 86 146 86 146 85 128 c 0,57,58
EndSplineSet
EndChar

StartChar: lock
Encoding: 59527 59527 112
Width: 1024
GlyphClass: 2
Flags: W
LayerCount: 2
Fore
SplineSet
256 469 m 1,0,-1
 256 597 l 2,1,2
 259 706 259 706 331 778.5 c 128,-1,3
 403 851 403 851 512 853 c 0,4,5
 621 851 621 851 693 778.5 c 128,-1,6
 765 706 765 706 768 597 c 2,7,-1
 768 469 l 1,8,-1
 811 469 l 2,9,10
 865 468 865 468 901 432 c 128,-1,11
 937 396 937 396 939 342 c 2,12,-1
 939 42 l 2,13,14
 939 17 939 17 929 -6.5 c 128,-1,15
 919 -30 919 -30 901 -48 c 128,-1,16
 883 -66 883 -66 860 -75.5 c 128,-1,17
 837 -85 837 -85 811 -85 c 2,18,-1
 213 -85 l 2,19,20
 159 -84 159 -84 123 -48 c 128,-1,21
 87 -12 87 -12 85 42 c 2,22,-1
 85 342 l 2,23,24
 85 367 85 367 95 390.5 c 128,-1,25
 105 414 105 414 123 432 c 128,-1,26
 141 450 141 450 164 459.5 c 128,-1,27
 187 469 187 469 213 469 c 2,28,-1
 256 469 l 1,0,-1
171 342 m 2,29,-1
 171 42 l 2,30,31
 171 24 171 24 183 12 c 128,-1,32
 195 0 195 0 213 0 c 2,33,-1
 811 0 l 2,34,35
 829 0 829 0 841 12 c 128,-1,36
 853 24 853 24 853 42 c 2,37,-1
 853 342 l 2,38,39
 853 360 853 360 841 371.5 c 128,-1,40
 829 383 829 383 811 384 c 2,41,-1
 213 384 l 2,42,43
 196 384 196 384 183.5 371.5 c 128,-1,44
 171 359 171 359 171 342 c 2,29,-1
341 469 m 1,45,-1
 683 469 l 1,46,-1
 683 597 l 2,47,48
 681 670 681 670 633 718 c 128,-1,49
 585 766 585 766 512 768 c 0,50,51
 439 766 439 766 391 718 c 128,-1,52
 343 670 343 670 341 597 c 2,53,-1
 341 469 l 1,45,-1
EndSplineSet
EndChar

StartChar: log-out
Encoding: 59528 59528 113
Width: 1024
GlyphClass: 2
Flags: W
LayerCount: 2
Fore
SplineSet
427 0 m 2,0,-1
 213 0 l 2,1,2
 195 0 195 0 183 12.5 c 128,-1,3
 171 25 171 25 171 43 c 2,4,-1
 171 725 l 2,5,6
 171 743 171 743 183 755.5 c 128,-1,7
 195 768 195 768 213 768 c 2,8,-1
 427 768 l 2,9,10
 445 768 445 768 457 780.5 c 128,-1,11
 469 793 469 793 469 811 c 128,-1,12
 469 829 469 829 457 841 c 128,-1,13
 445 853 445 853 427 853 c 2,14,-1
 213 853 l 2,15,16
 159 852 159 852 123 816 c 128,-1,17
 87 780 87 780 85 725 c 2,18,-1
 85 43 l 2,19,20
 87 -12 87 -12 123 -48 c 128,-1,21
 159 -84 159 -84 213 -85 c 2,22,-1
 427 -85 l 2,23,24
 445 -85 445 -85 457 -73 c 128,-1,25
 469 -61 469 -61 469 -43 c 128,-1,26
 469 -25 469 -25 457 -12.5 c 128,-1,27
 445 0 445 0 427 0 c 2,0,-1
695 243 m 2,28,29
 683 230 683 230 683 213.5 c 128,-1,30
 683 197 683 197 696 184 c 128,-1,31
 709 171 709 171 725.5 171 c 128,-1,32
 742 171 742 171 755 183 c 2,33,-1
 926 354 l 2,34,35
 939 367 939 367 939 384 c 128,-1,36
 939 401 939 401 926 414 c 2,37,-1
 755 585 l 2,38,39
 742 597 742 597 725.5 597 c 128,-1,40
 709 597 709 597 696 584 c 128,-1,41
 683 571 683 571 683 554.5 c 128,-1,42
 683 538 683 538 695 525 c 2,43,-1
 836 384 l 1,44,-1
 695 243 l 2,28,29
896 427 m 2,45,-1
 384 427 l 2,46,47
 366 426 366 426 354 414 c 128,-1,48
 342 402 342 402 342 384 c 128,-1,49
 342 366 342 366 354 354 c 128,-1,50
 366 342 366 342 384 341 c 2,51,-1
 896 341 l 2,52,53
 914 342 914 342 926 354 c 128,-1,54
 938 366 938 366 938 384 c 128,-1,55
 938 402 938 402 926 414 c 128,-1,56
 914 426 914 426 896 427 c 2,45,-1
EndSplineSet
EndChar

StartChar: loader
Encoding: 59529 59529 114
Width: 1024
GlyphClass: 2
Flags: W
LayerCount: 2
Fore
SplineSet
469 811 m 2,0,-1
 469 640 l 2,1,2
 470 622 470 622 482 610 c 128,-1,3
 494 598 494 598 512 598 c 128,-1,4
 530 598 530 598 542 610 c 128,-1,5
 554 622 554 622 555 640 c 2,6,-1
 555 811 l 2,7,8
 554 829 554 829 542 841 c 128,-1,9
 530 853 530 853 512 853 c 128,-1,10
 494 853 494 853 482 841 c 128,-1,11
 470 829 470 829 469 811 c 2,0,-1
469 128 m 2,12,-1
 469 -43 l 2,13,14
 470 -61 470 -61 482 -73 c 128,-1,15
 494 -85 494 -85 512 -85 c 128,-1,16
 530 -85 530 -85 542 -73 c 128,-1,17
 554 -61 554 -61 555 -43 c 2,18,-1
 555 128 l 2,19,20
 554 146 554 146 542 158 c 128,-1,21
 530 170 530 170 512 170 c 128,-1,22
 494 170 494 170 482 158 c 128,-1,23
 470 146 470 146 469 128 c 2,12,-1
180 655 m 2,24,-1
 301 535 l 2,25,26
 314 523 314 523 331 523 c 128,-1,27
 348 523 348 523 360.5 535.5 c 128,-1,28
 373 548 373 548 373 565 c 128,-1,29
 373 582 373 582 361 595 c 2,30,-1
 241 716 l 2,31,32
 227 728 227 728 210.5 728 c 128,-1,33
 194 728 194 728 181 715 c 128,-1,34
 168 702 168 702 168 685.5 c 128,-1,35
 168 669 168 669 180 655 c 2,24,-1
663 173 m 2,36,-1
 783 52 l 2,37,38
 797 40 797 40 813.5 40 c 128,-1,39
 830 40 830 40 843 53 c 128,-1,40
 856 66 856 66 856 82.5 c 128,-1,41
 856 99 856 99 844 113 c 2,42,-1
 723 233 l 2,43,44
 710 245 710 245 693 245 c 128,-1,45
 676 245 676 245 663.5 232.5 c 128,-1,46
 651 220 651 220 651 203 c 128,-1,47
 651 186 651 186 663 173 c 2,36,-1
85 341 m 2,48,-1
 256 341 l 2,49,50
 274 342 274 342 286 354 c 128,-1,51
 298 366 298 366 298 384 c 128,-1,52
 298 402 298 402 286 414 c 128,-1,53
 274 426 274 426 256 427 c 2,54,-1
 85 427 l 2,55,56
 67 426 67 426 55 414 c 128,-1,57
 43 402 43 402 43 384 c 128,-1,58
 43 366 43 366 55 354 c 128,-1,59
 67 342 67 342 85 341 c 2,48,-1
768 341 m 2,60,-1
 939 341 l 2,61,62
 957 342 957 342 969 354 c 128,-1,63
 981 366 981 366 981 384 c 128,-1,64
 981 402 981 402 969 414 c 128,-1,65
 957 426 957 426 939 427 c 2,66,-1
 768 427 l 2,67,68
 750 426 750 426 738 414 c 128,-1,69
 726 402 726 402 726 384 c 128,-1,70
 726 366 726 366 738 354 c 128,-1,71
 750 342 750 342 768 341 c 2,60,-1
241 52 m 2,72,-1
 361 173 l 2,73,74
 373 186 373 186 373 203 c 128,-1,75
 373 220 373 220 360.5 232.5 c 128,-1,76
 348 245 348 245 331 245 c 128,-1,77
 314 245 314 245 301 233 c 2,78,-1
 180 113 l 2,79,80
 168 99 168 99 168 82.5 c 128,-1,81
 168 66 168 66 181 53 c 128,-1,82
 194 40 194 40 210.5 40 c 128,-1,83
 227 40 227 40 241 52 c 2,72,-1
723 535 m 2,84,-1
 844 655 l 2,85,86
 852 664 852 664 855 675 c 128,-1,87
 858 686 858 686 855 697 c 128,-1,88
 852 708 852 708 844 716 c 128,-1,89
 836 724 836 724 825 727 c 128,-1,90
 814 730 814 730 803 727 c 128,-1,91
 792 724 792 724 783 716 c 2,92,-1
 663 595 l 2,93,94
 654 587 654 587 651 576 c 128,-1,95
 648 565 648 565 651 553.5 c 128,-1,96
 654 542 654 542 662 534 c 128,-1,97
 670 526 670 526 681.5 523 c 128,-1,98
 693 520 693 520 704 523 c 128,-1,99
 715 526 715 526 723 535 c 2,84,-1
EndSplineSet
EndChar

StartChar: mail
Encoding: 59530 59530 115
Width: 1024
GlyphClass: 2
Flags: W
LayerCount: 2
Fore
SplineSet
171 768 m 2,0,-1
 853 768 l 2,1,2
 908 767 908 767 944 730.5 c 128,-1,3
 980 694 980 694 981 640 c 2,4,-1
 981 128 l 2,5,6
 980 74 980 74 944 37.5 c 128,-1,7
 908 1 908 1 853 0 c 2,8,-1
 171 0 l 2,9,10
 116 1 116 1 80 37.5 c 128,-1,11
 44 74 44 74 43 128 c 2,12,-1
 43 640 l 2,13,14
 44 694 44 694 80 730.5 c 128,-1,15
 116 767 116 767 171 768 c 2,0,-1
891 659 m 1,16,17
 886 670 886 670 876 676 c 128,-1,18
 866 682 866 682 853 683 c 2,19,-1
 171 683 l 2,20,21
 158 682 158 682 148 676 c 128,-1,22
 138 670 138 670 133 659 c 1,23,-1
 512 393 l 1,24,-1
 891 659 l 1,16,17
896 558 m 1,25,-1
 536 306 l 2,26,27
 525 299 525 299 512 299 c 128,-1,28
 499 299 499 299 488 306 c 2,29,-1
 128 558 l 1,30,-1
 128 128 l 2,31,32
 128 110 128 110 140.5 98 c 128,-1,33
 153 86 153 86 171 85 c 2,34,-1
 853 85 l 2,35,36
 871 86 871 86 883.5 98 c 128,-1,37
 896 110 896 110 896 128 c 2,38,-1
 896 558 l 1,25,-1
EndSplineSet
EndChar

StartChar: maximize-
Encoding: 59531 59531 116
Width: 1024
GlyphClass: 2
Flags: W
LayerCount: 2
Fore
SplineSet
853 725 m 1,0,-1
 853 512 l 2,1,2
 854 494 854 494 866 482 c 128,-1,3
 878 470 878 470 896 470 c 128,-1,4
 914 470 914 470 926 482 c 128,-1,5
 938 494 938 494 939 512 c 2,6,-1
 939 768 l 2,7,8
 938 786 938 786 926 798 c 128,-1,9
 914 810 914 810 896 811 c 2,10,-1
 640 811 l 2,11,12
 622 810 622 810 610 798 c 128,-1,13
 598 786 598 786 598 768 c 128,-1,14
 598 750 598 750 610 738 c 128,-1,15
 622 726 622 726 640 725 c 2,16,-1
 853 725 l 1,0,-1
171 256 m 2,17,18
 170 274 170 274 158 286 c 128,-1,19
 146 298 146 298 128 298 c 128,-1,20
 110 298 110 298 98 286 c 128,-1,21
 86 274 86 274 85 256 c 2,22,-1
 85 0 l 2,23,24
 86 -18 86 -18 98 -30 c 128,-1,25
 110 -42 110 -42 128 -43 c 2,26,-1
 384 -43 l 2,27,28
 402 -42 402 -42 414 -30 c 128,-1,29
 426 -18 426 -18 426 0 c 128,-1,30
 426 18 426 18 414 30 c 128,-1,31
 402 42 402 42 384 43 c 2,32,-1
 171 43 l 1,33,-1
 171 256 l 2,17,18
866 798 m 2,34,-1
 567 499 l 2,35,36
 559 491 559 491 556 480 c 128,-1,37
 553 469 553 469 556 458 c 128,-1,38
 559 447 559 447 567 439 c 128,-1,39
 575 431 575 431 586 428 c 128,-1,40
 597 425 597 425 608 428 c 128,-1,41
 619 431 619 431 627 439 c 2,42,-1
 926 738 l 2,43,44
 935 746 935 746 938 757 c 128,-1,45
 941 768 941 768 938 779.5 c 128,-1,46
 935 791 935 791 927 799 c 128,-1,47
 919 807 919 807 907.5 810 c 128,-1,48
 896 813 896 813 885 810 c 128,-1,49
 874 807 874 807 866 798 c 2,34,-1
158 -30 m 2,50,-1
 457 269 l 2,51,52
 469 282 469 282 469 298.5 c 128,-1,53
 469 315 469 315 456 328 c 128,-1,54
 443 341 443 341 426.5 341 c 128,-1,55
 410 341 410 341 397 329 c 2,56,-1
 98 30 l 2,57,58
 86 17 86 17 86 0 c 128,-1,59
 86 -17 86 -17 98.5 -29.5 c 128,-1,60
 111 -42 111 -42 128 -42 c 128,-1,61
 145 -42 145 -42 158 -30 c 2,50,-1
EndSplineSet
EndChar

StartChar: map
Encoding: 59532 59532 117
Width: 1024
GlyphClass: 2
Flags: W
LayerCount: 2
Fore
SplineSet
640 614 m 1,0,-1
 384 742 l 1,1,-1
 384 154 l 1,2,-1
 640 26 l 1,3,-1
 640 614 l 1,0,-1
725 615 m 1,4,-1
 725 31 l 1,5,-1
 939 153 l 1,6,-1
 939 737 l 1,7,-1
 725 615 l 1,4,-1
320 847 m 2,8,9
 340 859 340 859 361 848 c 2,10,-1
 681 688 l 1,11,-1
 960 848 l 2,12,13
 970 853 970 853 981.5 853 c 128,-1,14
 993 853 993 853 1003 847.5 c 128,-1,15
 1013 842 1013 842 1018.5 832 c 128,-1,16
 1024 822 1024 822 1024 811 c 2,17,-1
 1024 128 l 2,18,19
 1024 116 1024 116 1018.5 106.5 c 128,-1,20
 1013 97 1013 97 1002 91 c 2,21,-1
 704 -80 l 2,22,23
 684 -90 684 -90 664 -81 c 2,24,-1
 343 80 l 1,25,-1
 64 -80 l 2,26,27
 54 -85 54 -85 42.5 -85 c 128,-1,28
 31 -85 31 -85 21 -79.5 c 128,-1,29
 11 -74 11 -74 5.5 -64 c 128,-1,30
 0 -54 0 -54 0 -43 c 2,31,-1
 0 640 l 2,32,33
 0 652 0 652 5.5 661.5 c 128,-1,34
 11 671 11 671 22 677 c 2,35,-1
 320 847 l 2,8,9
299 737 m 1,36,-1
 85 615 l 1,37,-1
 85 31 l 1,38,-1
 299 153 l 1,39,-1
 299 737 l 1,36,-1
EndSplineSet
EndChar

StartChar: minimize
Encoding: 59533 59533 118
Width: 1024
GlyphClass: 2
Flags: W
LayerCount: 2
Fore
SplineSet
299 768 m 2,0,-1
 299 640 l 2,1,2
 298 622 298 622 286 610 c 128,-1,3
 274 598 274 598 256 597 c 2,4,-1
 128 597 l 2,5,6
 116 597 116 597 106.5 591.5 c 128,-1,7
 97 586 97 586 91 576 c 128,-1,8
 85 566 85 566 85 554.5 c 128,-1,9
 85 543 85 543 91 533 c 128,-1,10
 97 523 97 523 106.5 517.5 c 128,-1,11
 116 512 116 512 128 512 c 2,12,-1
 256 512 l 2,13,14
 310 513 310 513 346.5 549.5 c 128,-1,15
 383 586 383 586 384 640 c 2,16,-1
 384 768 l 2,17,18
 384 780 384 780 378.5 789.5 c 128,-1,19
 373 799 373 799 363 805 c 128,-1,20
 353 811 353 811 341.5 811 c 128,-1,21
 330 811 330 811 320 805 c 128,-1,22
 310 799 310 799 304.5 789.5 c 128,-1,23
 299 780 299 780 299 768 c 2,0,-1
896 597 m 2,24,-1
 768 597 l 2,25,26
 750 598 750 598 738 610 c 128,-1,27
 726 622 726 622 725 640 c 2,28,-1
 725 768 l 2,29,30
 725 786 725 786 713 798 c 128,-1,31
 701 810 701 810 683 810 c 128,-1,32
 665 810 665 810 652.5 798 c 128,-1,33
 640 786 640 786 640 768 c 2,34,-1
 640 640 l 2,35,36
 641 586 641 586 677.5 549.5 c 128,-1,37
 714 513 714 513 768 512 c 2,38,-1
 896 512 l 2,39,40
 914 512 914 512 926 524.5 c 128,-1,41
 938 537 938 537 938 555 c 128,-1,42
 938 573 938 573 926 585 c 128,-1,43
 914 597 914 597 896 597 c 2,24,-1
725 0 m 2,44,-1
 725 128 l 2,45,46
 726 146 726 146 738 158 c 128,-1,47
 750 170 750 170 768 171 c 2,48,-1
 896 171 l 2,49,50
 914 171 914 171 926 183 c 128,-1,51
 938 195 938 195 938 213 c 128,-1,52
 938 231 938 231 926 243.5 c 128,-1,53
 914 256 914 256 896 256 c 2,54,-1
 768 256 l 2,55,56
 714 255 714 255 677.5 218.5 c 128,-1,57
 641 182 641 182 640 128 c 2,58,-1
 640 0 l 2,59,60
 640 -18 640 -18 652.5 -30 c 128,-1,61
 665 -42 665 -42 683 -42 c 128,-1,62
 701 -42 701 -42 713 -30 c 128,-1,63
 725 -18 725 -18 725 0 c 2,44,-1
128 171 m 2,64,-1
 256 171 l 2,65,66
 274 170 274 170 286 158 c 128,-1,67
 298 146 298 146 299 128 c 2,68,-1
 299 0 l 2,69,70
 299 -18 299 -18 311 -30 c 128,-1,71
 323 -42 323 -42 341 -42 c 128,-1,72
 359 -42 359 -42 371.5 -30 c 128,-1,73
 384 -18 384 -18 384 0 c 2,74,-1
 384 128 l 2,75,76
 383 182 383 182 346.5 218.5 c 128,-1,77
 310 255 310 255 256 256 c 2,78,-1
 128 256 l 2,79,80
 110 256 110 256 98 243.5 c 128,-1,81
 86 231 86 231 86 213 c 128,-1,82
 86 195 86 195 98 183 c 128,-1,83
 110 171 110 171 128 171 c 2,64,-1
EndSplineSet
EndChar

StartChar: map-pin
Encoding: 59534 59534 119
Width: 1024
GlyphClass: 2
Flags: W
LayerCount: 2
Fore
SplineSet
545 -7 m 0,0,1
 613 47 613 47 673 109 c 0,2,3
 759 199 759 199 806 290 c 128,-1,4
 853 381 853 381 853 469 c 0,5,6
 850 614 850 614 753.5 710.5 c 128,-1,7
 657 807 657 807 512 811 c 1,8,9
 367 807 367 807 270.5 710.5 c 128,-1,10
 174 614 174 614 171 469 c 0,11,12
 171 381 171 381 218 290 c 128,-1,13
 265 199 265 199 351 109 c 0,14,15
 425 31 425 31 512 -33 c 1,16,17
 528 -21 528 -21 545 -7 c 0,0,1
735 51 m 0,18,19
 651 -37 651 -37 553 -108 c 2,20,-1
 536 -121 l 2,21,22
 525 -128 525 -128 512 -128 c 128,-1,23
 499 -128 499 -128 488 -121 c 2,24,-1
 471 -108 l 2,25,26
 373 -37 373 -37 289 51 c 0,27,28
 193 151 193 151 139.5 256 c 128,-1,29
 86 361 86 361 85 469 c 0,30,31
 90 651 90 651 210.5 771 c 128,-1,32
 331 891 331 891 512 896 c 1,33,34
 693 891 693 891 813.5 771 c 128,-1,35
 934 651 934 651 939 469 c 0,36,37
 938 361 938 361 884.5 256 c 128,-1,38
 831 151 831 151 735 51 c 0,18,19
512 299 m 0,39,40
 466 299 466 299 427 321.5 c 128,-1,41
 388 344 388 344 364.5 384 c 128,-1,42
 341 424 341 424 341 469 c 128,-1,43
 341 514 341 514 364.5 554.5 c 128,-1,44
 388 595 388 595 427 617.5 c 128,-1,45
 466 640 466 640 512 640 c 0,46,47
 585 638 585 638 633 590 c 128,-1,48
 681 542 681 542 683 469 c 0,49,50
 681 397 681 397 633 349 c 128,-1,51
 585 301 585 301 512 299 c 0,39,40
512 384 m 0,52,53
 548 385 548 385 572 409 c 128,-1,54
 596 433 596 433 596 469.5 c 128,-1,55
 596 506 596 506 572 530 c 128,-1,56
 548 554 548 554 512 554 c 128,-1,57
 476 554 476 554 452 530 c 128,-1,58
 428 506 428 506 428 469.5 c 128,-1,59
 428 433 428 433 452 409 c 128,-1,60
 476 385 476 385 512 384 c 0,52,53
EndSplineSet
EndChar

StartChar: menu
Encoding: 59535 59535 120
Width: 1024
GlyphClass: 2
Flags: W
LayerCount: 2
Fore
SplineSet
128 341 m 2,0,-1
 896 341 l 2,1,2
 914 342 914 342 926 354 c 128,-1,3
 938 366 938 366 938 384 c 128,-1,4
 938 402 938 402 926 414 c 128,-1,5
 914 426 914 426 896 427 c 2,6,-1
 128 427 l 2,7,8
 110 426 110 426 98 414 c 128,-1,9
 86 402 86 402 86 384 c 128,-1,10
 86 366 86 366 98 354 c 128,-1,11
 110 342 110 342 128 341 c 2,0,-1
128 597 m 2,12,-1
 896 597 l 2,13,14
 914 598 914 598 926 610 c 128,-1,15
 938 622 938 622 938 640 c 128,-1,16
 938 658 938 658 926 670 c 128,-1,17
 914 682 914 682 896 683 c 2,18,-1
 128 683 l 2,19,20
 110 682 110 682 98 670 c 128,-1,21
 86 658 86 658 86 640 c 128,-1,22
 86 622 86 622 98 610 c 128,-1,23
 110 598 110 598 128 597 c 2,12,-1
128 85 m 2,24,-1
 896 85 l 2,25,26
 914 86 914 86 926 98 c 128,-1,27
 938 110 938 110 938 128 c 128,-1,28
 938 146 938 146 926 158 c 128,-1,29
 914 170 914 170 896 171 c 2,30,-1
 128 171 l 2,31,32
 110 170 110 170 98 158 c 128,-1,33
 86 146 86 146 86 128 c 128,-1,34
 86 110 86 110 98 98 c 128,-1,35
 110 86 110 86 128 85 c 2,24,-1
EndSplineSet
EndChar

StartChar: message-circle
Encoding: 59536 59536 121
Width: 1024
GlyphClass: 2
Flags: W
LayerCount: 2
Fore
SplineSet
358 122 m 2,0,1
 375 127 375 127 390 119 c 0,2,3
 458 85 458 85 533 85 c 0,4,5
 626 86 626 86 701.5 133 c 128,-1,6
 777 180 777 180 819 262 c 0,7,8
 853 330 853 330 853 405 c 2,9,-1
 853 424 l 1,10,11
 844 549 844 549 761 632.5 c 128,-1,12
 678 716 678 716 555 725 c 1,13,-1
 533 725 l 2,14,15
 458 725 458 725 390 691 c 0,16,17
 308 649 308 649 261 573.5 c 128,-1,18
 214 498 214 498 213 405 c 0,19,20
 213 330 213 330 247 262 c 0,21,22
 255 247 255 247 250 230 c 2,23,-1
 195 67 l 1,24,-1
 358 122 l 2,0,1
896 224 m 0,25,26
 842 120 842 120 746 60.5 c 128,-1,27
 650 1 650 1 534 0 c 0,28,29
 447 0 447 0 368 35 c 1,30,-1
 142 -41 l 2,31,32
 130 -44 130 -44 118.5 -41.5 c 128,-1,33
 107 -39 107 -39 98 -30 c 128,-1,34
 89 -21 89 -21 86.5 -9.5 c 128,-1,35
 84 2 84 2 88 13 c 2,36,-1
 163 240 l 1,37,38
 99 394 99 394 152 542 c 128,-1,39
 205 690 205 690 352 768 c 0,40,41
 438 811 438 811 533 811 c 2,42,-1
 557 811 l 1,43,44
 715 799 715 799 821 692.5 c 128,-1,45
 927 586 927 586 939 427 c 1,46,-1
 939 405 l 2,47,48
 939 310 939 310 896 224 c 0,25,26
EndSplineSet
EndChar

StartChar: message-square
Encoding: 59537 59537 122
Width: 1024
GlyphClass: 2
Flags: W
LayerCount: 2
Fore
SplineSet
269 201 m 2,0,1
 281 213 281 213 299 213 c 2,2,-1
 811 213 l 2,3,4
 829 214 829 214 841 226 c 128,-1,5
 853 238 853 238 853 256 c 2,6,-1
 853 683 l 2,7,8
 853 701 853 701 841 713 c 128,-1,9
 829 725 829 725 811 725 c 2,10,-1
 213 725 l 2,11,12
 195 725 195 725 183 713 c 128,-1,13
 171 701 171 701 171 683 c 2,14,-1
 171 103 l 1,15,-1
 269 201 l 2,0,1
158 -30 m 2,16,17
 136 -49 136 -49 111.5 -39 c 128,-1,18
 87 -29 87 -29 85 0 c 2,19,-1
 85 683 l 2,20,21
 87 737 87 737 123 773 c 128,-1,22
 159 809 159 809 213 811 c 2,23,-1
 811 811 l 2,24,25
 865 809 865 809 901 773 c 128,-1,26
 937 737 937 737 939 683 c 2,27,-1
 939 256 l 2,28,29
 937 202 937 202 901 165.5 c 128,-1,30
 865 129 865 129 811 128 c 2,31,-1
 316 128 l 1,32,-1
 158 -30 l 2,16,17
EndSplineSet
EndChar

StartChar: minimize-
Encoding: 59538 59538 123
Width: 1024
GlyphClass: 2
Flags: W
LayerCount: 2
Fore
SplineSet
384 43 m 2,0,1
 384 25 384 25 396.5 12.5 c 128,-1,2
 409 0 409 0 427 0 c 128,-1,3
 445 0 445 0 457 12.5 c 128,-1,4
 469 25 469 25 469 43 c 2,5,-1
 469 299 l 2,6,7
 469 317 469 317 457 329 c 128,-1,8
 445 341 445 341 427 341 c 2,9,-1
 171 341 l 2,10,11
 153 341 153 341 140.5 329 c 128,-1,12
 128 317 128 317 128 299 c 128,-1,13
 128 281 128 281 140.5 268.5 c 128,-1,14
 153 256 153 256 171 256 c 2,15,-1
 384 256 l 1,16,-1
 384 43 l 2,0,1
640 725 m 2,17,18
 640 743 640 743 627.5 755.5 c 128,-1,19
 615 768 615 768 597 768 c 128,-1,20
 579 768 579 768 567 755.5 c 128,-1,21
 555 743 555 743 555 725 c 2,22,-1
 555 469 l 2,23,24
 555 451 555 451 567 439 c 128,-1,25
 579 427 579 427 597 427 c 2,26,-1
 853 427 l 2,27,28
 871 427 871 427 883.5 439 c 128,-1,29
 896 451 896 451 896 469 c 128,-1,30
 896 487 896 487 883.5 499.5 c 128,-1,31
 871 512 871 512 853 512 c 2,32,-1
 640 512 l 1,33,-1
 640 725 l 2,17,18
627 439 m 2,34,-1
 926 738 l 2,35,36
 935 746 935 746 938 757 c 128,-1,37
 941 768 941 768 938 779.5 c 128,-1,38
 935 791 935 791 927 799 c 128,-1,39
 919 807 919 807 907.5 810 c 128,-1,40
 896 813 896 813 885 810 c 128,-1,41
 874 807 874 807 866 798 c 2,42,-1
 567 499 l 2,43,44
 559 491 559 491 556 480 c 128,-1,45
 553 469 553 469 556 458 c 128,-1,46
 559 447 559 447 567 439 c 128,-1,47
 575 431 575 431 586 428 c 128,-1,48
 597 425 597 425 608 428 c 128,-1,49
 619 431 619 431 627 439 c 2,34,-1
158 -30 m 2,50,-1
 457 269 l 2,51,52
 469 282 469 282 469 298.5 c 128,-1,53
 469 315 469 315 456 328 c 128,-1,54
 443 341 443 341 426.5 341 c 128,-1,55
 410 341 410 341 397 329 c 2,56,-1
 98 30 l 2,57,58
 86 17 86 17 86 0 c 128,-1,59
 86 -17 86 -17 98.5 -29.5 c 128,-1,60
 111 -42 111 -42 128 -42 c 128,-1,61
 145 -42 145 -42 158 -30 c 2,50,-1
EndSplineSet
EndChar

StartChar: mic-off
Encoding: 59539 59539 124
Width: 1024
GlyphClass: 2
Flags: W
LayerCount: 2
Fore
SplineSet
13 823 m 2,0,-1
 951 -116 l 2,1,2
 964 -128 964 -128 981 -127.5 c 128,-1,3
 998 -127 998 -127 1010.5 -114.5 c 128,-1,4
 1023 -102 1023 -102 1023.5 -85 c 128,-1,5
 1024 -68 1024 -68 1012 -55 c 2,6,-1
 73 883 l 2,7,8
 65 891 65 891 54 894 c 128,-1,9
 43 897 43 897 32 894.5 c 128,-1,10
 21 892 21 892 12.5 883.5 c 128,-1,11
 4 875 4 875 1.5 864 c 128,-1,12
 -1 853 -1 853 2 842 c 128,-1,13
 5 831 5 831 13 823 c 2,0,-1
342 512 m 2,14,-1
 342 384 l 2,15,16
 342 331 342 331 370.5 289 c 128,-1,17
 399 247 399 247 447.5 227 c 128,-1,18
 496 207 496 207 545.5 216.5 c 128,-1,19
 595 226 595 226 633 263 c 0,20,21
 645 276 645 276 645 293 c 128,-1,22
 645 310 645 310 632.5 323 c 128,-1,23
 620 336 620 336 603 336 c 128,-1,24
 586 336 586 336 573 324 c 0,25,26
 554 305 554 305 529 300 c 128,-1,27
 504 295 504 295 479.5 305 c 128,-1,28
 455 315 455 315 441 336 c 128,-1,29
 427 357 427 357 427 384 c 2,30,-1
 427 512 l 2,31,32
 427 530 427 530 414.5 542 c 128,-1,33
 402 554 402 554 384 554 c 128,-1,34
 366 554 366 554 354 542 c 128,-1,35
 342 530 342 530 342 512 c 2,14,-1
683 497 m 2,36,-1
 683 725 l 2,37,38
 681 792 681 792 638.5 839.5 c 128,-1,39
 596 887 596 887 529 895 c 0,40,41
 462 900 462 900 411 862.5 c 128,-1,42
 360 825 360 825 345 759 c 0,43,44
 342 741 342 741 351.5 727 c 128,-1,45
 361 713 361 713 378.5 709.5 c 128,-1,46
 396 706 396 706 410.5 715 c 128,-1,47
 425 724 425 724 429 742 c 0,48,49
 436 775 436 775 461.5 794 c 128,-1,50
 487 813 487 813 520.5 809.5 c 128,-1,51
 554 806 554 806 575.5 782.5 c 128,-1,52
 597 759 597 759 598 725 c 2,53,-1
 598 497 l 2,54,55
 598 479 598 479 610 467 c 128,-1,56
 622 455 622 455 640 455 c 128,-1,57
 658 455 658 455 670 467 c 128,-1,58
 682 479 682 479 683 497 c 2,36,-1
695 202 m 0,59,60
 639 146 639 146 564 131 c 128,-1,61
 489 116 489 116 415 146 c 128,-1,62
 341 176 341 176 299 240 c 128,-1,63
 257 304 257 304 256 383 c 2,64,-1
 256 469 l 2,65,66
 256 487 256 487 244 499 c 128,-1,67
 232 511 232 511 214 511 c 128,-1,68
 196 511 196 511 184 499 c 128,-1,69
 172 487 172 487 171 469 c 2,70,-1
 171 384 l 2,71,72
 172 278 172 278 228.5 193 c 128,-1,73
 285 108 285 108 382 66 c 0,74,75
 481 27 481 27 581 47.5 c 128,-1,76
 681 68 681 68 756 143 c 0,77,78
 768 156 768 156 767.5 173 c 128,-1,79
 767 190 767 190 754.5 202.5 c 128,-1,80
 742 215 742 215 725 215 c 128,-1,81
 708 215 708 215 695 202 c 0,59,60
768 469 m 2,82,-1
 768 384 l 2,83,84
 768 361 768 361 764 339 c 0,85,86
 762 327 762 327 765.5 316.5 c 128,-1,87
 769 306 769 306 778 298 c 128,-1,88
 787 290 787 290 798.5 288 c 128,-1,89
 810 286 810 286 821 290.5 c 128,-1,90
 832 295 832 295 839 303.5 c 128,-1,91
 846 312 846 312 848 324 c 0,92,93
 853 353 853 353 853 384 c 2,94,-1
 853 469 l 2,95,96
 853 487 853 487 841 499 c 128,-1,97
 829 511 829 511 811 511 c 128,-1,98
 793 511 793 511 781 499 c 128,-1,99
 769 487 769 487 768 469 c 2,82,-1
470 85 m 2,100,-1
 470 -85 l 2,101,102
 470 -103 470 -103 482 -115.5 c 128,-1,103
 494 -128 494 -128 512 -128 c 128,-1,104
 530 -128 530 -128 542 -115.5 c 128,-1,105
 554 -103 554 -103 555 -85 c 2,106,-1
 555 85 l 2,107,108
 554 103 554 103 542 115 c 128,-1,109
 530 127 530 127 512 127 c 128,-1,110
 494 127 494 127 482 115 c 128,-1,111
 470 103 470 103 470 85 c 2,100,-1
342 -128 m 2,112,-1
 683 -128 l 2,113,114
 701 -128 701 -128 713 -115.5 c 128,-1,115
 725 -103 725 -103 725 -85 c 128,-1,116
 725 -67 725 -67 713 -55 c 128,-1,117
 701 -43 701 -43 683 -43 c 2,118,-1
 342 -43 l 2,119,120
 324 -43 324 -43 311.5 -55 c 128,-1,121
 299 -67 299 -67 299 -85 c 128,-1,122
 299 -103 299 -103 311.5 -115.5 c 128,-1,123
 324 -128 324 -128 342 -128 c 2,112,-1
EndSplineSet
EndChar

StartChar: minus-circle
Encoding: 59540 59540 125
Width: 1024
GlyphClass: 2
Flags: W
LayerCount: 2
Fore
SplineSet
512 -85 m 1,0,1
 313 -80 313 -80 180.5 52.5 c 128,-1,2
 48 185 48 185 43 384 c 1,3,4
 48 583 48 583 180.5 715.5 c 128,-1,5
 313 848 313 848 512 853 c 1,6,7
 711 848 711 848 843.5 715.5 c 128,-1,8
 976 583 976 583 981 384 c 1,9,10
 976 185 976 185 843.5 52.5 c 128,-1,11
 711 -80 711 -80 512 -85 c 1,0,1
512 0 m 1,12,13
 675 4 675 4 783.5 112.5 c 128,-1,14
 892 221 892 221 896 384 c 1,15,16
 892 547 892 547 783.5 655.5 c 128,-1,17
 675 764 675 764 512 768 c 1,18,19
 349 764 349 764 240.5 655.5 c 128,-1,20
 132 547 132 547 128 384 c 1,21,22
 132 221 132 221 240.5 112.5 c 128,-1,23
 349 4 349 4 512 0 c 1,12,13
341 341 m 2,24,-1
 683 341 l 2,25,26
 701 342 701 342 713 354 c 128,-1,27
 725 366 725 366 725 384 c 128,-1,28
 725 402 725 402 713 414 c 128,-1,29
 701 426 701 426 683 427 c 2,30,-1
 341 427 l 2,31,32
 323 426 323 426 311 414 c 128,-1,33
 299 402 299 402 299 384 c 128,-1,34
 299 366 299 366 311 354 c 128,-1,35
 323 342 323 342 341 341 c 2,24,-1
EndSplineSet
EndChar

StartChar: mic
Encoding: 59541 59541 126
Width: 1024
GlyphClass: 2
Flags: W
LayerCount: 2
Fore
SplineSet
683 725 m 2,0,-1
 683 384 l 2,1,2
 681 311 681 311 633 263 c 128,-1,3
 585 215 585 215 512 213 c 0,4,5
 439 215 439 215 391 263 c 128,-1,6
 343 311 343 311 341 384 c 2,7,-1
 341 725 l 2,8,9
 343 798 343 798 391 846 c 128,-1,10
 439 894 439 894 512 896 c 0,11,12
 585 894 585 894 633 846 c 128,-1,13
 681 798 681 798 683 725 c 2,0,-1
512 811 m 0,14,15
 477 810 477 810 452 785 c 128,-1,16
 427 760 427 760 427 725 c 2,17,-1
 427 384 l 2,18,19
 428 348 428 348 452 324 c 128,-1,20
 476 300 476 300 512 300 c 128,-1,21
 548 300 548 300 572 324 c 128,-1,22
 596 348 596 348 597 384 c 2,23,-1
 597 725 l 2,24,25
 597 760 597 760 572 785 c 128,-1,26
 547 810 547 810 512 811 c 0,14,15
768 469 m 2,27,-1
 768 384 l 2,28,29
 765 275 765 275 693 203 c 128,-1,30
 621 131 621 131 512 128 c 1,31,32
 403 131 403 131 331 203 c 128,-1,33
 259 275 259 275 256 384 c 2,34,-1
 256 469 l 2,35,36
 256 481 256 481 250.5 490.5 c 128,-1,37
 245 500 245 500 235 506 c 128,-1,38
 225 512 225 512 213.5 512 c 128,-1,39
 202 512 202 512 192 506 c 128,-1,40
 182 500 182 500 176.5 490.5 c 128,-1,41
 171 481 171 481 171 469 c 2,42,-1
 171 384 l 2,43,44
 174 239 174 239 270.5 142.5 c 128,-1,45
 367 46 367 46 512 43 c 1,46,47
 657 46 657 46 753.5 142.5 c 128,-1,48
 850 239 850 239 853 384 c 2,49,-1
 853 469 l 2,50,51
 853 487 853 487 841 499.5 c 128,-1,52
 829 512 829 512 811 512 c 128,-1,53
 793 512 793 512 780.5 499.5 c 128,-1,54
 768 487 768 487 768 469 c 2,27,-1
469 85 m 2,55,-1
 469 -85 l 2,56,57
 470 -103 470 -103 482 -115.5 c 128,-1,58
 494 -128 494 -128 512 -128 c 128,-1,59
 530 -128 530 -128 542 -115.5 c 128,-1,60
 554 -103 554 -103 555 -85 c 2,61,-1
 555 85 l 2,62,63
 554 103 554 103 542 115.5 c 128,-1,64
 530 128 530 128 512 128 c 128,-1,65
 494 128 494 128 482 115.5 c 128,-1,66
 470 103 470 103 469 85 c 2,55,-1
341 -128 m 2,67,-1
 683 -128 l 2,68,69
 701 -128 701 -128 713 -115.5 c 128,-1,70
 725 -103 725 -103 725 -85 c 128,-1,71
 725 -67 725 -67 713 -55 c 128,-1,72
 701 -43 701 -43 683 -43 c 2,73,-1
 341 -43 l 2,74,75
 323 -43 323 -43 311 -55 c 128,-1,76
 299 -67 299 -67 299 -85 c 128,-1,77
 299 -103 299 -103 311 -115.5 c 128,-1,78
 323 -128 323 -128 341 -128 c 2,67,-1
EndSplineSet
EndChar

